<svg width="750" height="500" viewBox="0 0 750 500" fill="none" xmlns="http://www.w3.org/2000/svg">
<path d="M247.71 188H225.71L221.51 198.16H210.27L231.39 150.76H242.23L263.42 198.16H251.91L247.71 188ZM244.26 179.67L236.74 161.52L229.23 179.67H244.26Z" fill="#455A64"/>
<path d="M307.31 179.9C307.31 191.35 299.38 198.66 289.16 198.66C284.28 198.66 280.35 197.1 277.71 193.92V198.12H267.62V147.87H278.19V165.55C280.9 162.55 284.62 161.15 289.19 161.15C299.38 161.15 307.31 168.46 307.31 179.9ZM296.61 179.9C296.61 173.61 292.61 169.81 287.33 169.81C282.05 169.81 278.05 173.61 278.05 179.9C278.05 186.19 282.05 189.99 287.33 189.99C292.61 189.99 296.61 186.2 296.61 179.9Z" fill="#455A64"/>
<path d="M311.64 179.9C311.64 168.9 320.1 161.15 331.64 161.15C343.18 161.15 351.64 168.93 351.64 179.9C351.64 190.87 343.24 198.66 331.64 198.66C320.04 198.66 311.64 190.87 311.64 179.9ZM340.96 179.9C340.96 173.61 336.96 169.81 331.68 169.81C326.4 169.81 322.34 173.61 322.34 179.9C322.34 186.19 326.4 190 331.68 190C336.96 190 341 186.2 341 179.9H340.96Z" fill="#455A64"/>
<path d="M395.41 161.69V198.12H385.41V193.79C383.989 195.369 382.244 196.622 380.293 197.462C378.343 198.303 376.233 198.712 374.11 198.66C364.96 198.66 358.53 193.52 358.53 182.27V161.69H369.09V180.69C369.09 186.78 371.8 189.49 376.48 189.49C381.35 189.49 384.87 186.37 384.87 179.67V161.67L395.41 161.69Z" fill="#455A64"/>
<path d="M428.72 196.36C426.151 197.976 423.153 198.777 420.12 198.66C411.52 198.66 406.51 194.26 406.51 185.59V170.59H400.89V162.5H406.51V153.63H417.08V162.5H426.15V170.63H417.08V185.46C417.08 188.57 418.77 190.26 421.61 190.26C423.141 190.281 424.639 189.808 425.88 188.91L428.72 196.36Z" fill="#455A64"/>
<path d="M490.55 161.69V198.12H480.55V193.79C479.127 195.369 477.38 196.621 475.428 197.462C473.475 198.302 471.365 198.711 469.24 198.66C460.1 198.66 453.66 193.52 453.66 182.27V161.69H464.23V180.69C464.23 186.78 466.94 189.49 471.61 189.49C476.49 189.49 480.01 186.37 480.01 179.67V161.67L490.55 161.69Z" fill="#455A64"/>
<path d="M496.85 194.73L500.37 187.15C504.19 189.431 508.551 190.646 513 190.67C517.88 190.67 519.71 189.38 519.71 187.35C519.71 181.35 497.71 187.49 497.71 172.93C497.71 166.02 503.94 161.15 514.57 161.15C519.57 161.15 525.14 162.3 528.57 164.33L525.05 171.85C521.85 170.036 518.228 169.101 514.55 169.14C509.81 169.14 507.78 170.63 507.78 172.52C507.78 178.75 529.78 172.73 529.78 187.08C529.78 193.85 523.48 198.66 512.58 198.66C506.47 198.66 500.23 197 496.85 194.73Z" fill="#455A64"/>
<path d="M161.58 176.92C161.58 177.29 158.86 177.6 155.49 177.6C152.12 177.6 149.4 177.29 149.4 176.92C149.4 176.55 152.13 176.25 155.49 176.25C158.85 176.25 161.58 176.55 161.58 176.92Z" fill="#263238"/>
<path d="M168.05 160.36C168.42 160.36 168.72 163.12 168.72 166.54C168.72 169.96 168.42 172.72 168.05 172.72C167.68 172.72 167.38 169.95 167.38 166.54C167.38 163.13 167.68 160.36 168.05 160.36Z" fill="#263238"/>
<path d="M174.94 176.53C174.94 176.15 177.66 175.85 181.02 175.85C184.38 175.85 187.11 176.15 187.11 176.53C187.11 176.91 184.39 177.2 181.02 177.2C177.65 177.2 174.94 176.9 174.94 176.53Z" fill="#263238"/>
<path d="M168.47 193.09C168.1 193.09 167.8 190.32 167.8 186.91C167.8 183.5 168.1 180.73 168.47 180.73C168.84 180.73 169.14 183.5 169.14 186.91C169.14 190.32 168.84 193.09 168.47 193.09Z" fill="#263238"/>
<path d="M178.31 186C178.03 186.23 176.83 185.27 175.63 183.83C174.43 182.39 173.7 181.05 173.98 180.83C174.26 180.61 175.47 181.56 176.66 182.99C177.85 184.42 178.6 185.75 178.31 186Z" fill="#263238"/>
<path d="M177.74 167.2C178.01 167.46 177.21 168.69 175.97 169.94C174.73 171.19 173.51 172 173.25 171.74C172.99 171.48 173.78 170.25 175.02 168.99C176.26 167.73 177.48 166.94 177.74 167.2Z" fill="#263238"/>
<path d="M163.78 172C163.55 172.28 162.4 171.72 161.21 170.73C160.02 169.74 159.27 168.73 159.5 168.43C159.73 168.13 160.89 168.71 162.08 169.7C163.27 170.69 164 171.7 163.78 172Z" fill="#263238"/>
<path d="M163.24 180.26C163.51 180.52 162.82 181.72 161.69 182.96C160.56 184.2 159.43 184.96 159.16 184.74C158.89 184.52 159.57 183.29 160.7 182.05C161.83 180.81 163 180 163.24 180.26Z" fill="#263238"/>
<path d="M505.18 144.87C505.18 145.08 503.63 145.25 501.72 145.25C499.81 145.25 498.26 145.08 498.26 144.87C498.26 144.66 499.81 144.49 501.72 144.49C503.63 144.49 505.18 144.66 505.18 144.87Z" fill="#263238"/>
<path d="M508.85 135.47C509.06 135.47 509.23 137.04 509.23 138.97C509.23 140.9 509.06 142.48 508.85 142.48C508.64 142.48 508.47 140.91 508.47 138.97C508.47 137.03 508.64 135.47 508.85 135.47Z" fill="#263238"/>
<path d="M512.76 144.64C512.76 144.43 514.31 144.26 516.22 144.26C518.13 144.26 519.67 144.43 519.67 144.64C519.67 144.85 518.13 145.03 516.22 145.03C514.31 145.03 512.76 144.86 512.76 144.64Z" fill="#263238"/>
<path d="M509.09 154.05C508.88 154.05 508.71 152.48 508.71 150.54C508.71 148.6 508.88 147.03 509.09 147.03C509.3 147.03 509.47 148.6 509.47 150.54C509.47 152.48 509.3 154.05 509.09 154.05Z" fill="#263238"/>
<path d="M514.68 150C514.51 150.13 513.83 149.58 513.15 148.77C512.47 147.96 512.06 147.19 512.22 147.05C512.38 146.91 513.06 147.47 513.74 148.28C514.42 149.09 514.84 149.88 514.68 150Z" fill="#263238"/>
<path d="M514.35 139.35C514.5 139.5 514.05 140.2 513.35 140.91C512.65 141.62 511.95 142.07 511.8 141.91C511.65 141.75 512.1 141.07 512.8 140.36C513.5 139.65 514.2 139.2 514.35 139.35Z" fill="#263238"/>
<path d="M506.43 142.07C506.29 142.23 505.64 141.91 504.97 141.35C504.3 140.79 503.86 140.21 503.97 140.05C504.08 139.89 504.76 140.2 505.43 140.76C506.1 141.32 506.56 141.91 506.43 142.07Z" fill="#263238"/>
<path d="M506.12 146.77C506.27 146.91 505.88 147.59 505.24 148.3C504.6 149.01 503.96 149.45 503.8 149.3C503.64 149.15 504.04 148.47 504.68 147.77C505.32 147.07 506 146.63 506.12 146.77Z" fill="#263238"/>
<path d="M348.13 223.53C346.385 223.917 344.575 223.917 342.83 223.53C344.574 223.13 346.386 223.13 348.13 223.53V223.53Z" fill="#263238"/>
<path d="M351 216.32C351.387 218.089 351.387 219.921 351 221.69C350.6 219.922 350.6 218.088 351 216.32Z" fill="#263238"/>
<path d="M353.94 223.35C355.686 222.963 357.494 222.963 359.24 223.35C357.496 223.75 355.684 223.75 353.94 223.35Z" fill="#263238"/>
<path d="M351.13 230.56C350.743 228.788 350.743 226.952 351.13 225.18C351.517 226.952 351.517 228.788 351.13 230.56V230.56Z" fill="#263238"/>
<path d="M355.41 227.47C355.29 227.57 354.77 227.15 354.25 226.53C353.73 225.91 353.4 225.32 353.53 225.21C353.66 225.1 354.18 225.53 354.7 226.15C355.22 226.77 355.54 227.37 355.41 227.47Z" fill="#263238"/>
<path d="M355.17 219.29C355.28 219.41 354.94 219.94 354.4 220.49C353.86 221.04 353.32 221.38 353.21 221.27C353.1 221.16 353.44 220.62 353.98 220.08C354.52 219.54 355.05 219.18 355.17 219.29Z" fill="#263238"/>
<path d="M349.09 221.38C348.99 221.5 348.49 221.26 347.97 220.83C347.45 220.4 347.12 219.95 347.23 219.83C347.34 219.71 347.83 219.95 348.35 220.38C348.87 220.81 349.19 221.25 349.09 221.38Z" fill="#263238"/>
<path d="M348.85 225C348.97 225.11 348.67 225.63 348.18 226.17C347.69 226.71 347.18 227.06 347.08 226.95C346.98 226.84 347.26 226.32 347.75 225.78C348.24 225.24 348.73 224.87 348.85 225Z" fill="#263238"/>
<path d="M496.5 234.51C496.5 234.3 498.05 234.13 499.96 234.13C501.87 234.13 503.41 234.3 503.41 234.51C503.41 234.72 501.87 234.89 499.96 234.89C498.05 234.89 496.5 234.72 496.5 234.51Z" fill="#E0E0E0"/>
<path d="M492.83 243.92C492.62 243.92 492.45 242.34 492.45 240.41C492.45 238.48 492.62 236.9 492.83 236.9C493.04 236.9 493.21 238.47 493.21 240.41C493.21 242.35 493 243.92 492.83 243.92Z" fill="#E0E0E0"/>
<path d="M498.42 239.88C498.25 240.02 497.57 239.47 496.89 238.66C496.21 237.85 495.8 237.07 495.96 236.94C496.12 236.81 496.8 237.35 497.48 238.16C498.16 238.97 498.58 239.75 498.42 239.88Z" fill="#E0E0E0"/>
<path d="M498.09 229.22C498.24 229.37 497.79 230.06 497.09 230.77C496.39 231.48 495.69 231.94 495.54 231.77C495.39 231.6 495.84 230.93 496.54 230.21C497.24 229.49 497.94 229.07 498.09 229.22Z" fill="#E0E0E0"/>
<path d="M490.17 231.93C490.03 232.1 489.38 231.78 488.71 231.22C488.04 230.66 487.6 230.07 487.71 229.91C487.82 229.75 488.5 230.07 489.17 230.63C489.84 231.19 490.3 231.77 490.17 231.93Z" fill="#E0E0E0"/>
<path d="M489.86 236.63C490.01 236.78 489.62 237.46 488.98 238.16C488.34 238.86 487.7 239.32 487.54 239.16C487.38 239 487.78 238.33 488.42 237.63C489.06 236.93 489.7 236.49 489.86 236.63Z" fill="#E0E0E0"/>
<path d="M306.68 145.48L307.13 146.56C307.52 147.491 308.091 148.336 308.808 149.046C309.525 149.757 310.375 150.319 311.31 150.7L312.49 151.18L311.36 151.63C310.41 152.017 309.548 152.59 308.825 153.317C308.102 154.044 307.532 154.909 307.15 155.86L306.83 156.64L306.35 155.64C305.491 153.839 303.957 152.448 302.08 151.77L301.08 151.39L302.42 150.75C304.109 149.918 305.433 148.495 306.14 146.75L306.68 145.48Z" fill="#E0E0E0"/>
<path d="M131.05 226.4L131.35 227.12C131.608 227.74 131.987 228.302 132.464 228.774C132.941 229.246 133.508 229.618 134.13 229.87L134.91 230.19L134.16 230.49C133.53 230.748 132.957 231.13 132.476 231.612C131.995 232.095 131.616 232.669 131.36 233.3L131.15 233.82L130.83 233.17C130.259 231.974 129.244 231.048 128 230.59L127.32 230.35L128.21 229.92C129.321 229.371 130.197 228.441 130.68 227.3L131.05 226.4Z" fill="#E0E0E0"/>
<path d="M573.6 156.64L573.89 157.36C574.417 158.61 575.416 159.602 576.67 160.12L577.45 160.43L576.71 160.74C576.078 160.994 575.503 161.373 575.02 161.854C574.538 162.335 574.157 162.909 573.9 163.54L573.69 164.07L573.38 163.41C572.804 162.216 571.785 161.294 570.54 160.84L569.86 160.59L570.75 160.16C571.87 159.624 572.751 158.69 573.22 157.54L573.6 156.64Z" fill="#E0E0E0"/>
<path d="M574.93 187L575.38 188.08C575.768 189.013 576.338 189.861 577.055 190.573C577.773 191.285 578.624 191.848 579.56 192.23L580.74 192.7L579.61 193.16C578.66 193.546 577.798 194.118 577.073 194.843C576.348 195.568 575.776 196.43 575.39 197.38L575.08 198.17L574.6 197.17C573.741 195.369 572.207 193.978 570.33 193.3L569.33 192.93L570.67 192.28C572.349 191.465 573.672 190.063 574.39 188.34L574.93 187Z" fill="#263238"/>
<path d="M390.16 138.93L390.37 139.44C390.557 139.88 390.831 140.279 391.174 140.612C391.518 140.945 391.924 141.206 392.37 141.38L392.92 141.61L392.39 141.82C391.938 142 391.528 142.27 391.184 142.614C390.84 142.958 390.57 143.368 390.39 143.82L390.24 144.19L390.01 143.73C389.61 142.883 388.891 142.228 388.01 141.91L387.53 141.74L388.16 141.43C388.95 141.048 389.572 140.39 389.91 139.58L390.16 138.93Z" fill="#263238"/>
<path d="M250.76 221.83L251.03 222.48C251.263 223.043 251.605 223.555 252.038 223.984C252.471 224.413 252.985 224.752 253.55 224.98L254.26 225.27L253.58 225.54C253.006 225.771 252.486 226.117 252.049 226.555C251.612 226.993 251.269 227.515 251.04 228.09L250.85 228.57L250.56 227.97C250.036 226.887 249.111 226.051 247.98 225.64L247.36 225.41L248.17 225.02C249.183 224.525 249.983 223.679 250.42 222.64L250.76 221.83Z" fill="#263238"/>
<path d="M655.32 196.59C646.811 196.595 638.5 199.154 631.462 203.936C624.425 208.719 618.985 215.504 615.848 223.413C612.71 231.322 612.02 239.991 613.865 248.297C615.711 256.603 620.008 264.164 626.2 270L620.46 290.1L640.76 279C646.593 281.126 652.82 281.948 659.005 281.41C665.19 280.871 671.181 278.984 676.559 275.882C681.936 272.78 686.569 268.538 690.131 263.453C693.694 258.369 696.099 252.566 697.179 246.453C698.259 240.339 697.986 234.063 696.38 228.066C694.775 222.069 691.875 216.497 687.886 211.741C683.896 206.984 678.913 203.159 673.287 200.535C667.661 197.911 661.528 196.55 655.32 196.55V196.59Z" fill="#F5F5F5"/>
<path d="M655.32 196.59C655.32 196.59 655.57 196.59 656.08 196.59L658.3 196.68C658.79 196.68 659.3 196.68 659.94 196.77L661.94 197.06C662.65 197.18 663.42 197.25 664.23 197.43L666.78 198.07C677.068 200.848 685.916 207.432 691.53 216.49L692.85 218.66C693.23 219.42 693.61 220.2 693.99 220.99C696.409 226.031 697.77 231.513 697.99 237.1C698.092 239.1 698.059 241.105 697.89 243.1C697.82 244.1 697.61 245.1 697.47 246.1C697.39 246.61 697.32 247.1 697.24 247.63L696.85 249.15C695.874 253.349 694.23 257.363 691.98 261.04C687.193 269.04 679.92 275.253 671.27 278.73C661.952 282.411 651.649 282.764 642.1 279.73L640.72 279.25H640.93C634.01 283.04 627.22 286.76 620.63 290.35L620.1 290.65L620.26 290.06C622.26 283.13 624.17 276.41 626.01 269.96L626.08 270.21C623.439 267.696 621.115 264.868 619.16 261.79C617.309 258.818 615.818 255.635 614.72 252.31C613.695 249.123 613.047 245.828 612.79 242.49C612.71 241.68 612.68 240.87 612.67 240.07C612.625 239.271 612.625 238.469 612.67 237.67C612.695 236.106 612.832 234.545 613.08 233C613.925 227.258 615.94 221.751 619 216.82C621.615 212.595 624.933 208.848 628.81 205.74L631.45 203.74L634.12 202.12C634.95 201.606 635.816 201.152 636.71 200.76C637.57 200.37 638.37 199.92 639.21 199.62C641.999 198.51 644.894 197.689 647.85 197.17L651.07 196.7L653.43 196.6H654.88H655.37H654.88L653.44 196.7L651.08 196.84L647.88 197.34C644.943 197.886 642.068 198.727 639.3 199.85C638.47 200.15 637.68 200.61 636.83 201C635.941 201.399 635.079 201.857 634.25 202.37L631.57 204L629 206C625.169 209.087 621.895 212.808 619.32 217C616.318 221.902 614.354 227.368 613.55 233.06C613.31 234.592 613.176 236.139 613.15 237.69C613.105 238.479 613.105 239.271 613.15 240.06C613.15 240.85 613.15 241.65 613.27 242.46C613.537 245.757 614.185 249.012 615.2 252.16C617.419 258.903 621.29 264.985 626.46 269.85L626.57 269.95L626.52 270.1C624.69 276.54 622.77 283.26 620.8 290.2L620.43 289.9L640.72 278.8L640.82 278.74H640.94L642.31 279.21C651.741 282.211 661.92 281.857 671.12 278.21C679.672 274.777 686.868 268.642 691.61 260.74C693.841 257.107 695.475 253.14 696.45 248.99C696.58 248.49 696.71 247.99 696.83 247.49L697.07 245.97C697.2 244.97 697.41 243.97 697.49 242.97C697.656 241.001 697.693 239.024 697.6 237.05C697.407 231.505 696.076 226.059 693.69 221.05L692.57 218.74L691.27 216.59C688.133 211.501 683.947 207.141 678.99 203.8C675.245 201.286 671.123 199.386 666.78 198.17L664.24 197.5C663.44 197.32 662.67 197.24 661.97 197.11L659.97 196.8C659.37 196.71 658.82 196.72 658.34 196.68L656.12 196.54C655.57 196.62 655.32 196.59 655.32 196.59Z" fill="#263238"/>
<path d="M646 233.28H649L655.56 224.13V218.13C655.56 218.13 660.21 217.85 659.66 225.71C659.11 233.57 659.66 231.56 659.66 231.56C659.66 231.56 669.52 231.56 670.34 232.46C670.94 233.08 671.21 242.88 671.34 248.2C671.404 249.481 671.039 250.746 670.301 251.795C669.564 252.844 668.497 253.617 667.27 253.99C666.92 254.08 666.561 254.127 666.2 254.13C663.74 254.13 651.2 252.13 651.2 252.13H646V233.28Z" fill="#263238"/>
<path d="M637.43 231.63L639.28 252.19H644.43V232.04L637.43 231.63Z" fill="#263238"/>
<path d="M224.16 240.07C223.99 243.28 219.81 247.56 221.1 250.5C223.48 255.92 222.1 262.41 219.02 267.5C215.94 272.59 211.33 276.5 206.8 280.28C207.029 272.377 206.341 264.474 204.75 256.73C204.25 254.31 203.43 251.61 201.22 250.51C198.35 249.09 194.71 251.14 191.77 249.88C188.64 248.52 188.01 244.24 185.37 242.08C182.98 240.13 179.47 240.34 176.54 241.32C173.61 242.3 170.92 243.95 167.91 244.62C164.9 245.29 161.27 244.69 159.6 242.09C158.6 240.49 159.31 241.47 158.33 239.84C158.33 239.84 152.46 240.04 150.44 233.21C150.44 233.21 147.68 225.62 153.79 222.27C153.79 222.27 155.18 208.55 168.97 214.72C172.97 216.5 177.63 210.78 181.5 212.72C184.72 214.35 185.67 218.83 188.89 220.47C192.59 222.35 196.89 219.55 201.03 219.38C203.682 219.38 206.226 220.434 208.101 222.309C209.976 224.184 211.03 226.728 211.03 229.38C211.03 229.38 211.68 226.64 216.17 227.84C220.66 229.04 224.48 233.81 224.16 240.07Z" fill="#263238"/>
<path d="M218.31 262.15C218.396 260.598 218.108 259.048 217.47 257.63C216.89 256.46 214.72 253.8 212.34 253.63L212.69 239.5C212.716 238.098 212.218 236.736 211.293 235.682C210.369 234.628 209.084 233.957 207.69 233.8L180 230.88C177.737 230.641 175.448 230.862 173.273 231.53C171.097 232.199 169.079 233.3 167.341 234.769C165.602 236.238 164.179 238.043 163.156 240.076C162.133 242.109 161.533 244.329 161.39 246.6C160.72 257.25 160.32 270.28 161.58 278.22C164.12 294.22 176.36 296.22 176.36 296.22L176.06 307.38C175.59 319.27 184.49 326.43 193.67 326.43C202.85 326.43 211.33 318.5 211.06 306.73L211.96 270.73C213.511 270.587 214.954 269.874 216.01 268.73C217.532 266.879 218.348 264.547 218.31 262.15V262.15Z" fill="#FFBE9D"/>
<path d="M167.53 255.27C167.527 255.808 167.735 256.325 168.109 256.712C168.482 257.099 168.992 257.324 169.53 257.34C170.054 257.37 170.569 257.193 170.964 256.847C171.359 256.501 171.601 256.014 171.64 255.49C171.649 255.222 171.605 254.954 171.508 254.703C171.412 254.452 171.266 254.224 171.08 254.03C170.893 253.837 170.669 253.683 170.422 253.579C170.175 253.474 169.909 253.42 169.64 253.42C169.116 253.39 168.601 253.567 168.206 253.913C167.811 254.259 167.568 254.746 167.53 255.27V255.27Z" fill="#263238"/>
<path d="M164.17 253.38C164.42 253.65 165.97 252.5 168.17 252.5C170.37 252.5 171.99 253.61 172.23 253.34C172.34 253.22 172.08 252.74 171.38 252.23C170.426 251.568 169.291 251.218 168.13 251.23C166.987 251.212 165.868 251.563 164.94 252.23C164.27 252.78 164 253.26 164.17 253.38Z" fill="#263238"/>
<path d="M188.81 255.68C188.805 256.219 189.011 256.738 189.386 257.125C189.76 257.512 190.272 257.737 190.81 257.75C191.334 257.78 191.849 257.603 192.244 257.257C192.639 256.911 192.881 256.424 192.92 255.9C192.925 255.361 192.719 254.842 192.344 254.455C191.97 254.068 191.458 253.843 190.92 253.83C190.396 253.8 189.881 253.977 189.486 254.323C189.091 254.669 188.848 255.156 188.81 255.68Z" fill="#263238"/>
<path d="M185.84 253.79C186.09 254.06 187.64 252.91 189.84 252.92C192.04 252.93 193.66 254.02 193.9 253.75C194.01 253.63 193.76 253.15 193.05 252.64C192.096 251.978 190.961 251.628 189.8 251.64C188.658 251.627 187.54 251.977 186.61 252.64C185.94 253.19 185.71 253.67 185.84 253.79Z" fill="#263238"/>
<path d="M177.83 270.14C176.667 269.78 175.465 269.562 174.25 269.49C173.69 269.44 173.16 269.32 173.06 268.94C173.017 268.358 173.15 267.776 173.44 267.27L175.1 263C177.42 256.89 179.1 251.87 178.84 251.78C178.58 251.69 176.52 256.56 174.21 262.67C173.65 264.17 173.12 265.61 172.62 266.98C172.264 267.659 172.158 268.441 172.32 269.19C172.403 269.388 172.53 269.565 172.691 269.707C172.852 269.849 173.043 269.953 173.25 270.01C173.576 270.099 173.912 270.146 174.25 270.15C175.439 270.302 176.642 270.299 177.83 270.14Z" fill="#263238"/>
<path d="M176.31 296.23C183.834 296.343 191.242 294.366 197.71 290.52C197.71 290.52 192.17 302.52 176.18 301.05L176.31 296.23Z" fill="#EB996E"/>
<path d="M184.84 249.93C185.06 250.53 187.26 250.25 189.84 250.56C192.42 250.87 194.52 251.56 194.84 251.04C194.99 250.78 194.63 250.22 193.79 249.64C192.667 248.916 191.389 248.467 190.06 248.33C188.739 248.171 187.398 248.329 186.15 248.79C185.23 249.18 184.75 249.65 184.84 249.93Z" fill="#263238"/>
<path d="M163.81 248.25C164.2 248.75 165.71 248.25 167.54 248.25C169.37 248.25 170.91 248.58 171.27 248.06C171.43 247.8 171.18 247.3 170.51 246.83C169.603 246.266 168.549 245.983 167.481 246.016C166.413 246.05 165.38 246.399 164.51 247.02C163.85 247.49 163.64 248 163.81 248.25Z" fill="#263238"/>
<path d="M178.32 282.62C178.32 282.57 178.47 282.3 178.92 282.02C179.525 281.662 180.217 281.475 180.92 281.48C181.621 281.471 182.312 281.651 182.92 282C183.37 282.28 183.57 282.54 183.53 282.59C182.701 282.28 181.832 282.085 180.95 282.01C180.047 282.078 179.16 282.283 178.32 282.62V282.62Z" fill="#EB996E"/>
<path d="M210.87 266.4C211.392 266.187 211.9 265.94 212.39 265.66C212.938 265.301 213.392 264.816 213.714 264.245C214.036 263.674 214.216 263.035 214.24 262.38C214.251 261.721 214.106 261.069 213.818 260.476C213.529 259.884 213.105 259.368 212.58 258.97C212.127 258.657 211.606 258.455 211.06 258.38C211.01 258.32 211.8 258.05 212.79 258.66C213.413 259.058 213.924 259.608 214.274 260.26C214.624 260.911 214.802 261.641 214.79 262.38C214.777 263.2 214.52 263.998 214.05 264.67C213.677 265.212 213.184 265.66 212.61 265.98C212.102 266.331 211.482 266.481 210.87 266.4V266.4Z" fill="#EB996E"/>
<path d="M158.33 227.07C155.75 233.97 161.88 238.97 166.66 240.07C173.34 241.63 180.44 237.41 185.01 239.2C188.42 240.54 191.64 243.2 195.26 242.65C197.02 242.39 198.76 241.38 200.47 241.84C202.66 242.44 203.55 245.1 203.47 247.37C203.41 250.17 202.47 252.95 202.82 255.73C203.17 258.51 205.65 261.38 208.36 260.64C209.633 260.214 210.748 259.413 211.558 258.343C212.369 257.272 212.836 255.981 212.9 254.64C213.22 250.79 212.51 246.21 212.7 242.35C212.87 238.95 212.88 235.21 210.7 232.58C208.52 229.95 204.84 229.24 201.45 228.78C187.153 226.811 172.715 226.049 158.29 226.5" fill="#263238"/>
<path d="M149.92 228.54C149.834 228.309 149.786 228.066 149.78 227.82C149.743 227.106 149.888 226.394 150.2 225.75C150.694 224.716 151.552 223.901 152.61 223.46C153.279 223.205 154.002 223.126 154.71 223.23C155.46 223.3 156.21 223.5 157 223.54C157.819 223.586 158.636 223.406 159.36 223.02C160.151 222.579 160.886 222.045 161.55 221.43C162.27 220.81 163 220.13 163.84 219.52C164.715 218.881 165.718 218.441 166.78 218.23C169.075 217.885 171.419 218.284 173.47 219.37C175.6 220.546 177.587 221.966 179.39 223.6C181.142 225.23 183.135 226.58 185.3 227.6C186.326 228.03 187.442 228.201 188.55 228.1C189.6 227.941 190.615 227.603 191.55 227.1C193.305 226.047 195.169 225.189 197.11 224.54C198.855 224.042 200.697 223.984 202.47 224.37C203.932 224.701 205.277 225.424 206.36 226.46C207.169 227.243 207.8 228.192 208.21 229.24C208.465 229.901 208.604 230.601 208.62 231.31C208.633 231.493 208.633 231.677 208.62 231.86C208.62 231.98 208.62 232.04 208.62 232.04C208.607 231.108 208.424 230.186 208.08 229.32C207.653 228.316 207.019 227.413 206.22 226.67C205.161 225.696 203.858 225.026 202.45 224.73C200.738 224.383 198.966 224.458 197.29 224.95C195.38 225.612 193.546 226.477 191.82 227.53C190.822 228.052 189.738 228.391 188.62 228.53C187.432 228.649 186.234 228.474 185.13 228.02C182.917 226.985 180.876 225.616 179.08 223.96C177.306 222.352 175.353 220.952 173.26 219.79C171.31 218.748 169.079 218.352 166.89 218.66C164.8 219.01 163.29 220.48 161.89 221.72C161.194 222.346 160.425 222.887 159.6 223.33C158.808 223.739 157.92 223.925 157.03 223.87C156.2 223.81 155.45 223.6 154.73 223.51C154.059 223.403 153.371 223.465 152.73 223.69C151.726 224.092 150.899 224.841 150.4 225.8C150.075 226.417 149.904 227.103 149.9 227.8C149.88 228.29 150 228.53 149.92 228.54Z" fill="#455A64"/>
<path d="M157.65 239.66C157.421 239.724 157.179 239.724 156.95 239.66C156.613 239.593 156.294 239.455 156.014 239.255C155.735 239.055 155.502 238.798 155.33 238.5C154.848 237.528 154.713 236.419 154.95 235.36C155.186 233.959 155.747 232.634 156.59 231.49C157.61 230.086 159.028 229.02 160.66 228.43C162.533 227.734 164.584 227.682 166.49 228.28C168.517 229.036 170.41 230.11 172.1 231.46C173.858 232.892 175.851 234.009 177.99 234.76C180.175 235.315 182.478 235.189 184.59 234.4C186.587 233.685 188.507 232.77 190.32 231.67C191.984 230.67 193.704 229.765 195.47 228.96C197.023 228.253 198.688 227.823 200.39 227.69C201.628 227.588 202.874 227.739 204.052 228.134C205.23 228.53 206.314 229.161 207.24 229.99C207.72 230.461 208.119 231.009 208.42 231.61C208.527 231.819 208.608 232.041 208.66 232.27C208.274 231.474 207.749 230.752 207.11 230.14C206.188 229.368 205.122 228.785 203.974 228.427C202.826 228.068 201.618 227.94 200.42 228.05C198.763 228.205 197.145 228.648 195.64 229.36C193.896 230.172 192.2 231.083 190.56 232.09C188.722 233.214 186.776 234.149 184.75 234.88C182.539 235.709 180.128 235.841 177.84 235.26C175.661 234.485 173.632 233.342 171.84 231.88C170.199 230.555 168.36 229.495 166.39 228.74C164.58 228.162 162.63 228.193 160.84 228.83C159.28 229.386 157.917 230.387 156.92 231.71C156.091 232.798 155.529 234.065 155.28 235.41C155.024 236.411 155.12 237.47 155.55 238.41C155.697 238.697 155.902 238.951 156.152 239.155C156.401 239.36 156.69 239.511 157 239.6C157.215 239.639 157.432 239.659 157.65 239.66Z" fill="#455A64"/>
<path d="M218.89 266.31C218.89 266.31 219.25 265.83 219.78 264.91C220.507 263.596 220.915 262.13 220.97 260.63C221.015 259.616 220.887 258.601 220.59 257.63C220.223 256.507 219.683 255.447 218.99 254.49C218.29 253.49 217.46 252.39 216.73 251.19C215.9 249.959 215.445 248.514 215.42 247.03C215.563 245.566 216.02 244.151 216.76 242.88C217.399 241.751 217.782 240.494 217.88 239.2C217.908 238.107 217.65 237.027 217.133 236.064C216.615 235.101 215.856 234.29 214.93 233.71C213.639 232.946 212.124 232.65 210.64 232.87C210.099 232.967 209.565 233.097 209.04 233.26C209.153 233.17 209.277 233.096 209.41 233.04C209.795 232.873 210.198 232.749 210.61 232.67C212.148 232.361 213.745 232.617 215.11 233.39C216.117 233.987 216.949 234.84 217.52 235.862C218.09 236.884 218.38 238.039 218.36 239.21C218.27 240.575 217.88 241.903 217.22 243.1C216.517 244.307 216.08 245.65 215.94 247.04C215.965 248.428 216.392 249.78 217.17 250.93C217.87 252.09 218.69 253.15 219.39 254.22C220.098 255.226 220.644 256.336 221.01 257.51C221.306 258.542 221.417 259.619 221.34 260.69C221.254 262.215 220.794 263.695 220 265C219.782 265.357 219.531 265.691 219.25 266C219 266.22 218.9 266.32 218.89 266.31Z" fill="#455A64"/>
<path d="M177 254.64C176.907 253.803 176.767 252.971 176.58 252.15C176.226 250.781 175.59 249.501 174.712 248.392C173.834 247.283 172.735 246.37 171.483 245.71C170.232 245.051 168.857 244.661 167.446 244.565C166.035 244.468 164.619 244.667 163.29 245.15C161.433 245.845 159.817 247.064 158.64 248.66C157.377 250.377 156.696 252.453 156.696 254.585C156.696 256.717 157.377 258.793 158.64 260.51C159.224 261.335 159.94 262.058 160.76 262.65C161.527 263.235 162.381 263.697 163.29 264.02C164.87 264.602 166.572 264.779 168.238 264.535C169.905 264.29 171.483 263.632 172.83 262.62C174.663 261.239 175.983 259.286 176.58 257.07C176.766 256.252 176.906 255.424 177 254.59C177.063 255.44 176.989 256.294 176.78 257.12C176.248 259.462 174.91 261.543 173 263C171.611 264.074 169.974 264.78 168.24 265.052C166.506 265.325 164.731 265.156 163.08 264.56C162.121 264.229 161.22 263.75 160.41 263.14C159.553 262.519 158.801 261.767 158.18 260.91C156.842 259.108 156.12 256.924 156.12 254.68C156.12 252.436 156.842 250.252 158.18 248.45C159.417 246.773 161.121 245.5 163.08 244.79C164.849 244.157 166.755 244.009 168.6 244.36C170.558 244.741 172.365 245.678 173.807 247.057C175.248 248.436 176.263 250.201 176.73 252.14C176.951 252.954 177.042 253.798 177 254.64Z" fill="#263238"/>
<path d="M200.44 254.64C200.354 253.802 200.213 252.97 200.02 252.15C199.667 250.781 199.032 249.501 198.155 248.392C197.279 247.283 196.18 246.37 194.929 245.711C193.679 245.052 192.304 244.661 190.894 244.565C189.484 244.468 188.069 244.668 186.74 245.15C184.878 245.841 183.258 247.061 182.08 248.66C180.817 250.377 180.136 252.453 180.136 254.585C180.136 256.717 180.817 258.793 182.08 260.51C182.666 261.333 183.382 262.056 184.2 262.65C184.972 263.233 185.828 263.695 186.74 264.02C188.061 264.499 189.467 264.698 190.869 264.606C192.271 264.513 193.639 264.13 194.885 263.482C196.132 262.833 197.23 261.933 198.11 260.838C198.991 259.743 199.634 258.477 200 257.12C200.192 256.303 200.332 255.475 200.42 254.64C200.489 255.49 200.415 256.345 200.2 257.17C199.68 259.484 198.372 261.545 196.5 263C195.111 264.074 193.474 264.78 191.74 265.052C190.006 265.325 188.231 265.156 186.58 264.56C185.621 264.229 184.72 263.75 183.91 263.14C183.051 262.519 182.295 261.767 181.67 260.91C180.338 259.106 179.62 256.922 179.62 254.68C179.62 252.438 180.338 250.254 181.67 248.45C182.913 246.776 184.621 245.503 186.58 244.79C188.349 244.157 190.255 244.009 192.1 244.36C194.056 244.744 195.86 245.682 197.3 247.061C198.739 248.44 199.752 250.202 200.22 252.14C200.43 252.956 200.505 253.8 200.44 254.64V254.64Z" fill="#263238"/>
<path d="M180.44 252.92V253.02V252.84V253.04C179.889 253.163 179.324 253.217 178.76 253.2C177.76 253.2 176.93 253.08 176.93 252.94C176.93 252.8 177.75 252.68 178.76 252.68C179.325 252.658 179.89 252.712 180.44 252.84V253.04V252.86V252.96V252.92Z" fill="#263238"/>
<path d="M212.79 255.18C210.688 255.295 208.581 255.231 206.49 254.99C204.387 254.929 202.293 254.692 200.23 254.28C202.332 254.177 204.438 254.241 206.53 254.47C208.632 254.537 210.726 254.774 212.79 255.18V255.18Z" fill="#263238"/>
<path d="M187 269.59C187.186 270.107 187.21 270.669 187.07 271.2C186.856 272.53 186.162 273.736 185.119 274.589C184.076 275.442 182.756 275.884 181.41 275.83C180.859 275.864 180.311 275.727 179.84 275.44C179.84 275.36 180.46 275.52 181.41 275.44C182.645 275.397 183.833 274.951 184.79 274.169C185.748 273.387 186.422 272.312 186.71 271.11C187 270.2 186.94 269.59 187 269.59Z" fill="#263238"/>
<path d="M147.39 341.38C147.403 341.486 147.403 341.594 147.39 341.7V342.64C147.39 343.5 147.39 344.72 147.44 346.26C147.44 349.43 147.44 353.96 147.51 359.55C147.51 370.77 147.17 386.27 146.3 403.37C145.43 420.47 144.53 435.92 143.92 447.16C143.64 452.73 143.41 457.26 143.25 460.43C143.17 461.97 143.11 463.17 143.07 464.03C143.07 464.42 143.02 464.73 143.01 464.97C143.02 465.076 143.02 465.184 143.01 465.29C142.995 465.184 142.995 465.076 143.01 464.97C143.01 464.73 143.01 464.42 143.01 464.03C143.01 463.17 143.06 461.96 143.1 460.42C143.19 457.28 143.35 452.74 143.6 447.14C144.07 435.93 144.98 420.45 145.83 403.35C146.68 386.25 147.14 370.76 147.2 359.54C147.2 353.96 147.27 349.43 147.29 346.26C147.29 344.72 147.29 343.5 147.34 342.64V341.7C147.344 341.592 147.36 341.484 147.39 341.38V341.38Z" fill="#263238"/>
<path d="M244 324.16C238.62 317.95 228.11 317.04 223.45 320.41C218.79 323.78 216.2 329.5 215.73 335.23C215.26 340.96 216.73 346.71 218.91 352.02C222.42 360.54 227.61 367.44 235.36 376.22L255.36 402.44L216.81 440.08L232.81 465.29L265.58 438.89L292.68 410.17" fill="#FF725E"/>
<path d="M104.61 405C105.236 404.541 105.941 404.202 106.69 404C108.462 403.402 110.332 403.148 112.2 403.25C114.072 403.352 115.907 403.807 117.61 404.59C118.348 404.866 119.027 405.28 119.61 405.81C119.61 405.88 118.81 405.44 117.51 404.93C115.82 404.264 114.034 403.873 112.22 403.77C110.407 403.681 108.592 403.877 106.84 404.35C105.45 404.72 104.65 405.08 104.61 405Z" fill="#263238"/>
<path d="M249.19 330.05C235.74 312.21 221.26 313.68 213.88 313.47V305.64C208.43 305.64 200.98 310.55 197.13 314.06L193.32 319.29C192.341 316.426 190.707 313.831 188.547 311.711C186.387 309.591 183.762 308.005 180.88 307.08C178.801 306.42 176.67 305.938 174.51 305.64V312.64C156.43 313.15 146.76 318.09 134.68 332.07C134.06 332.79 132.83 334.02 131.42 335.41L95.68 377.41C88.38 385.49 81.68 396.61 83.25 407.41C84.96 419.57 92.05 427.57 105.62 436.74L143.22 461.11L143.04 465.3H232.77C232.77 465.3 293.62 420.41 295.11 403.78C296.27 390.64 275.31 362.79 249.19 330.05ZM144.73 425.36L118.42 405.73L146.84 376.32L144.73 425.36ZM230.89 426.92L230.18 412.39L234 374.22C241.5 382.82 255.38 399.89 255.38 402.44L230.89 426.92Z" fill="#FF725E"/>
<path d="M213.86 313.51C213.669 313.926 213.442 314.325 213.18 314.7C212.7 315.44 212.01 316.51 211.1 317.8C208.757 321.183 206.124 324.355 203.23 327.28C202.38 328.14 201.52 328.95 200.68 329.72L200.26 330.11V329.54C200.212 326.254 198.893 323.114 196.58 320.78C195.971 320.049 195.182 319.491 194.29 319.16C193.947 319.093 193.591 319.153 193.29 319.33C193.407 319.184 193.563 319.074 193.74 319.012C193.917 318.95 194.107 318.939 194.29 318.98C195.253 319.25 196.117 319.791 196.78 320.54C197.863 321.569 198.757 322.781 199.42 324.12C200.249 325.805 200.7 327.652 200.74 329.53L200.32 329.34C201.14 328.57 202 327.77 202.84 326.91C205.709 323.997 208.365 320.882 210.79 317.59L212.99 314.59C213.243 314.201 213.534 313.84 213.86 313.51V313.51Z" fill="#263238"/>
<path d="M174.49 312.68C174.782 312.961 175.044 313.273 175.27 313.61L177.27 316.24C178.94 318.48 181.2 321.6 183.68 325.06L185.3 327.32L184.85 327.39C185.334 325.774 186.005 324.22 186.85 322.76C187.549 321.575 188.545 320.592 189.74 319.91C190.528 319.454 191.42 319.206 192.33 319.19C192.67 319.155 193.013 319.203 193.33 319.33C193.33 319.33 192.99 319.33 192.33 319.33C191.467 319.417 190.636 319.701 189.9 320.16C188.791 320.86 187.87 321.821 187.22 322.96C186.415 324.402 185.772 325.928 185.3 327.51L185.14 327.98L184.85 327.58L183.23 325.32C180.75 321.86 178.53 318.71 176.94 316.42C176.21 315.33 175.59 314.42 175.09 313.69C174.854 313.376 174.653 313.037 174.49 312.68V312.68Z" fill="#263238"/>
<g opacity="0.1">
<path opacity="0.1" d="M193.3 319.33C194.799 320.972 195.924 322.919 196.599 325.037C197.274 327.155 197.482 329.394 197.21 331.6C197.02 333.06 196.85 335.01 198.21 335.55C199.16 335.92 200.21 335.27 200.98 334.63C206.814 329.929 211.614 324.073 215.08 317.43C215.415 316.908 215.596 316.301 215.6 315.68C215.592 315.372 215.467 315.079 215.249 314.861C215.031 314.643 214.738 314.518 214.43 314.51C214.019 314.624 213.664 314.884 213.43 315.24C209.27 320.04 204.67 325.03 200.51 329.82C200.697 327.154 199.873 324.515 198.2 322.43C196.55 320.43 194.75 318.36 193.33 319.33" fill="black"/>
</g>
<path d="M231.67 463.62C231.552 463.491 231.449 463.35 231.36 463.2C231.14 462.88 230.87 462.46 230.52 461.94L227.45 457.18C224.84 453.04 221.19 447.27 216.94 440.56L216.84 440.39L216.98 440.26L226.36 430.9L246.77 410.7C249.37 408.16 251.49 406.1 252.99 404.62L254.71 402.99C254.902 402.791 255.11 402.607 255.33 402.44C255.166 402.663 254.982 402.87 254.78 403.06C254.37 403.49 253.78 404.06 253.14 404.77L247 411L226.69 431.31C223.39 434.6 220.21 437.75 217.3 440.64V440.34C221.48 447.09 225.08 452.89 227.65 457.06C228.89 459.06 229.89 460.72 230.6 461.9C230.92 462.43 231.17 462.9 231.37 463.2C231.485 463.328 231.586 463.469 231.67 463.62V463.62Z" fill="#263238"/>
<path d="M220.64 323.65L220.49 323.84L220.03 324.38C219.6 324.84 219.03 325.56 218.31 326.5C216.331 329.199 215.019 332.327 214.48 335.63C213.843 340.554 214.616 345.558 216.71 350.06C217.848 352.748 219.327 355.279 221.11 357.59C223 360 225 362.41 227.05 365C235.12 375.17 242.05 384.64 247.15 391.44L253.15 399.51C253.84 400.43 254.38 401.17 254.78 401.71L255.19 402.29L255.32 402.49C255.32 402.49 255.25 402.44 255.15 402.32L254.7 401.77L253 399.58C251.53 397.71 249.43 394.99 246.85 391.58C241.69 384.84 234.7 375.4 226.65 365.25C224.65 362.7 222.65 360.25 220.71 357.88C218.908 355.528 217.415 352.953 216.27 350.22C214.162 345.634 213.416 340.538 214.12 335.54C214.894 331.286 216.945 327.369 220 324.31L220.5 323.81C220.57 323.7 220.63 323.64 220.64 323.65Z" fill="#263238"/>
<path d="M254.37 336.56C254.37 336.61 253.82 336.8 252.88 337.3C251.565 338.025 250.368 338.946 249.33 340.03C247.798 341.653 246.456 343.444 245.33 345.37C243.959 347.778 242.468 350.114 240.86 352.37C239.351 354.424 237.398 356.113 235.148 357.311C232.898 358.509 230.407 359.185 227.86 359.29C226.331 359.367 224.798 359.222 223.31 358.86C222.906 358.769 222.509 358.652 222.12 358.51C221.982 358.465 221.848 358.408 221.72 358.34C223.722 358.821 225.783 359.017 227.84 358.92C230.06 358.768 232.23 358.188 234.23 357.21C236.673 356.01 238.793 354.24 240.41 352.05C242.18 349.75 243.52 347.29 244.88 345.15C246.043 343.206 247.436 341.41 249.03 339.8C250.115 338.715 251.372 337.816 252.75 337.14C253.126 336.964 253.514 336.814 253.91 336.69C254.057 336.626 254.211 336.582 254.37 336.56V336.56Z" fill="#FAFAFA"/>
<path d="M230.52 424.49H230.28L229.61 424.33C229.31 424.25 228.94 424.2 228.5 424.13C227.997 424.046 227.489 423.99 226.98 423.96C223.716 423.811 220.45 424.23 217.33 425.2C215.162 425.824 213.04 426.599 210.98 427.52C208.76 428.52 206.46 429.74 203.98 430.91C201.389 432.183 198.684 433.207 195.9 433.97C194.413 434.354 192.893 434.595 191.36 434.69C189.775 434.766 188.187 434.652 186.63 434.35C183.588 433.661 180.684 432.464 178.04 430.81C175.46 429.27 173.15 427.52 170.94 425.9C166.57 422.62 162.39 419.9 158.42 418.72C156.647 418.17 154.806 417.867 152.95 417.82C151.551 417.793 150.154 417.958 148.8 418.31C147.649 418.634 146.536 419.08 145.48 419.64L145.67 419.5L146.27 419.14C147.056 418.714 147.888 418.379 148.75 418.14C150.12 417.752 151.537 417.557 152.96 417.56C154.843 417.576 156.715 417.855 158.52 418.39C162.58 419.54 166.83 422.28 171.22 425.54C173.44 427.16 175.75 428.88 178.3 430.4C180.895 432.022 183.745 433.195 186.73 433.87C188.244 434.168 189.789 434.279 191.33 434.2C192.829 434.114 194.316 433.883 195.77 433.51C198.524 432.762 201.203 431.757 203.77 430.51C206.25 429.35 208.56 428.13 210.77 427.16C212.852 426.246 214.998 425.484 217.19 424.88C220.351 423.93 223.658 423.561 226.95 423.79C228.167 423.856 229.368 424.092 230.52 424.49Z" fill="#FAFAFA"/>
<path d="M131.67 415.61C131.67 415.61 131.72 415.73 131.75 415.96C131.813 416.29 131.853 416.624 131.87 416.96C131.97 418.199 131.916 419.445 131.71 420.67C131.414 422.512 130.703 424.263 129.63 425.79C128.255 427.605 126.506 429.102 124.5 430.18C122.5 431.41 120.43 432.44 118.78 433.64C117.289 434.652 115.983 435.914 114.92 437.37C114.218 438.354 113.818 439.522 113.77 440.73C113.77 441.59 113.9 442.06 113.84 442.07C113.781 441.968 113.74 441.856 113.72 441.74C113.634 441.413 113.581 441.078 113.56 440.74C113.519 439.476 113.869 438.229 114.56 437.17C115.608 435.638 116.926 434.31 118.45 433.25C120.13 432 122.16 430.95 124.18 429.74C126.12 428.69 127.823 427.25 129.18 425.51C130.231 424.049 130.951 422.377 131.29 420.61C131.519 419.411 131.626 418.191 131.61 416.97C131.598 416.516 131.618 416.061 131.67 415.61V415.61Z" fill="#FAFAFA"/>
<path d="M282.58 374.22C280.527 374.565 278.532 375.191 276.65 376.08C274.636 377.063 272.827 378.421 271.32 380.08C270.439 381.065 269.68 382.153 269.06 383.32C268.4 384.53 267.95 385.9 267.3 387.25C266.705 388.609 265.805 389.814 264.67 390.77C263.603 391.641 262.391 392.318 261.09 392.77C258.901 393.495 256.59 393.781 254.29 393.61C252.754 393.518 251.225 393.337 249.71 393.07C249.152 392.997 248.6 392.88 248.06 392.72C248.623 392.722 249.185 392.772 249.74 392.87C250.82 392.98 252.37 393.19 254.3 393.24C256.549 393.354 258.799 393.038 260.93 392.31C262.226 391.89 263.42 391.205 264.436 390.297C265.452 389.39 266.267 388.281 266.83 387.04C267.46 385.72 267.92 384.34 268.61 383.09C269.266 381.898 270.069 380.793 271 379.8C272.558 378.096 274.438 376.716 276.53 375.74C277.925 375.078 279.406 374.613 280.93 374.36C281.344 374.292 281.761 374.245 282.18 374.22C282.312 374.198 282.448 374.198 282.58 374.22V374.22Z" fill="#FAFAFA"/>
<path d="M232.88 382.66L232.65 382.73L231.97 382.88C231.37 383.01 230.48 383.17 229.32 383.35C226.055 383.854 222.754 384.088 219.45 384.05C214.533 384.015 209.654 383.188 205 381.6C202.274 380.61 199.643 379.375 197.14 377.91C194.487 376.338 191.712 374.983 188.84 373.86C187.38 373.344 185.862 373.008 184.32 372.86C182.82 372.747 181.312 372.821 179.83 373.08C177.036 373.652 174.341 374.629 171.83 375.98C166.98 378.55 162.9 381.41 159.21 383.4C156.357 385.094 153.246 386.31 150 387C149.122 387.189 148.228 387.286 147.33 387.29H146.63C146.55 387.301 146.47 387.301 146.39 387.29H146.63L147.32 387.21C148.21 387.158 149.093 387.027 149.96 386.82C153.157 386.061 156.217 384.809 159.03 383.11C162.66 381.11 166.72 378.2 171.6 375.58C174.159 374.18 176.913 373.169 179.77 372.58C181.294 372.309 182.846 372.228 184.39 372.34C185.977 372.497 187.539 372.849 189.04 373.39C191.939 374.522 194.739 375.893 197.41 377.49C199.893 378.937 202.496 380.169 205.19 381.17C209.79 382.762 214.613 383.616 219.48 383.7C222.765 383.773 226.051 383.595 229.31 383.17C230.47 383.02 231.36 382.89 231.97 382.79L232.66 382.7C232.731 382.677 232.805 382.664 232.88 382.66V382.66Z" fill="#FAFAFA"/>
<path d="M135.13 388.44C135.227 387.929 135.207 387.402 135.07 386.9C134.789 386.252 134.358 385.681 133.812 385.234C133.265 384.787 132.62 384.477 131.93 384.33C131.06 384.07 130.07 383.92 129.01 383.68C127.835 383.463 126.732 382.958 125.8 382.21C124.823 381.329 124.063 380.234 123.58 379.01C123.088 377.71 122.703 376.373 122.43 375.01C122.17 373.684 121.789 372.385 121.29 371.13C120.81 369.973 120.181 368.884 119.42 367.89C118.136 366.188 116.485 364.797 114.59 363.82C113.33 363.16 111.984 362.682 110.59 362.4C109.59 362.2 109.02 362.16 109.02 362.11C109.159 362.082 109.301 362.082 109.44 362.11C109.835 362.122 110.229 362.159 110.62 362.22C112.077 362.422 113.492 362.858 114.81 363.51C116.77 364.477 118.481 365.884 119.81 367.62C120.623 368.635 121.295 369.755 121.81 370.95C122.328 372.243 122.723 373.583 122.99 374.95C123.255 376.274 123.626 377.575 124.1 378.84C124.552 379.982 125.256 381.008 126.16 381.84C127.028 382.554 128.058 383.041 129.16 383.26C130.16 383.52 131.16 383.69 132.09 383.98C132.822 384.156 133.499 384.508 134.062 385.007C134.625 385.506 135.057 386.135 135.32 386.84C135.422 387.237 135.422 387.653 135.32 388.05C135.286 388.192 135.221 388.325 135.13 388.44V388.44Z" fill="#FAFAFA"/>
<path d="M214.11 337.15C213.181 336.638 212.194 336.239 211.17 335.96C209.956 335.71 208.704 335.71 207.49 335.96C205.872 336.278 204.302 336.806 202.82 337.53C201.15 338.28 199.39 339.26 197.47 340.27C195.436 341.403 193.278 342.298 191.04 342.94C188.522 343.556 185.903 343.641 183.35 343.19C180.63 342.693 177.991 341.821 175.51 340.6C170.4 338.11 166.15 334.77 162.05 332.17C158.517 329.711 154.571 327.906 150.4 326.84C147.582 326.148 144.643 326.114 141.81 326.74C140.793 327.021 139.792 327.355 138.81 327.74C139.752 327.209 140.761 326.809 141.81 326.55C144.67 325.836 147.66 325.815 150.53 326.49C154.762 327.515 158.771 329.304 162.36 331.77C166.5 334.36 170.75 337.69 175.78 340.14C178.218 341.341 180.809 342.202 183.48 342.7C185.965 343.141 188.515 343.066 190.97 342.48C193.179 341.866 195.309 341 197.32 339.9C199.24 338.9 201.02 337.9 202.72 337.2C204.239 336.492 205.842 335.981 207.49 335.68C208.746 335.466 210.033 335.514 211.27 335.82C212.039 336.033 212.778 336.342 213.47 336.74C213.691 336.865 213.904 337.002 214.11 337.15V337.15Z" fill="#FAFAFA"/>
<path d="M208.46 464.11L211.24 465.5H227.24L230.47 462.86L218.83 443.6C217.4 444.23 211.12 445.21 209.09 445.92C207.339 446.535 205.496 446.846 203.64 446.84C201.571 446.886 199.503 446.715 197.47 446.33L197.03 446.19C196.758 446.073 196.466 446.012 196.17 446.01C194.44 445.86 193.07 447.67 194.04 449.1C195.01 450.53 199.74 452.44 205.78 452.27H206.07C211.37 452.27 206.51 456.71 203.36 459.35C202.804 459.799 202.372 460.383 202.106 461.047C201.84 461.71 201.748 462.431 201.84 463.14C201.858 463.395 201.931 463.643 202.053 463.867C202.176 464.092 202.345 464.287 202.55 464.44C203.89 465.29 208.46 464.11 208.46 464.11Z" fill="#FFBE9D"/>
<path d="M143.17 461.72C143.159 461.627 143.159 461.533 143.17 461.44C143.17 461.22 143.17 460.95 143.17 460.61C143.17 459.84 143.23 458.77 143.28 457.42C143.4 454.62 143.56 450.63 143.77 445.71C144.18 435.79 144.77 422.15 145.38 407.08C145.99 392.01 146.38 378.32 146.66 368.43C146.77 363.51 146.85 359.52 146.91 356.71C146.91 355.36 146.96 354.29 146.98 353.52C146.98 353.18 146.98 352.91 146.98 352.7C146.967 352.604 146.967 352.506 146.98 352.41C146.995 352.506 146.995 352.604 146.98 352.7C146.98 352.91 146.98 353.19 146.98 353.52C146.98 354.29 146.98 355.36 146.98 356.71C146.98 359.48 146.98 363.48 146.9 368.43C146.76 378.33 146.36 392 145.77 407.1C145.18 422.2 144.53 435.85 144.01 445.73C143.73 450.64 143.51 454.63 143.35 457.43C143.26 458.78 143.19 459.85 143.14 460.61L143.07 461.44C143.114 461.529 143.147 461.623 143.17 461.72V461.72Z" fill="#263238"/>
<path d="M186.7 463.62C186.685 463.497 186.685 463.373 186.7 463.25C186.7 462.98 186.65 462.62 186.61 462.16L186.32 457.95C186.2 456.13 186.05 453.89 185.97 451.29C185.89 448.69 185.7 445.74 185.68 442.47C185.66 439.2 185.54 435.61 185.59 431.76C185.59 429.84 185.59 427.85 185.59 425.76C185.59 423.67 185.68 421.6 185.73 419.44C185.98 410.79 186.43 401.29 187.13 391.33C188.53 371.4 190.31 353.41 191.45 340.38C192.01 333.88 192.45 328.62 192.79 324.94C192.94 323.15 193.07 321.74 193.15 320.75C193.2 320.29 193.23 319.93 193.26 319.66C193.29 319.39 193.31 319.29 193.31 319.29C193.323 319.413 193.323 319.537 193.31 319.66L193.26 320.76C193.19 321.76 193.1 323.16 192.99 324.96C192.76 328.61 192.35 333.89 191.82 340.41C190.77 353.41 189.05 371.41 187.65 391.36C186.95 401.36 186.49 410.81 186.21 419.45C186.21 421.61 186.1 423.72 186.05 425.77C186 427.82 186.05 429.77 185.98 431.77C185.92 435.61 185.98 439.19 185.98 442.46C185.98 445.73 186.13 448.69 186.19 451.28C186.25 453.87 186.36 456.12 186.45 457.94C186.54 459.76 186.6 461.16 186.65 462.15V463.25C186.68 463.371 186.697 463.495 186.7 463.62V463.62Z" fill="#263238"/>
<path d="M194.06 365.1C194.01 365.05 194.57 364.82 195.19 365.35C195.367 365.507 195.504 365.704 195.59 365.925C195.675 366.146 195.706 366.385 195.68 366.62C195.616 366.911 195.466 367.176 195.25 367.381C195.034 367.585 194.761 367.721 194.467 367.769C194.173 367.818 193.872 367.777 193.601 367.652C193.331 367.528 193.104 367.325 192.95 367.07C192.85 366.857 192.802 366.624 192.811 366.389C192.819 366.154 192.884 365.925 193 365.72C193.41 365.01 194 365.05 194 365.12C194 365.19 193.57 365.29 193.34 365.88C193.267 366.037 193.229 366.207 193.229 366.38C193.229 366.553 193.267 366.723 193.34 366.88C193.457 367.031 193.614 367.147 193.792 367.217C193.97 367.286 194.164 367.306 194.352 367.274C194.541 367.242 194.718 367.16 194.863 367.036C195.009 366.912 195.118 366.751 195.18 366.57C195.201 366.404 195.186 366.236 195.138 366.075C195.09 365.915 195.009 365.767 194.9 365.64C194.52 365.13 194.06 365.19 194.06 365.1Z" fill="#263238"/>
<path d="M191.25 410C191.2 409.95 191.77 409.71 192.39 410.25C192.565 410.407 192.699 410.603 192.783 410.822C192.866 411.041 192.896 411.277 192.87 411.51C192.819 411.806 192.673 412.078 192.455 412.285C192.237 412.492 191.958 412.624 191.66 412.66C191.366 412.719 191.062 412.684 190.789 412.56C190.516 412.436 190.289 412.23 190.14 411.97C190.043 411.754 189.998 411.519 190.008 411.283C190.018 411.047 190.084 410.816 190.2 410.61C190.61 409.9 191.2 409.95 191.2 410.01C191.2 410.07 190.77 410.19 190.54 410.77C190.464 410.926 190.424 411.097 190.424 411.27C190.424 411.443 190.464 411.614 190.54 411.77C190.644 411.94 190.797 412.075 190.979 412.158C191.161 412.241 191.363 412.267 191.56 412.234C191.757 412.2 191.939 412.109 192.083 411.971C192.228 411.833 192.328 411.655 192.37 411.46C192.393 411.296 192.38 411.128 192.332 410.969C192.283 410.81 192.201 410.664 192.09 410.54C191.72 410 191.25 410.07 191.25 410Z" fill="#263238"/>
<path d="M263 440.85C262.549 440.839 262.1 440.782 261.66 440.68C260.452 440.423 259.272 440.044 258.14 439.55C254.371 437.876 251.222 435.06 249.14 431.5C248.088 429.519 247.253 427.43 246.65 425.27C246.156 423.538 245.411 421.887 244.44 420.37C243.77 419.363 242.907 418.5 241.9 417.83C241.17 417.38 240.71 417.23 240.73 417.18C240.847 417.189 240.962 417.216 241.07 417.26C241.392 417.364 241.703 417.498 242 417.66C243.088 418.279 244.024 419.133 244.74 420.16C245.78 421.696 246.58 423.382 247.11 425.16C247.723 427.28 248.554 429.331 249.59 431.28C251.624 434.761 254.659 437.548 258.3 439.28C259.823 439.925 261.395 440.45 263 440.85V440.85Z" fill="#FAFAFA"/>
<path d="M365.44 465.47L348.44 416.13L356.3 368.79C358.59 356.02 359.87 344.79 356.44 338.36C347.27 321.23 336.2 319.69 321.08 315.76C317.96 314.95 294.23 314.15 291.62 314.76C271.03 317.07 257.85 327.99 250.62 345.76L242.78 377.36L232.01 410.36C231.109 412.278 229.788 413.968 228.145 415.306C226.503 416.644 224.58 417.595 222.52 418.09L181 432.28L181.35 440.41L181 451.41L236.3 441C247.38 438.92 258.65 434.83 261.83 424.14L267.78 406.52C270.69 413.98 273.86 420.82 273.86 420.82L269.86 465.25L365.44 465.47Z" fill="#455A64"/>
<path d="M351.2 377.81L335.4 430.64C334.194 434.668 332.011 438.335 329.045 441.315C326.079 444.295 322.422 446.495 318.4 447.72L252.64 465.24L243.92 442.54L303.36 420.44L317.95 367.54C317.95 367.54 321.32 337.96 348.07 339.48" fill="#455A64"/>
<path d="M348.06 339.48H347.26C346.73 339.48 345.95 339.42 344.92 339.48C341.909 339.566 338.935 340.171 336.13 341.27C334.103 342.064 332.194 343.134 330.46 344.45C328.404 346.032 326.582 347.897 325.05 349.99C321.384 355.202 319.009 361.21 318.12 367.52V367.52C314.12 382.24 309.12 400.26 303.59 420.45V420.57H303.48L244 442.78L244.15 442.45L245.7 446.45C248.15 452.85 250.57 459.15 252.86 465.12L252.55 464.96L309.05 449.96L315.42 448.26C316.42 447.98 317.51 447.72 318.53 447.42C319.531 447.105 320.513 446.731 321.47 446.3C326.952 443.82 331.362 439.455 333.9 434C334.656 432.311 335.278 430.566 335.76 428.78C336.813 425.287 337.813 421.953 338.76 418.78C342.61 406.04 345.7 395.78 347.83 388.78L350.3 380.68L350.95 378.59C351.1 378.12 351.19 377.88 351.19 377.88C351.19 377.88 351.13 378.13 351 378.6C350.87 379.07 350.66 379.79 350.39 380.71C349.84 382.58 349.04 385.31 348.01 388.84L339.09 418.91C338.15 422.103 337.15 425.437 336.09 428.91C335.61 430.716 334.989 432.482 334.23 434.19C333.424 435.966 332.418 437.643 331.23 439.19C328.689 442.447 325.404 445.046 321.65 446.77C320.672 447.209 319.671 447.593 318.65 447.92C317.65 448.22 316.58 448.48 315.53 448.77L309.16 450.47L252.67 465.55L252.45 465.61L252.37 465.4C250.08 459.4 247.65 453.12 245.2 446.73L243.65 442.73L243.56 442.49L243.8 442.4L303.25 420.32L303.1 420.48C308.69 400.31 313.68 382.29 317.75 367.59C318.658 361.227 321.079 355.174 324.81 349.94C326.362 347.828 328.211 345.952 330.3 344.37C332.058 343.053 333.989 341.986 336.04 341.2C338.867 340.104 341.868 339.525 344.9 339.49C345.679 339.447 346.461 339.447 347.24 339.49L348.06 339.48Z" fill="#263238"/>
<path d="M306.63 408.57C306.371 408.628 306.105 408.648 305.84 408.63C305.123 408.625 304.409 408.541 303.71 408.38C301.382 407.838 299.232 406.705 297.47 405.09C295.683 403.511 294.293 401.535 293.41 399.32C293.25 398.941 293.12 398.549 293.02 398.15C292.929 397.856 292.863 397.555 292.82 397.25C292.74 396.75 292.71 396.47 292.75 396.47C292.79 396.47 293.02 397.55 293.75 399.17C294.702 401.277 296.085 403.161 297.81 404.7C299.525 406.258 301.579 407.395 303.81 408.02C305.51 408.48 306.63 408.46 306.63 408.57Z" fill="#263238"/>
<path d="M267.58 368.39C267.445 368.923 267.261 369.441 267.03 369.94C266.64 370.94 266.03 372.35 265.4 374.13C264.1 377.66 262.27 382.67 262.08 388.43C261.985 391.139 262.354 393.845 263.17 396.43C263.84 398.528 264.749 400.541 265.88 402.43C266.641 403.711 267.473 404.95 268.37 406.14C268.733 406.564 269.067 407.012 269.37 407.48C269.37 407.48 269.25 407.39 269.05 407.18C268.85 406.97 268.58 406.68 268.24 406.27C267.265 405.121 266.375 403.901 265.58 402.62C264.394 400.716 263.437 398.679 262.73 396.55C261.883 393.926 261.493 391.176 261.58 388.42C261.894 383.449 263.068 378.57 265.05 374C265.76 372.24 266.4 370.84 266.84 369.87C267.048 369.358 267.295 368.863 267.58 368.39Z" fill="#263238"/>
<path d="M309.14 427.49C308.503 426.03 307.69 424.653 306.72 423.39C305.618 422.242 304.379 421.235 303.03 420.39C303.515 420.43 303.983 420.592 304.39 420.86C306.476 421.978 308.073 423.831 308.87 426.06C309.076 426.507 309.169 426.998 309.14 427.49Z" fill="#263238"/>
<path d="M245.13 445.7C245.13 445.7 226.32 447.38 226.58 459.6L250 458.41L245.13 445.7Z" fill="#B78876"/>
<path d="M275.45 240.93C273.73 249.25 272.09 257.583 270.53 265.93C268.53 276.51 266.73 287.57 269.72 297.93C271.36 303.61 274.38 308.77 277.37 313.87C279.05 316.73 280.89 319.75 283.87 321.23C287.92 323.23 293.04 321.65 296.27 318.48C299.5 315.31 301.13 310.89 302.27 306.48C304.44 297.94 304.92 289.07 305.27 280.26C305.62 271.45 305.8 262.31 303.27 253.77C300.74 245.23 295.2 237.15 286.95 233.77" fill="#263238"/>
<path d="M276.81 234.25C279.164 232.42 282.022 231.355 285 231.2C287.4 226.34 293.09 224.11 298.41 223.08C306.25 221.55 305.41 221.34 312.7 224.56C319.99 227.78 330.37 236.88 331.7 244.76C332.908 251.672 335.122 258.369 338.27 264.64C340.27 268.79 344.17 271.64 346.48 275.64C347.726 277.809 348.459 280.234 348.624 282.73C348.789 285.226 348.38 287.726 347.43 290.04C345.55 294.55 341.56 298.53 341.94 303.39C342.15 306.22 342.05 308.24 343.17 310.85C346.96 319.69 345.17 331.47 337.03 336.57C328.89 341.67 317.11 339.89 310.82 332.57C305.36 326.25 304.31 317.23 304.82 308.89C305.33 300.55 307.25 292.26 306.71 283.89" fill="#263238"/>
<path d="M286.15 465.24L286.03 462.36L243.63 457.89L225.05 404.48L145.48 402.68L169.55 465.24C208.89 465.54 247.757 465.54 286.15 465.24Z" fill="#263238"/>
<path d="M189.63 434.82C190.04 435.533 190.653 436.109 191.39 436.474C192.128 436.839 192.957 436.977 193.773 436.87C194.589 436.764 195.355 436.418 195.974 435.877C196.594 435.335 197.038 434.622 197.252 433.827C197.466 433.033 197.44 432.193 197.177 431.413C196.913 430.634 196.424 429.95 195.772 429.448C195.12 428.946 194.334 428.649 193.513 428.594C192.692 428.54 191.873 428.729 191.16 429.14C190.204 429.69 189.506 430.598 189.219 431.663C188.932 432.728 189.08 433.864 189.63 434.82V434.82Z" fill="white"/>
<path d="M305.46 336.42C315 336.42 323.58 328.29 323.3 316.21L325.02 247.21C325.05 245.765 324.537 244.362 323.581 243.279C322.625 242.195 321.297 241.51 319.86 241.36L291.43 238.36C289.107 238.115 286.758 238.343 284.525 239.03C282.292 239.716 280.221 240.848 278.437 242.356C276.653 243.863 275.192 245.717 274.142 247.804C273.093 249.891 272.476 252.168 272.33 254.5C271.65 265.42 271.24 278.79 272.53 286.94C275.13 303.33 287.7 305.42 287.7 305.42L287.39 316.87C286.91 329.07 296.04 336.41 305.46 336.41V336.42Z" fill="#B78876"/>
<path d="M278.69 263.4C278.684 263.943 278.889 264.468 279.262 264.863C279.635 265.259 280.147 265.494 280.69 265.52C280.957 265.542 281.225 265.51 281.479 265.426C281.734 265.342 281.968 265.208 282.17 265.032C282.371 264.856 282.535 264.641 282.652 264.4C282.769 264.159 282.836 263.897 282.85 263.63C282.858 263.086 282.654 262.56 282.28 262.164C281.907 261.768 281.394 261.533 280.85 261.51C280.583 261.488 280.315 261.52 280.061 261.604C279.806 261.688 279.572 261.822 279.37 261.998C279.169 262.174 279.005 262.389 278.888 262.63C278.771 262.871 278.704 263.133 278.69 263.4V263.4Z" fill="#263238"/>
<path d="M275.23 261.46C275.49 261.73 277.09 260.56 279.35 260.56C281.61 260.56 283.27 261.7 283.51 261.42C283.63 261.3 283.37 260.81 282.65 260.28C281.665 259.613 280.499 259.264 279.31 259.28C278.135 259.278 276.99 259.649 276.04 260.34C275.34 260.84 275.11 261.34 275.23 261.46Z" fill="#263238"/>
<path d="M300.53 263.82C300.522 264.364 300.726 264.89 301.099 265.286C301.473 265.682 301.986 265.917 302.53 265.94C302.798 265.963 303.067 265.932 303.322 265.849C303.578 265.766 303.814 265.632 304.016 265.456C304.219 265.279 304.384 265.064 304.501 264.822C304.619 264.581 304.686 264.318 304.7 264.05C304.706 263.506 304.501 262.982 304.128 262.587C303.755 262.191 303.243 261.956 302.7 261.93C302.432 261.907 302.163 261.938 301.908 262.021C301.652 262.104 301.416 262.238 301.214 262.414C301.011 262.591 300.846 262.806 300.729 263.048C300.611 263.289 300.544 263.552 300.53 263.82V263.82Z" fill="#263238"/>
<path d="M297.47 261.88C297.73 262.16 299.32 260.98 301.58 260.98C303.84 260.98 305.5 262.12 305.75 261.84C305.87 261.72 305.61 261.23 304.88 260.7C303.898 260.035 302.736 259.686 301.55 259.7C300.372 259.698 299.224 260.069 298.27 260.76C297.58 261.26 297.34 261.76 297.47 261.88Z" fill="#263238"/>
<path d="M289.26 278.66C288.069 278.288 286.836 278.067 285.59 278C285.01 277.94 284.46 277.82 284.36 277.43C284.315 276.831 284.451 276.231 284.75 275.71C285.29 274.32 285.86 272.85 286.46 271.32C288.83 265.05 290.55 259.9 290.29 259.81C290.03 259.72 287.91 264.72 285.54 270.98C284.97 272.53 284.42 273.98 283.9 275.41C283.543 276.106 283.437 276.905 283.6 277.67C283.684 277.874 283.814 278.056 283.978 278.203C284.142 278.35 284.338 278.459 284.55 278.52C284.876 278.608 285.212 278.652 285.55 278.65C286.781 278.813 288.028 278.817 289.26 278.66V278.66Z" fill="#263238"/>
<path d="M287.7 305.43C295.418 305.546 303.017 303.517 309.65 299.57C309.65 299.57 304.32 310.83 287.92 309.3L287.7 305.43Z" fill="#AA6550"/>
<path d="M290.22 284.11C290.646 283.564 291.206 283.138 291.846 282.873C292.485 282.608 293.183 282.514 293.87 282.6C294.368 282.645 294.852 282.789 295.294 283.025C295.735 283.26 296.125 283.581 296.44 283.97C296.743 284.347 296.923 284.809 296.955 285.292C296.988 285.775 296.871 286.256 296.62 286.67C296.254 287.084 295.772 287.377 295.236 287.511C294.701 287.645 294.137 287.613 293.62 287.42C292.554 287.04 291.572 286.456 290.73 285.7C290.477 285.518 290.26 285.291 290.09 285.03C290.004 284.905 289.958 284.757 289.958 284.605C289.958 284.453 290.004 284.305 290.09 284.18" fill="#AA6550"/>
<path d="M295.92 280.22C295.55 280.22 295.54 282.66 293.44 284.4C291.34 286.14 288.73 285.87 288.71 286.22C288.71 286.37 289.29 286.69 290.4 286.72C291.854 286.752 293.271 286.267 294.4 285.35C295.469 284.473 296.154 283.214 296.31 281.84C296.36 280.82 296.08 280.21 295.92 280.22Z" fill="#263238"/>
<path d="M296.45 257.92C296.67 258.54 298.93 258.25 301.59 258.57C304.25 258.89 306.39 259.57 306.74 259.06C306.9 258.79 306.52 258.22 305.66 257.62C304.511 256.876 303.202 256.416 301.84 256.28C300.488 256.122 299.118 256.283 297.84 256.75C296.85 257.15 296.36 257.63 296.45 257.92Z" fill="#263238"/>
<path d="M276.06 254.91C276.46 255.43 278.06 254.91 279.9 254.91C281.74 254.91 283.36 255.25 283.72 254.72C283.88 254.46 283.63 253.94 282.94 253.46C282.01 252.872 280.925 252.576 279.826 252.61C278.726 252.644 277.662 253.006 276.77 253.65C276.11 254.13 275.89 254.66 276.06 254.91Z" fill="#263238"/>
<path d="M272.67 251.78C278.84 248.2 284.85 244.89 288.67 238.89C290.8 244.89 294.96 247.89 300.48 251.08C306 254.27 312.17 256.14 318.28 257.97C315.19 260.97 314.78 265.82 315.49 270.07C316.2 274.32 317.83 278.41 318.1 282.71C318.45 288.45 316.35 294.08 316.22 299.83C316.04 307.72 319.52 315.17 322.93 322.28L337.74 313.65L335.61 275.2L335.79 247.99L312.7 226.53L283.46 229.73L272.67 251.78Z" fill="#263238"/>
<path d="M269.38 332.63C276.89 340.22 276.09 353.75 284.38 360.54C289.44 364.7 296.83 365.09 303.04 362.99C309.25 360.89 314.47 356.64 319.26 352.16C324.05 347.68 328.58 342.87 334.03 339.24C339.32 335.71 348.38 333.54 349.66 327.3C350.6 322.74 345.8 317.25 344.9 312.68C343.47 305.42 351.32 299.81 352.63 292.53C355.25 277.98 347.57 260.9 339.57 248.53C331.57 236.16 327.05 222.15 306.77 221C288.62 220.19 276.26 228.9 270.22 241.5C267.22 247.81 266.49 254.95 265.9 261.93C264.53 278.23 263.77 295.51 271.3 310.03C272.86 313.03 274.72 316.85 272.62 319.51C270.7 321.94 266.35 321.84 265.13 324.69C263.91 327.54 267.12 330.34 269.38 332.63ZM292 236C294.43 235.9 301.64 236 309.68 246.71C314.49 253.12 314.48 263.5 314.38 272.55C314.29 279.28 314.38 296.31 314.38 296.31C314.38 296.31 315.44 317.82 308.13 319.72C299.13 322.06 291.3 320.45 284.59 314.06C277.88 307.67 274.04 298.7 272.51 289.56C270.98 280.42 270.12 271.1 271.32 261.91C271.952 256.271 273.816 250.839 276.78 246C278.468 243.354 280.697 241.095 283.32 239.372C285.943 237.648 288.901 236.499 292 236V236Z" fill="#FF725E"/>
<g opacity="0.3">
<path opacity="0.3" d="M348.06 320.27C342.06 323.53 337.91 328.38 333.06 333.16C328.21 337.94 322.72 342.57 316.06 344.29C309.4 346.01 301.39 343.96 298.06 337.97C316.83 341.17 338.62 326.18 345.06 308.25C344.675 309.808 344.655 311.433 345 313C345.868 315.484 346.89 317.912 348.06 320.27V320.27Z" fill="black"/>
</g>
<g opacity="0.3">
<path opacity="0.3" d="M273.43 315.32C274.082 317.747 275.222 320.016 276.782 321.986C278.342 323.957 280.287 325.588 282.5 326.78C283.527 327.208 284.49 327.777 285.36 328.47C285.789 328.825 286.101 329.301 286.256 329.836C286.411 330.371 286.402 330.94 286.23 331.47C285.913 332.009 285.419 332.422 284.831 332.637C284.244 332.852 283.6 332.857 283.01 332.65C281.859 332.186 280.832 331.46 280.01 330.53C276.74 327.37 273.37 324.17 272.45 319.73C272.982 319.083 273.352 318.319 273.53 317.5C273.576 316.772 273.542 316.041 273.43 315.32V315.32Z" fill="black"/>
</g>
<path d="M343.57 311.8C343.502 312.004 343.408 312.199 343.29 312.38C343.08 312.75 342.81 313.32 342.38 314C341.204 315.952 339.908 317.828 338.5 319.62C336.43 322.297 334.138 324.796 331.65 327.09C328.619 329.939 325.181 332.321 321.45 334.16C319.481 335.02 317.457 335.745 315.39 336.33C313.467 336.889 311.509 337.324 309.53 337.63C306.182 338.176 302.779 338.303 299.4 338.01C297.127 337.803 294.88 337.374 292.69 336.73C291.91 336.52 291.33 336.28 290.93 336.14C290.72 336.083 290.518 335.999 290.33 335.89C290.33 335.89 291.19 336.13 292.75 336.53C294.942 337.101 297.181 337.473 299.44 337.64C302.781 337.879 306.138 337.718 309.44 337.16C311.393 336.843 313.323 336.402 315.22 335.84C317.265 335.257 319.27 334.539 321.22 333.69C324.903 331.856 328.302 329.498 331.31 326.69C333.795 324.43 336.095 321.975 338.19 319.35C339.619 317.588 340.954 315.752 342.19 313.85C342.64 313.19 342.94 312.64 343.19 312.29C343.304 312.117 343.431 311.954 343.57 311.8V311.8Z" fill="#263238"/>
<path d="M297.54 330.35C297.159 330.505 296.759 330.61 296.35 330.66C295.248 330.86 294.13 330.96 293.01 330.96C289.27 330.973 285.598 329.963 282.39 328.04C279.183 326.117 276.561 323.354 274.81 320.05C274.28 319.059 273.841 318.021 273.5 316.95C273.355 316.564 273.261 316.16 273.22 315.75C273.787 317.156 274.428 318.531 275.14 319.87C276.927 323.056 279.515 325.72 282.647 327.6C285.779 329.481 289.348 330.511 293 330.59C295.81 330.67 297.53 330.24 297.54 330.35Z" fill="#263238"/>
<path d="M293.65 355.13C293.835 355.053 294.031 355.003 294.23 354.98C294.61 354.89 295.23 354.81 295.91 354.63C297.965 354.188 299.992 353.623 301.98 352.94C308.526 350.618 314.684 347.325 320.25 343.17C325.806 339 331.068 334.452 336 329.56L340.54 325.16C341.04 324.67 341.46 324.28 341.78 323.97C341.919 323.824 342.073 323.693 342.24 323.58C342.129 323.746 342.002 323.9 341.86 324.04L340.68 325.3C339.68 326.38 338.15 327.93 336.26 329.82C331.386 334.808 326.138 339.414 320.56 343.6C314.956 347.783 308.726 351.054 302.1 353.29C300.088 353.946 298.033 354.461 295.95 354.83C295.22 354.98 294.63 355.03 294.24 355.08C294.046 355.121 293.848 355.138 293.65 355.13V355.13Z" fill="#263238"/>
<path d="M645.81 376.11L610.53 334.51L610.45 334.59C609.06 333.22 607.84 332 607.22 331.29C595 317.13 585.29 312.29 566.58 312.03L530.22 312.81C523.46 313.37 508.12 310.48 493.93 329.29C468.08 361.68 447.35 389.23 448.52 402.23C449.99 418.68 512.73 465.58 512.73 465.58L598.97 465.51L598.79 458.94L636 434.79C649.42 425.72 656.43 417.79 658.13 405.79C659.62 395.11 653 384.11 645.81 376.11ZM487.81 400.87C487.81 398.34 501.41 382.39 508.81 373.87L512.66 410.7L512 425.09L487.81 400.87ZM597.22 423.54L595.17 375L623.29 404.09L597.22 423.54Z" fill="#455A64"/>
<path d="M543.329 396.437L479.58 427.944C477.886 428.781 477.192 430.832 478.029 432.525L498.636 474.221C499.473 475.914 501.524 476.608 503.218 475.772L566.967 444.265C568.66 443.428 569.354 441.377 568.517 439.684L547.91 397.988C547.073 396.295 545.022 395.6 543.329 396.437Z" fill="#E0E0E0"/>
<path d="M523 432.19C523.667 431.783 524.439 431.582 525.22 431.613C526 431.645 526.754 431.907 527.386 432.367C528.017 432.827 528.498 433.464 528.768 434.197C529.037 434.93 529.083 435.727 528.9 436.486C528.717 437.246 528.313 437.934 527.738 438.464C527.164 438.993 526.446 439.341 525.674 439.462C524.902 439.584 524.112 439.473 523.402 439.145C522.693 438.817 522.097 438.287 521.69 437.62C521.144 436.726 520.975 435.652 521.221 434.634C521.466 433.615 522.106 432.736 523 432.19V432.19Z" fill="white"/>
<path d="M594.63 340.46C594.643 340.566 594.643 340.674 594.63 340.78C594.63 341.02 594.63 341.32 594.63 341.71C594.63 342.56 594.63 343.76 594.63 345.28C594.63 348.42 594.69 352.9 594.73 358.43C594.79 369.53 595.22 384.85 596.08 401.77C596.94 418.69 597.82 434 598.29 445.09C598.53 450.63 598.69 455.09 598.78 458.23C598.78 459.75 598.84 460.95 598.86 461.8C598.86 462.19 598.86 462.49 598.86 462.73C598.871 462.836 598.871 462.944 598.86 463.05C598.85 462.944 598.85 462.836 598.86 462.73C598.86 462.49 598.86 462.19 598.8 461.8C598.8 460.95 598.69 459.8 598.62 458.23C598.46 455.1 598.23 450.62 597.96 445.11C597.35 433.99 596.52 418.69 595.6 401.79C594.68 384.89 594.36 369.53 594.4 358.43C594.4 352.91 594.4 348.43 594.47 345.28C594.47 343.76 594.47 342.56 594.52 341.71C594.52 341.32 594.52 341.02 594.52 340.78C594.548 340.67 594.584 340.563 594.63 340.46V340.46Z" fill="#263238"/>
<path d="M504.84 318.71C509.44 315.36 514.79 316.37 519.4 319.71C524.01 323.05 526.57 328.71 527.03 334.38C527.49 340.05 526.03 345.73 523.88 350.99C520.41 359.42 515.28 366.24 507.61 374.92L487.85 400.87L526 438.11L510.19 463.05L478.25 437.34C467.34 428.13 458.06 418.71 451.25 408.97" fill="#455A64"/>
<path d="M451.24 409L451.47 409.3L452.14 410.2C452.73 410.99 453.61 412.2 454.8 413.66C458.223 417.937 461.896 422.007 465.8 425.85C468.3 428.34 471.15 431.01 474.33 433.85C477.51 436.69 481.09 439.5 484.89 442.55L510.29 462.93L509.94 462.99C514.85 455.24 520.18 446.82 525.73 438.04V438.36L506.05 419.16L487.59 401.16L487.43 401.01L487.56 400.83C494.56 391.68 501.18 382.98 507.34 374.89C511.104 370.747 514.594 366.365 517.79 361.77C520.643 357.583 522.952 353.05 524.66 348.28C526.28 344.046 527.042 339.531 526.9 335C526.733 331.187 525.572 327.484 523.53 324.26C521.851 321.667 519.51 319.568 516.75 318.18C514.727 317.103 512.449 316.598 510.16 316.72C508.741 316.832 507.361 317.241 506.11 317.92C505.25 318.38 504.85 318.69 504.84 318.67L505.14 318.44C505.435 318.221 505.746 318.024 506.07 317.85C507.324 317.139 508.715 316.702 510.15 316.57C512.471 316.418 514.79 316.909 516.85 317.99C519.662 319.367 522.049 321.478 523.76 324.1C525.856 327.365 527.056 331.124 527.24 335C527.408 339.519 526.687 344.028 525.12 348.27C523.416 353.081 521.104 357.655 518.24 361.88C515.045 366.494 511.554 370.897 507.79 375.06V375.06C501.63 383.15 495 391.86 488.04 401.06V400.72L506.51 418.72L526.18 437.93L526.33 438.08L526.22 438.25C520.66 447.03 515.32 455.44 510.4 463.18L510.26 463.41L510.05 463.24L484.7 442.79C480.91 439.73 477.31 436.89 474.16 434.05C471.01 431.21 468.16 428.54 465.65 426.05C461.752 422.174 458.096 418.063 454.7 413.74C453.53 412.24 452.7 411.04 452.1 410.23C451.82 409.84 451.61 409.53 451.46 409.31C451.31 409.09 451.24 409 451.24 409Z" fill="#263238"/>
<path d="M637 403.4C636.32 403.241 635.651 403.034 635 402.78C631.802 401.764 628.344 401.945 625.27 403.29C624.646 403.609 624.001 403.886 623.34 404.12C623.854 403.626 624.454 403.229 625.11 402.95C626.648 402.17 628.333 401.721 630.055 401.632C631.777 401.542 633.499 401.814 635.11 402.43C635.792 402.64 636.432 402.968 637 403.4Z" fill="#263238"/>
<path d="M533.81 461.88L526.87 465.33C525.186 466.168 523.296 466.502 521.426 466.293C519.557 466.083 517.787 465.34 516.33 464.15L512 460.62L524 441.75C525.41 442.36 531.21 443.18 533.21 443.89C534.942 444.497 536.765 444.801 538.6 444.79C540.648 444.834 542.696 444.666 544.71 444.29C544.84 444.24 545.02 444.2 545.14 444.15C545.412 444.037 545.706 443.986 546 444C547.71 443.84 549.07 445.64 548.11 447C547.15 448.36 542.47 450.3 536.49 450.13H536.21C530.96 450.13 535.78 454.52 538.89 457.13C539.441 457.574 539.868 458.152 540.131 458.809C540.394 459.465 540.483 460.179 540.39 460.88C540.374 461.133 540.304 461.38 540.183 461.602C540.062 461.825 539.894 462.019 539.69 462.17C538.33 463.05 533.81 461.88 533.81 461.88Z" fill="#A36853"/>
<path d="M549.87 329.4C540.67 329.4 532.4 321.56 532.48 309.88L530.82 243.37H531.01C530.983 241.974 531.482 240.618 532.408 239.573C533.335 238.528 534.621 237.87 536.01 237.73L563.43 234.83C565.67 234.594 567.934 234.813 570.087 235.475C572.239 236.136 574.236 237.227 575.956 238.681C577.676 240.135 579.084 241.921 580.095 243.934C581.106 245.946 581.7 248.142 581.84 250.39C582.5 260.92 582.9 273.81 581.65 281.67C579.11 297.5 567 299.52 567 299.52L567.29 310.52C567.76 322.28 558.95 329.36 549.87 329.36V329.4Z" fill="#A36853"/>
<path d="M575.68 259C575.68 259.522 575.476 260.023 575.112 260.397C574.748 260.77 574.252 260.987 573.73 261C573.472 261.022 573.212 260.991 572.965 260.91C572.719 260.829 572.491 260.7 572.296 260.529C572.101 260.358 571.943 260.15 571.83 259.916C571.717 259.683 571.653 259.429 571.64 259.17C571.64 258.64 571.851 258.131 572.226 257.756C572.601 257.381 573.11 257.17 573.64 257.17C574.149 257.158 574.644 257.341 575.023 257.681C575.402 258.021 575.637 258.493 575.68 259V259Z" fill="#263238"/>
<path d="M579 257.12C578.75 257.39 577.22 256.25 575 256.26C572.78 256.27 571.23 257.35 571 257.09C570.77 256.83 571.14 256.49 571.84 255.98C572.783 255.326 573.903 254.977 575.05 254.98C576.182 254.972 577.288 255.322 578.21 255.98C578.91 256.53 579.14 257 579 257.12Z" fill="#263238"/>
<path d="M554.63 259.4C554.637 259.667 554.59 259.932 554.492 260.181C554.395 260.429 554.249 260.656 554.062 260.847C553.876 261.038 553.653 261.19 553.407 261.293C553.161 261.397 552.897 261.45 552.63 261.45C552.112 261.475 551.605 261.298 551.215 260.957C550.826 260.616 550.583 260.136 550.54 259.62C550.533 259.353 550.58 259.088 550.678 258.839C550.775 258.591 550.921 258.364 551.108 258.173C551.294 257.982 551.517 257.83 551.763 257.727C552.009 257.623 552.273 257.57 552.54 257.57C553.058 257.545 553.565 257.722 553.955 258.063C554.344 258.404 554.587 258.884 554.63 259.4Z" fill="#263238"/>
<path d="M557.57 257.53C557.32 257.8 555.78 256.66 553.57 256.66C551.36 256.66 549.79 257.76 549.57 257.49C549.45 257.38 549.71 256.9 550.41 256.39C551.35 255.732 552.472 255.382 553.62 255.39C554.752 255.382 555.858 255.732 556.78 256.39C557.47 256.93 557.7 257.41 557.57 257.53Z" fill="#263238"/>
<path d="M565.49 273.71C566.637 273.345 567.827 273.13 569.03 273.07C569.59 273.01 570.12 272.9 570.21 272.52C570.257 271.945 570.128 271.37 569.84 270.87C569.31 269.52 568.77 268.11 568.19 266.63C565.9 260.63 564.25 255.63 564.49 255.53C564.73 255.43 566.79 260.26 569.07 266.3C569.63 267.79 570.15 269.21 570.65 270.57C571.004 271.242 571.106 272.019 570.94 272.76C570.858 272.954 570.734 273.127 570.576 273.268C570.419 273.408 570.232 273.511 570.03 273.57C569.72 273.652 569.401 273.696 569.08 273.7C567.888 273.852 566.682 273.855 565.49 273.71Z" fill="#263238"/>
<path d="M567 299.52C559.557 299.63 552.229 297.674 545.83 293.87C545.83 293.87 551.31 305.76 567.12 304.28L567 299.52Z" fill="#8F5039"/>
<path d="M558.55 253.71C558.34 254.31 556.16 254.02 553.6 254.33C551.04 254.64 548.97 255.33 548.6 254.81C548.44 254.55 548.8 253.99 549.6 253.42C550.714 252.715 551.974 252.273 553.284 252.13C554.594 251.986 555.92 252.143 557.16 252.59C558.17 253 558.65 253.43 558.55 253.71Z" fill="#263238"/>
<path d="M578.21 250.81C577.83 251.31 576.32 250.81 574.52 250.81C572.72 250.81 571.18 251.14 570.83 250.62C570.67 250.37 570.92 249.88 571.58 249.41C572.471 248.833 573.52 248.55 574.58 248.6C575.641 248.613 576.671 248.963 577.52 249.6C578.17 250.06 578.38 250.57 578.21 250.81Z" fill="#263238"/>
<path d="M531 258.48C533.69 258 535.84 258.83 536.6 261.48C537.73 265.43 536.96 267.38 537.15 270.1L541.15 268.9C540.15 259.79 542.42 253.05 541.43 243.9C546.99 245.7 554.63 242.26 557 236.5C559.359 238.234 562.162 239.263 565.082 239.469C568.003 239.674 570.921 239.047 573.5 237.66C574.149 238.841 575.156 239.785 576.377 240.357C577.597 240.929 578.967 241.098 580.29 240.84C583.29 239.99 586.47 235.72 587.34 232.69C588.9 227.24 588.14 219.42 583.72 215.87C579.3 212.32 570.44 213.17 567 217.68C565.64 219.46 565.48 222.75 563.29 223.2C561.34 223.6 559.57 222.2 557.79 221.28C552.24 218.53 544.57 222.18 543.2 228.22C538.56 225.45 532.94 223.64 527.75 225.13C522.56 226.62 518.42 232.38 520.19 237.48C520.92 239.62 522.57 241.48 522.75 243.71C523.1 248.06 517.88 252 519.55 256.03C520.48 258.29 523.21 259.29 524.44 261.4C525.82 263.76 524.96 266.74 525.08 269.47C525.26 274.03 527.6 280.78 531.97 282.08" fill="#263238"/>
<path d="M531.41 258.43C530.74 258.525 530.107 258.799 529.579 259.223C529.051 259.647 528.648 260.206 528.41 260.84C527.828 262.052 527.55 263.387 527.6 264.73C527.511 266.829 528.186 268.89 529.5 270.53C530.173 271.327 531.079 271.893 532.091 272.15C533.102 272.406 534.168 272.34 535.14 271.96" fill="#A36853"/>
<path d="M534.14 268.53C534.14 268.58 533.55 268.8 532.62 268.47C532.083 268.264 531.61 267.919 531.25 267.47C530.817 266.889 530.563 266.194 530.52 265.47C530.47 264.778 530.612 264.086 530.93 263.47C531.198 262.964 531.582 262.529 532.05 262.2C532.87 261.66 533.51 261.69 533.5 261.75C533.074 261.967 532.666 262.218 532.28 262.5C531.846 262.862 531.506 263.324 531.29 263.847C531.074 264.37 530.988 264.937 531.04 265.5C531.068 266.055 531.243 266.593 531.547 267.059C531.851 267.524 532.273 267.901 532.77 268.15C533.216 268.312 533.674 268.439 534.14 268.53V268.53Z" fill="#8F5039"/>
<path d="M558.55 281.43C560.55 282.8 564.33 282.08 565.75 280.05C562.699 278.386 559.887 276.318 557.39 273.9C557.39 273.9 554.55 278.62 558.55 281.43Z" fill="#FAFAFA"/>
<path d="M565 286.05C564.187 285.726 563.332 285.524 562.46 285.45C561.591 285.523 560.736 285.714 559.92 286.02C559.92 286.02 560.07 285.71 560.52 285.44C561.112 285.1 561.782 284.92 562.465 284.92C563.148 284.92 563.818 285.1 564.41 285.44C564.86 285.73 565.06 286 565 286.05Z" fill="#AA6550"/>
<path d="M540.67 350.08C544.891 343.853 548.728 337.374 552.16 330.68C556.29 322.8 555.59 322.4 554.6 322.05C551.94 321.1 546.81 335.62 546.13 331.82C545.45 328.02 554.43 314.82 551.61 313.98C547.93 312.84 542.84 328.15 542.32 329.41C541.8 330.67 539.97 329.9 540.51 328.79C541.28 327.2 548.94 310.21 545.33 309.06C543.33 308.43 542.61 312.17 542.61 312.17C542.61 312.17 536.61 328.62 534.92 328.02C533.23 327.42 536.42 317.63 537.73 314.41C539.04 311.19 538.06 309.28 536.19 309.84C534.91 310.22 530.66 319.98 529.44 323.19C528.22 326.4 525.02 335.29 523.08 329.54C523.08 329.45 523.01 329.37 522.97 329.28C521.22 323.56 517.97 319.74 516.28 319.28C514.59 318.82 513.36 320.68 514.06 322.28C514.15 322.559 514.3 322.815 514.5 323.03C514.59 323.13 514.68 323.28 514.77 323.39C515.773 325.175 516.591 327.058 517.21 329.01C517.802 330.748 518.096 332.574 518.08 334.41C518.08 336.54 519.08 342.74 519 344.27" fill="#FFAD9D"/>
<path d="M518 342L493.81 390C493.81 390 480.13 350.43 472.75 334.69C469.94 328.69 464.3 324.53 458.89 321.77V321.66L457.76 321.21C453.878 319.354 449.799 317.942 445.6 317C420.08 309.69 396.04 312.24 368.21 322C368.21 322 353.76 325.88 346.75 344.73C340.45 361.73 333.38 387.73 332.17 392.33C323.5 421.51 335.88 437.76 353.11 435.76C360.21 434.64 366.25 428.76 368.92 426.48L378.03 417.92L378.23 424.55L368 465.5L472.74 465.28L453.84 416.79L458.04 394.56L465.23 411.64C467.489 417.011 471.265 421.605 476.098 424.861C480.93 428.116 486.607 429.89 492.432 429.965C498.258 430.041 503.979 428.414 508.894 425.285C513.809 422.156 517.703 417.66 520.1 412.35L544.59 350.69L518 342Z" fill="#FF725E"/>
<path d="M391.87 401.84C391.593 402.314 391.279 402.766 390.93 403.19C390.3 404.03 389.35 405.24 388.14 406.69C385.73 409.6 382.26 413.51 378.23 417.64C374.2 421.77 370.36 425.32 367.48 427.77C366.05 429.01 364.86 429.97 364.02 430.61C363.607 430.986 363.158 431.321 362.68 431.61C363.053 431.208 363.458 430.837 363.89 430.5C364.69 429.81 365.84 428.8 367.24 427.5C370.04 424.97 373.83 421.39 377.85 417.27C381.87 413.15 385.39 409.27 387.85 406.45C389.1 405.03 390.08 403.86 390.76 403.06C391.094 402.622 391.465 402.214 391.87 401.84V401.84Z" fill="#263238"/>
<path d="M454.18 415.23C454.172 415.042 454.189 414.854 454.23 414.67C454.31 414.25 454.39 413.73 454.5 413.09L455.59 407.27C456.51 402.36 457.77 395.58 458.77 388.03C459.023 386.143 459.25 384.307 459.45 382.52C459.697 380.822 459.794 379.105 459.74 377.39C459.555 374.482 459.123 371.595 458.45 368.76C457.91 366.32 457.45 364.36 457.14 362.99C457 362.3 456.92 361.76 456.88 361.4C456.856 361.211 456.856 361.019 456.88 360.83C456.944 361.007 456.984 361.192 457 361.38C457.07 361.74 457.19 362.27 457.36 362.95C457.69 364.3 458.24 366.24 458.83 368.68C459.562 371.528 460.034 374.437 460.24 377.37C460.3 379.108 460.213 380.847 459.98 382.57C459.79 384.36 459.56 386.21 459.31 388.1C458.31 395.67 456.98 402.45 455.97 407.34C455.45 409.73 455.03 411.69 454.72 413.13C454.57 413.76 454.45 414.28 454.36 414.7C454.318 414.882 454.257 415.06 454.18 415.23V415.23Z" fill="#263238"/>
<path d="M491.68 401.74C492.061 397.797 492.787 393.896 493.85 390.08C493.74 392.074 493.456 394.055 493 396C492.723 397.947 492.282 399.868 491.68 401.74V401.74Z" fill="#263238"/>
<path d="M495.37 403.16C494.868 400.938 494.534 398.682 494.37 396.41C494.02 394.157 493.843 391.88 493.84 389.6C494.342 391.822 494.676 394.078 494.84 396.35C495.19 398.603 495.367 400.88 495.37 403.16V403.16Z" fill="#263238"/>
<path d="M418.11 465.28C417.97 465.28 417.85 449.2 417.85 429.38C417.85 409.56 417.97 393.47 418.11 393.47C418.25 393.47 418.37 409.54 418.37 429.38C418.37 449.22 418.25 465.28 418.11 465.28Z" fill="#263238"/>
<g opacity="0.2">
<path opacity="0.2" d="M457.41 363.73C462.32 373.14 466.59 382.5 466.98 393.11C467.28 401.36 463.98 408.24 467.39 415.76C467.22 415.89 464.31 409.41 463.02 406.37C460.37 400.11 458.02 394.52 458.02 394.52C458.02 394.52 459.84 380.39 460.02 377.98C460.2 375.57 457.41 363.73 457.41 363.73Z" fill="black"/>
</g>
<g opacity="0.2">
<path opacity="0.2" d="M335.88 411.54C335.88 416.26 332.95 400.68 335.69 396.85C337.62 394.16 340.92 392.85 344.12 392.06C347.32 391.27 350.67 390.74 353.51 389.06C357.18 386.89 359.51 383.06 362.08 379.7C364.65 376.34 368.08 361.95 372.32 361.64V382.64C362.166 389.213 351.605 395.135 340.7 400.37C339.147 401.781 337.914 403.508 337.083 405.434C336.252 407.361 335.842 409.442 335.88 411.54V411.54Z" fill="black"/>
</g>
<g opacity="0.2">
<path opacity="0.2" d="M378 417.93C384.85 414.08 389.85 408.93 397.59 407.6C405.04 406.28 412.71 407.6 420.25 407.08C419.843 403.273 419.427 399.46 419 395.64L397.43 395.4L378 417.93Z" fill="black"/>
</g>
<path d="M372.32 361.4C372.46 361.4 372.58 366.07 372.58 371.83C372.58 377.59 372.46 382.27 372.32 382.27C372.056 378.797 371.97 375.312 372.06 371.83C371.97 368.351 372.056 364.87 372.32 361.4V361.4Z" fill="#263238"/>
<path d="M335.86 411.43C335.698 410.824 335.657 410.192 335.74 409.57C335.841 408.063 336.199 406.585 336.8 405.2C337.393 403.814 338.222 402.542 339.25 401.44C339.644 400.955 340.126 400.548 340.67 400.24C339.323 401.811 338.183 403.548 337.28 405.41C336.534 407.342 336.056 409.368 335.86 411.43V411.43Z" fill="#263238"/>
<path d="M340.17 400.56C340.709 400.417 341.235 400.226 341.74 399.99C342.74 399.59 344.18 398.99 345.93 398.16C349.43 396.56 354.2 394.16 359.26 391.16C364.32 388.16 368.73 385.21 371.82 382.95C373.37 381.81 374.61 380.87 375.44 380.2C375.89 379.873 376.311 379.508 376.7 379.11C376.209 379.378 375.741 379.685 375.3 380.03L371.59 382.63C368.44 384.81 364.02 387.72 358.97 390.69C353.92 393.66 349.2 396.08 345.75 397.77L341.65 399.77C341.134 399.989 340.639 400.253 340.17 400.56V400.56Z" fill="#263238"/>
<path d="M471.57 271.82C469.85 269.57 467.12 267.82 466.57 265.07C465.88 261.38 469.57 257.92 468.9 254.22C468.46 251.69 466.13 249.91 463.75 248.93C461.37 247.95 458.75 247.48 456.57 246.17C453.953 244.491 451.944 242.016 450.84 239.11C450.514 238.316 450.23 237.505 449.99 236.68C449.767 234.913 449.361 233.174 448.78 231.49C448.69 231.05 448.61 230.61 448.53 230.17L448.64 231.17C448.308 230.338 447.871 229.551 447.34 228.83C445.51 226.39 441.85 225.03 439.34 226.74L440.54 225.94C439.023 222.27 436.585 219.054 433.461 216.601C430.338 214.149 426.635 212.543 422.71 211.94C421.213 211.73 419.698 211.68 418.19 211.79C412.8 211.51 405.01 213.08 401.72 215.17C397.52 217.83 393.22 221.48 391.11 225.99C389.98 228.42 389.21 231.23 387.11 232.85C384.25 235.01 380.24 234.17 376.67 234.57C370.79 235.24 365.67 239.75 363.67 245.32C362.739 248.139 362.404 251.122 362.686 254.077C362.969 257.033 363.862 259.898 365.31 262.49C365.93 263.64 366.66 264.97 366.17 266.18C365.663 267.078 364.871 267.782 363.92 268.18C361.523 269.417 359.608 271.42 358.48 273.87C357.48 276.36 357.86 279.51 359.88 281.27C360.727 281.945 361.739 282.382 362.812 282.535C363.884 282.688 364.978 282.552 365.98 282.14C365.384 283.647 365.069 285.25 365.05 286.87C365.007 288.64 365.441 290.39 366.304 291.936C367.168 293.482 368.43 294.768 369.96 295.66C373.09 297.29 377.47 296.43 379.31 293.42C379.298 295.639 379.887 297.82 381.014 299.732C382.142 301.644 383.765 303.215 385.713 304.279C387.66 305.343 389.86 305.861 392.077 305.776C394.295 305.692 396.449 305.009 398.31 303.8C399.79 302.8 401.31 301.48 403.06 301.8C404.81 302.12 405.8 303.8 407 305.02C410.2 308.35 415.66 308.73 419.87 306.84C424.08 304.95 427.18 301.17 429.41 297.13C430.187 298.293 431.277 299.214 432.554 299.786C433.831 300.358 435.243 300.558 436.629 300.364C438.014 300.17 439.317 299.589 440.387 298.688C441.458 297.787 442.252 296.602 442.68 295.27C444.239 297.286 446.379 298.775 448.812 299.535C451.245 300.296 453.852 300.29 456.281 299.52C458.711 298.75 460.845 297.252 462.396 295.229C463.946 293.206 464.838 290.756 464.95 288.21C466.709 287.95 468.369 287.236 469.768 286.138C471.166 285.039 472.254 283.596 472.923 281.948C473.593 280.301 473.821 278.508 473.585 276.746C473.35 274.984 472.659 273.313 471.58 271.9L471.57 271.82ZM371 274.91C371 274.91 371 274.91 371 274.85L371.1 274.8L371 274.91Z" fill="#263238"/>
<path d="M434.44 300C434.44 300 447.25 297.88 449.9 281.17C451.22 272.86 450.8 259.24 450.1 248.11C449.951 245.734 449.323 243.413 448.254 241.286C447.185 239.159 445.697 237.271 443.879 235.734C442.061 234.197 439.951 233.044 437.676 232.344C435.401 231.644 433.007 231.411 430.64 231.66L401.64 234.73C400.169 234.885 398.811 235.589 397.837 236.701C396.862 237.813 396.342 239.252 396.38 240.73L399.43 313.31C397.32 313.76 392.53 314.8 390.18 315.48C390.18 315.48 412.6 365.59 418.09 365.01C423.58 364.43 445.52 317.01 445.52 317.01C441.699 315.858 437.82 314.907 433.9 314.16C433.838 309.434 434.018 304.708 434.44 300V300Z" fill="#FFAD9D"/>
<path d="M443.62 257.21C443.626 257.767 443.413 258.305 443.029 258.708C442.644 259.112 442.117 259.349 441.56 259.37C441.286 259.399 441.009 259.371 440.746 259.288C440.484 259.205 440.241 259.069 440.034 258.888C439.826 258.706 439.658 258.484 439.541 258.235C439.423 257.986 439.358 257.715 439.35 257.44C439.344 256.883 439.557 256.345 439.941 255.942C440.326 255.538 440.853 255.301 441.41 255.28C441.683 255.258 441.957 255.291 442.216 255.377C442.476 255.463 442.716 255.6 442.922 255.779C443.128 255.959 443.295 256.178 443.415 256.424C443.535 256.67 443.605 256.937 443.62 257.21V257.21Z" fill="#263238"/>
<path d="M447.15 255.23C446.88 255.51 445.26 254.31 442.95 254.32C440.64 254.33 438.95 255.48 438.71 255.2C438.58 255.07 438.85 254.57 439.59 254.03C440.596 253.349 441.785 252.99 443 253C444.199 252.998 445.369 253.376 446.34 254.08C447 254.6 447.28 255.11 447.15 255.23Z" fill="#263238"/>
<path d="M421.37 257.64C421.376 258.199 421.162 258.738 420.775 259.142C420.388 259.545 419.859 259.782 419.3 259.8C419.026 259.829 418.749 259.801 418.486 259.718C418.224 259.635 417.981 259.499 417.774 259.318C417.566 259.136 417.398 258.914 417.281 258.665C417.163 258.416 417.098 258.145 417.09 257.87C417.084 257.311 417.298 256.772 417.685 256.368C418.072 255.965 418.601 255.728 419.16 255.71C419.433 255.688 419.707 255.721 419.966 255.807C420.226 255.893 420.466 256.03 420.672 256.209C420.878 256.389 421.045 256.608 421.165 256.854C421.285 257.1 421.355 257.367 421.37 257.64V257.64Z" fill="#263238"/>
<path d="M424.48 255.66C424.22 255.94 422.59 254.74 420.29 254.75C417.99 254.76 416.29 255.91 416.04 255.63C415.92 255.5 416.19 255 416.93 254.46C417.929 253.771 419.116 253.404 420.33 253.41C421.529 253.41 422.698 253.788 423.67 254.49C424.37 255 424.61 255.54 424.48 255.66Z" fill="#263238"/>
<path d="M432.85 272.76C434.067 272.379 435.327 272.154 436.6 272.09C437.18 272.03 437.74 271.91 437.84 271.51C437.891 270.901 437.755 270.29 437.45 269.76C436.89 268.34 436.32 266.84 435.71 265.28C433.29 258.9 431.54 253.65 431.8 253.55C432.06 253.45 434.22 258.55 436.64 264.94L438.31 269.45C438.682 270.16 438.789 270.979 438.61 271.76C438.522 271.972 438.386 272.16 438.213 272.309C438.039 272.459 437.832 272.565 437.61 272.62C437.283 272.705 436.948 272.752 436.61 272.76C435.361 272.915 434.099 272.915 432.85 272.76V272.76Z" fill="#263238"/>
<path d="M434.44 300C426.572 300.111 418.827 298.033 412.07 294C412.07 294 417.5 305.47 434.22 303.91L434.44 300Z" fill="#ED9482"/>
<path d="M426.36 276.37C426.867 276.014 427.443 275.765 428.05 275.64C428.356 275.584 428.672 275.625 428.954 275.758C429.235 275.891 429.468 276.108 429.62 276.38C429.684 276.58 429.764 276.774 429.86 276.96C430.2 277.42 430.91 277.25 431.45 277.41C431.654 277.496 431.839 277.622 431.994 277.78C432.149 277.938 432.272 278.125 432.355 278.33C432.437 278.535 432.479 278.755 432.476 278.976C432.474 279.198 432.427 279.417 432.34 279.62C432.139 280.026 431.858 280.388 431.515 280.683C431.171 280.979 430.772 281.202 430.34 281.34C429.208 281.806 427.976 281.975 426.76 281.83C426.335 281.814 425.918 281.708 425.537 281.518C425.156 281.328 424.819 281.06 424.55 280.73C424.298 280.288 424.179 279.783 424.209 279.275C424.24 278.767 424.417 278.279 424.72 277.87C425.341 277.056 426.12 276.376 427.01 275.87" fill="#ED9482"/>
<path d="M426.07 274.36C426.44 274.36 426.45 276.84 428.59 278.61C430.73 280.38 433.39 280.11 433.41 280.46C433.41 280.62 432.82 280.95 431.69 280.98C430.234 280.994 428.819 280.499 427.69 279.58C426.586 278.694 425.869 277.414 425.69 276.01C425.62 275 425.9 274.34 426.07 274.36Z" fill="#263238"/>
<path d="M425.52 251.63C425.29 252.25 422.99 251.96 420.29 252.28C417.59 252.6 415.39 253.35 415.04 252.78C414.88 252.52 415.26 251.93 416.14 251.32C417.319 250.576 418.653 250.11 420.039 249.958C421.425 249.805 422.827 249.97 424.14 250.44C425.12 250.84 425.62 251.33 425.52 251.63Z" fill="#263238"/>
<path d="M446.3 250C445.89 250.53 444.3 250 442.39 250C440.48 250 438.87 250.35 438.5 249.8C438.33 249.54 438.59 249.01 439.29 248.52C440.24 247.926 441.344 247.626 442.464 247.66C443.584 247.694 444.668 248.059 445.58 248.71C446.26 249.23 446.48 249.77 446.3 250Z" fill="#263238"/>
<path d="M440.33 229.22C439.706 232.18 438.496 234.985 436.77 237.47C435.045 239.955 432.839 242.069 430.284 243.688C427.728 245.307 424.874 246.398 421.89 246.896C418.906 247.395 415.853 247.291 412.91 246.59C412.426 250.26 411.004 253.744 408.781 256.704C406.558 259.665 403.61 262.002 400.22 263.49C404.844 271.873 406.729 281.492 405.61 291C405.12 295 403.95 299.27 400.91 302C396.27 306.16 388.45 305.15 383.99 300.81C379.71 296.64 378.2 290.12 379.41 284.27C380.62 278.42 384.29 273.27 388.9 269.51C386.958 269.178 385.147 268.31 383.671 267.004C382.195 265.699 381.113 264.008 380.546 262.121C379.978 260.234 379.949 258.226 380.46 256.324C380.971 254.421 382.003 252.698 383.44 251.35C384.75 250.11 386.44 249.19 387.44 247.68C388.44 246.17 388.6 244.49 389.17 242.88C390.66 238.67 394.42 235.76 398 233.08C401 230.82 404.36 228.46 408.14 228.47C410.14 228.47 412.14 229.17 414.14 228.9C416.89 228.53 419.04 226.44 421.31 224.9C424.468 222.55 428.396 221.478 432.31 221.9C436.18 222.51 439.79 225.4 440.52 229.24" fill="#263238"/>
<path d="M438.84 230.87C438.25 234.1 439.84 237.41 442.26 239.67C444.68 241.93 447.67 243.33 450.66 244.67C449.618 241.493 448.162 238.467 446.33 235.67C445.406 234.265 444.212 233.058 442.819 232.117C441.425 231.176 439.858 230.521 438.21 230.19" fill="#263238"/>
<path d="M365.36 269.39C365.246 269.052 365.215 268.692 365.27 268.34C365.418 267.319 365.956 266.394 366.77 265.76C368.087 264.801 369.709 264.36 371.33 264.52C373.2 264.52 375.27 265.14 377.56 265C378.799 264.896 379.996 264.5 381.052 263.845C382.109 263.189 382.996 262.294 383.64 261.23C384.354 260.041 384.747 258.687 384.78 257.3C384.88 255.87 384.78 254.37 384.83 252.81C384.845 251.174 385.354 249.582 386.29 248.24C387.331 246.9 388.712 245.864 390.29 245.24C393.44 243.81 397.03 243.79 400.47 243.15C402.177 242.872 403.822 242.296 405.33 241.45C406.743 240.55 407.969 239.385 408.94 238.02C410.89 235.34 412.2 232.35 413.99 229.8C416.141 226.598 419.306 224.211 422.977 223.023C426.647 221.835 430.61 221.915 434.23 223.25C435.731 223.792 437.148 224.543 438.44 225.48C439.56 226.25 440.555 227.188 441.39 228.26C441.317 228.207 441.25 228.147 441.19 228.08L440.64 227.53C439.92 226.844 439.148 226.215 438.33 225.65C435.297 223.559 431.683 222.478 428 222.56C425.296 222.652 422.653 223.381 420.284 224.688C417.916 225.994 415.889 227.842 414.37 230.08C412.62 232.58 411.32 235.57 409.37 238.33C408.361 239.751 407.084 240.961 405.61 241.89C404.062 242.772 402.369 243.372 400.61 243.66C397.09 244.31 393.61 244.33 390.53 245.66C389.035 246.255 387.724 247.235 386.73 248.5C385.844 249.76 385.362 251.26 385.35 252.8C385.26 254.31 385.35 255.8 385.28 257.29C385.23 258.749 384.807 260.171 384.05 261.42C383.367 262.533 382.428 263.468 381.312 264.146C380.195 264.824 378.933 265.227 377.63 265.32C375.24 265.44 373.18 264.82 371.35 264.77C369.791 264.587 368.218 264.982 366.93 265.88C366.138 266.477 365.597 267.346 365.41 268.32C365.348 268.673 365.332 269.033 365.36 269.39V269.39Z" fill="#FAFAFA"/>
<path d="M390.2 346.58L391.26 373.22L393.94 398.72L422.27 397.51L420.23 347.16L390.2 346.58Z" fill="#263238"/>
<path d="M386.04 346.49L387.1 373.22L389.78 398.72L418.11 397.51L416.07 347.08L386.04 346.49Z" fill="#455A64"/>
<path d="M383.38 401.84C390.899 401.497 398.389 400.696 405.81 399.44C414.59 398.03 414.5 397.24 414.19 396.23C413.35 393.53 398.65 398.11 401.29 395.29C403.93 392.47 419.86 391.79 418.86 389.01C417.57 385.38 402.26 390.46 400.94 390.79C399.62 391.12 399.14 389.21 400.35 388.97C402.09 388.63 420.28 384.61 419.04 381.03C418.36 379.03 414.93 380.71 414.93 380.71C414.93 380.71 398.15 385.71 397.62 384.04C397.09 382.37 406.85 379.04 410.21 378.14C413.57 377.24 414.52 375.33 412.95 374.14C411.88 373.35 401.52 375.78 398.22 376.73C394.92 377.68 385.88 380.42 389.32 375.42C389.38 375.34 389.42 375.26 389.47 375.18C393 370.36 394.11 365.47 393.47 363.83C392.83 362.19 390.6 362.34 389.75 363.83C389.583 364.07 389.467 364.343 389.41 364.63C389.41 364.76 389.32 364.93 389.28 365.07C388.463 366.937 387.458 368.717 386.28 370.38C385.245 371.899 383.956 373.229 382.47 374.31C380.76 375.56 376.47 380.14 375.12 380.95" fill="#FFAD9D"/>
<path d="M376.89 379.48L391.87 401.84L367.18 427.02L368.02 386.18L376.89 379.48Z" fill="#FF725E"/>
</svg>
