<svg width="500" height="500" viewBox="0 0 500 500" fill="none" xmlns="http://www.w3.org/2000/svg">
<g clip-path="url(#clip0)">
<path d="M417.41 243.06L430.53 243.34L437.19 243.45C439.42 243.5 441.66 243.45 443.89 243.5H444.33V243.05L444.39 231.86V231.36H443.89L430.65 231.42C426.23 231.42 421.82 231.53 417.41 231.59H417.13V231.86C417.13 233.76 417.22 235.65 417.26 237.51L417.41 243.06ZM417.41 243.06L417.55 237.4C417.55 235.54 417.66 233.7 417.68 231.87L417.41 232.14C421.82 232.19 426.23 232.3 430.65 232.31L443.89 232.37L443.39 231.87V243.06L443.84 242.61C441.66 242.61 439.48 242.61 437.29 242.67L430.71 242.78L417.41 243.06Z" fill="#EBEBEB"/>
<path d="M432.18 257.17L445.3 257.45L451.96 257.56C454.19 257.61 456.43 257.56 458.66 257.61H459.1V257.16L459.16 246V245.5H458.66L445.42 245.56C441.01 245.56 436.59 245.67 432.18 245.73H431.9V246C431.9 247.9 431.98 249.79 432.03 251.65L432.18 257.17ZM432.18 257.17L432.32 251.51C432.37 249.65 432.43 247.81 432.45 245.98L432.18 246.25C436.59 246.3 441.01 246.41 445.42 246.41L458.66 246.48L458.16 245.98L458.21 257.17L458.66 256.72C456.48 256.72 454.3 256.72 452.11 256.78L445.53 256.89L432.18 257.17Z" fill="#EBEBEB"/>
<path d="M41.34 257.17L54.47 257.45L61.13 257.56C63.35 257.61 65.59 257.56 67.82 257.61H68.27V257.16L68.32 246V245.5H67.82L54.58 245.56C50.17 245.56 45.75 245.67 41.34 245.73H41.07V246C41.07 247.9 41.15 249.79 41.2 251.65L41.34 257.17ZM41.34 257.17L41.48 251.51C41.48 249.65 41.6 247.81 41.61 245.98L41.34 246.25C45.75 246.3 50.17 246.41 54.58 246.41L67.82 246.48L67.32 245.98L67.38 257.17L67.82 256.72C65.64 256.72 63.46 256.72 61.28 256.78L54.7 256.89L41.34 257.17Z" fill="#EBEBEB"/>
<path d="M56.11 58.7L69.24 59L75.9 59.11C78.12 59.11 80.36 59.11 82.59 59.17H83V58.7V47.51V47H82.49L69.25 47.07C64.84 47.07 60.43 47.18 56.01 47.23H55.74V47.5C55.74 49.4 55.83 51.29 55.87 53.16L56.11 58.7ZM56.11 58.7L56.25 53.05C56.3 51.19 56.37 49.34 56.39 47.51L56.11 47.79C60.53 47.84 64.94 47.94 69.35 47.95L82.59 48L82.09 47.5L82.15 58.69L82.59 58.25C80.41 58.25 78.24 58.25 76.05 58.3L69.47 58.41L56.11 58.7Z" fill="#EBEBEB"/>
<path d="M41.34 72.81L54.47 73.09L61.13 73.2C63.35 73.2 65.59 73.2 67.82 73.26H68.27V72.81L68.32 61.62V61.12H67.82L54.58 61.19C50.17 61.19 45.75 61.3 41.34 61.35H41.07V61.62C41.07 63.52 41.15 65.41 41.2 67.28L41.34 72.81ZM41.34 72.81L41.48 67.16C41.48 65.3 41.6 63.45 41.61 61.62L41.34 61.9C45.75 61.95 50.17 62.05 54.58 62.06L67.82 62.12L67.32 61.62L67.38 72.81L67.82 72.37C65.64 72.37 63.46 72.37 61.28 72.37L54.7 72.48L41.34 72.81Z" fill="#EBEBEB"/>
<path d="M417.41 58.7L430.53 59L437.19 59.11C439.42 59.11 441.66 59.11 443.89 59.17H444.33V58.7L444.39 47.51V47H443.89L430.65 47.07C426.23 47.07 421.82 47.18 417.41 47.23H417.13V47.5C417.13 49.4 417.22 51.29 417.26 53.16L417.41 58.7ZM417.41 58.7L417.55 53.05C417.55 51.19 417.66 49.34 417.68 47.51L417.41 47.79C421.82 47.84 426.23 47.94 430.65 47.95L443.89 48L443.39 47.5V58.69L443.84 58.25C441.66 58.25 439.48 58.25 437.29 58.3L430.71 58.41L417.41 58.7Z" fill="#EBEBEB"/>
<path d="M66.59 289.3H141.43V392.86H66.59V289.3Z" fill="#EBEBEB"/>
<path d="M62.97 285.46H145.06V289.3H62.97V285.46Z" fill="#DBDBDB"/>
<path d="M37.15 285.46H62.97V289.3H37.15V285.46Z" fill="#EBEBEB"/>
<path d="M41.24 289.3H66.59V392.86H41.24V289.3Z" fill="#DBDBDB"/>
<path d="M74.62 337.26H133.4V304H74.62V337.26ZM133.15 337H74.87V304.26H133.15V337Z" fill="#C7C7C7"/>
<path d="M100.78 313.75H112.21V320.32H100.78V313.75Z" fill="#C7C7C7"/>
<path d="M97.27 320H108.95V314.17H97.27V320ZM108.7 319.75H97.52V314.42H108.7V319.75Z" fill="#C7C7C7"/>
<path d="M74.62 379H133.4V345.71H74.62V379ZM133.15 378.75H74.87V346H133.15V378.75Z" fill="#C7C7C7"/>
<path d="M100.78 355.44H112.21V362.01H100.78V355.44Z" fill="#C7C7C7"/>
<path d="M97.27 361.64H108.95V355.81H97.27V361.64ZM108.7 361.39H97.52V356.06H108.7V361.39Z" fill="#C7C7C7"/>
<path d="M41.07 76.96H312.03V195.23H41.07V76.96Z" fill="white"/>
<path d="M41.08 149V197.19H153.12V115.94H133.94V139.25H128.99V126.06H104.6V146.95H101.36V97.92H80.16V111.38H69.28V128.11H66V117.58H46.72V149H41.08Z" fill="#EBEBEB"/>
<path d="M147.52 118.87H150.77V123.32H147.52V118.87Z" fill="white"/>
<path d="M141.89 118.87H145.14V123.32H141.89V118.87Z" fill="white"/>
<path d="M136.26 118.87H139.51V123.32H136.26V118.87Z" fill="white"/>
<path d="M147.52 125.57H150.77V130.02H147.52V125.57Z" fill="white"/>
<path d="M141.89 125.57H145.14V130.02H141.89V125.57Z" fill="white"/>
<path d="M136.26 125.57H139.51V130.02H136.26V125.57Z" fill="white"/>
<path d="M147.52 132.28H150.77V136.74H147.52V132.28Z" fill="white"/>
<path d="M141.89 132.28H145.14V136.74H141.89V132.28Z" fill="white"/>
<path d="M136.26 132.28H139.51V136.74H136.26V132.28Z" fill="white"/>
<path d="M147.52 138.98H150.77V143.43H147.52V138.98Z" fill="white"/>
<path d="M141.89 138.98H145.14V143.43H141.89V138.98Z" fill="white"/>
<path d="M136.26 138.98H139.51V143.43H136.26V138.98Z" fill="white"/>
<path d="M107.53 128.91H126.22V131.7H107.53V128.91Z" fill="white"/>
<path d="M107.53 134.31H126.22V137.1H107.53V134.31Z" fill="white"/>
<path d="M107.53 139.72H126.22V142.51H107.53V139.72Z" fill="white"/>
<path d="M107.53 145.13H126.22V147.92H107.53V145.13Z" fill="white"/>
<path d="M107.53 150.53H126.22V153.32H107.53V150.53Z" fill="white"/>
<path d="M107.53 155.94H126.22V158.73H107.53V155.94Z" fill="white"/>
<path d="M107.53 161.34H126.22V164.13H107.53V161.34Z" fill="white"/>
<path d="M107.53 166.75H126.22V169.54H107.53V166.75Z" fill="white"/>
<path d="M54.59 120.11H60.36V122.8H54.59V120.11Z" fill="white"/>
<path d="M54.59 125.33H60.36V128.02H54.59V125.33Z" fill="white"/>
<path d="M54.59 130.55H60.36V133.24H54.59V130.55Z" fill="white"/>
<path d="M54.59 135.77H60.36V138.46H54.59V135.77Z" fill="white"/>
<path d="M54.59 140.99H60.36V143.68H54.59V140.99Z" fill="white"/>
<path d="M54.59 146.21H60.36V148.9H54.59V146.21Z" fill="white"/>
<path d="M54.59 151.43H60.36V154.12H54.59V151.43Z" fill="white"/>
<path d="M54.59 156.65H60.36V159.34H54.59V156.65Z" fill="white"/>
<path d="M46.73 120.11H52.5V122.8H46.73V120.11Z" fill="white"/>
<path d="M46.73 125.33H52.5V128.02H46.73V125.33Z" fill="white"/>
<path d="M46.73 130.55H52.5V133.24H46.73V130.55Z" fill="white"/>
<path d="M46.73 135.77H52.5V138.46H46.73V135.77Z" fill="white"/>
<path d="M46.73 140.99H52.5V143.68H46.73V140.99Z" fill="white"/>
<path d="M46.73 146.21H52.5V148.9H46.73V146.21Z" fill="white"/>
<path d="M46.73 151.43H52.5V154.12H46.73V151.43Z" fill="white"/>
<path d="M46.73 156.65H52.5V159.34H46.73V156.65Z" fill="white"/>
<path d="M92.14 100.74H98.15V104.98H92.14V100.74Z" fill="white"/>
<path d="M83.17 100.74H89.18V104.98H83.17V100.74Z" fill="white"/>
<path d="M92.14 106.97H98.15V111.21H92.14V106.97Z" fill="white"/>
<path d="M83.17 106.97H89.18V111.21H83.17V106.97Z" fill="white"/>
<path d="M92.14 113.21H98.15V117.45H92.14V113.21Z" fill="white"/>
<path d="M83.17 113.21H89.18V117.45H83.17V113.21Z" fill="white"/>
<path d="M92.14 119.44H98.15V123.68H92.14V119.44Z" fill="white"/>
<path d="M83.17 119.44H89.18V123.68H83.17V119.44Z" fill="white"/>
<path d="M92.14 125.67H98.15V129.91H92.14V125.67Z" fill="white"/>
<path d="M83.17 125.67H89.18V129.91H83.17V125.67Z" fill="white"/>
<path d="M92.14 131.91H98.15V136.15H92.14V131.91Z" fill="white"/>
<path d="M83.17 131.91H89.18V136.15H83.17V131.91Z" fill="white"/>
<path d="M92.14 138.14H98.15V142.38H92.14V138.14Z" fill="white"/>
<path d="M83.17 138.14H89.18V142.38H83.17V138.14Z" fill="white"/>
<path d="M92.14 144.37H98.15V148.61H92.14V144.37Z" fill="white"/>
<path d="M83.17 144.37H89.18V148.61H83.17V144.37Z" fill="white"/>
<path d="M72.06 113.21H78.07V117.45H72.06V113.21Z" fill="white"/>
<path d="M72.06 119.44H78.07V123.68H72.06V119.44Z" fill="white"/>
<path d="M72.06 125.67H78.07V129.91H72.06V125.67Z" fill="white"/>
<path d="M72.06 131.91H78.07V136.15H72.06V131.91Z" fill="white"/>
<path d="M72.06 138.14H78.07V142.38H72.06V138.14Z" fill="white"/>
<path d="M72.06 144.37H78.07V148.61H72.06V144.37Z" fill="white"/>
<path d="M92.14 150.53H98.15V154.77H92.14V150.53Z" fill="white"/>
<path d="M83.17 150.53H89.18V154.77H83.17V150.53Z" fill="white"/>
<path d="M72.06 150.53H78.07V154.77H72.06V150.53Z" fill="white"/>
<path d="M92.14 156.69H98.15V160.93H92.14V156.69Z" fill="white"/>
<path d="M83.17 156.69H89.18V160.93H83.17V156.69Z" fill="white"/>
<path d="M72.06 156.69H78.07V160.93H72.06V156.69Z" fill="white"/>
<path d="M92.14 162.85H98.15V167.09H92.14V162.85Z" fill="white"/>
<path d="M83.17 162.85H89.18V167.09H83.17V162.85Z" fill="white"/>
<path d="M72.06 162.85H78.07V167.09H72.06V162.85Z" fill="white"/>
<path d="M92.14 169.01H98.15V173.25H92.14V169.01Z" fill="white"/>
<path d="M83.17 169.01H89.18V173.25H83.17V169.01Z" fill="white"/>
<path d="M72.06 169.01H78.07V173.25H72.06V169.01Z" fill="white"/>
<path d="M92.14 175.17H98.15V179.41H92.14V175.17Z" fill="white"/>
<path d="M83.17 175.17H89.18V179.41H83.17V175.17Z" fill="white"/>
<path d="M72.06 175.17H78.07V179.41H72.06V175.17Z" fill="white"/>
<path d="M153.12 197.2H313.31V115.94H294.12V139.24H289.19V126.05H264.79V146.94H261.56V97.92H240.35V111.37H229.48V128.12H226.19V117.59H206.91V149H201.27V123.47H183.64V104.06H171.66L157.79 104.13V142.02H153.12V197.2Z" fill="#EBEBEB"/>
<path d="M307.71 118.87H310.96V123.32H307.71V118.87Z" fill="white"/>
<path d="M302.08 118.87H305.33V123.32H302.08V118.87Z" fill="white"/>
<path d="M296.46 118.87H299.71V123.32H296.46V118.87Z" fill="white"/>
<path d="M307.71 125.57H310.96V130.02H307.71V125.57Z" fill="white"/>
<path d="M302.08 125.57H305.33V130.02H302.08V125.57Z" fill="white"/>
<path d="M296.46 125.57H299.71V130.02H296.46V125.57Z" fill="white"/>
<path d="M307.71 132.28H310.96V136.74H307.71V132.28Z" fill="white"/>
<path d="M302.08 132.28H305.33V136.74H302.08V132.28Z" fill="white"/>
<path d="M296.46 132.28H299.71V136.74H296.46V132.28Z" fill="white"/>
<path d="M307.71 138.98H310.96V143.43H307.71V138.98Z" fill="white"/>
<path d="M302.08 138.98H305.33V143.43H302.08V138.98Z" fill="white"/>
<path d="M296.46 138.98H299.71V143.43H296.46V138.98Z" fill="white"/>
<path d="M195.32 126.65H198.57V130.37H195.32V126.65Z" fill="white"/>
<path d="M189.69 126.65H192.94V130.37H189.69V126.65Z" fill="white"/>
<path d="M184.06 126.65H187.31V130.37H184.06V126.65Z" fill="white"/>
<path d="M195.32 132.24H198.57V135.96H195.32V132.24Z" fill="white"/>
<path d="M189.69 132.24H192.94V135.96H189.69V132.24Z" fill="white"/>
<path d="M184.06 132.24H187.31V135.96H184.06V132.24Z" fill="white"/>
<path d="M195.32 137.83H198.57V141.55H195.32V137.83Z" fill="white"/>
<path d="M189.69 137.83H192.94V141.55H189.69V137.83Z" fill="white"/>
<path d="M184.06 137.83H187.31V141.55H184.06V137.83Z" fill="white"/>
<path d="M195.32 143.42H198.57V147.14H195.32V143.42Z" fill="white"/>
<path d="M189.69 143.42H192.94V147.14H189.69V143.42Z" fill="white"/>
<path d="M184.06 143.42H187.31V147.14H184.06V143.42Z" fill="white"/>
<path d="M195.32 149.15H198.57V152.87H195.32V149.15Z" fill="white"/>
<path d="M189.69 149.15H192.94V152.87H189.69V149.15Z" fill="white"/>
<path d="M184.06 149.15H187.31V152.87H184.06V149.15Z" fill="white"/>
<path d="M195.32 154.88H198.57V158.6H195.32V154.88Z" fill="white"/>
<path d="M189.69 154.88H192.94V158.6H189.69V154.88Z" fill="white"/>
<path d="M184.06 154.88H187.31V158.6H184.06V154.88Z" fill="white"/>
<path d="M195.32 160.62H198.57V164.34H195.32V160.62Z" fill="white"/>
<path d="M189.69 160.62H192.94V164.34H189.69V160.62Z" fill="white"/>
<path d="M184.06 160.62H187.31V164.34H184.06V160.62Z" fill="white"/>
<path d="M195.32 166.35H198.57V170.07H195.32V166.35Z" fill="white"/>
<path d="M189.69 166.35H192.94V170.07H189.69V166.35Z" fill="white"/>
<path d="M184.06 166.35H187.31V170.07H184.06V166.35Z" fill="white"/>
<path d="M267.73 128.91H286.42V131.7H267.73V128.91Z" fill="white"/>
<path d="M267.73 134.31H286.42V137.1H267.73V134.31Z" fill="white"/>
<path d="M267.73 139.72H286.42V142.51H267.73V139.72Z" fill="white"/>
<path d="M267.73 145.13H286.42V147.92H267.73V145.13Z" fill="white"/>
<path d="M267.73 150.53H286.42V153.32H267.73V150.53Z" fill="white"/>
<path d="M267.73 155.94H286.42V158.73H267.73V155.94Z" fill="white"/>
<path d="M267.73 161.34H286.42V164.13H267.73V161.34Z" fill="white"/>
<path d="M267.73 166.75H286.42V169.54H267.73V166.75Z" fill="white"/>
<path d="M214.78 120.11H220.55V122.8H214.78V120.11Z" fill="white"/>
<path d="M214.78 125.33H220.55V128.02H214.78V125.33Z" fill="white"/>
<path d="M214.78 130.55H220.55V133.24H214.78V130.55Z" fill="white"/>
<path d="M214.78 135.77H220.55V138.46H214.78V135.77Z" fill="white"/>
<path d="M214.78 140.99H220.55V143.68H214.78V140.99Z" fill="white"/>
<path d="M214.78 146.21H220.55V148.9H214.78V146.21Z" fill="white"/>
<path d="M214.78 151.43H220.55V154.12H214.78V151.43Z" fill="white"/>
<path d="M214.78 156.65H220.55V159.34H214.78V156.65Z" fill="white"/>
<path d="M206.93 120.11H212.7V122.8H206.93V120.11Z" fill="white"/>
<path d="M206.93 125.33H212.7V128.02H206.93V125.33Z" fill="white"/>
<path d="M206.93 130.55H212.7V133.24H206.93V130.55Z" fill="white"/>
<path d="M206.93 135.77H212.7V138.46H206.93V135.77Z" fill="white"/>
<path d="M206.93 140.99H212.7V143.68H206.93V140.99Z" fill="white"/>
<path d="M206.93 146.21H212.7V148.9H206.93V146.21Z" fill="white"/>
<path d="M206.93 151.43H212.7V154.12H206.93V151.43Z" fill="white"/>
<path d="M206.93 156.65H212.7V159.34H206.93V156.65Z" fill="white"/>
<path d="M252.33 100.74H258.34V104.98H252.33V100.74Z" fill="white"/>
<path d="M243.37 100.74H249.38V104.98H243.37V100.74Z" fill="white"/>
<path d="M252.33 106.97H258.34V111.21H252.33V106.97Z" fill="white"/>
<path d="M243.37 106.97H249.38V111.21H243.37V106.97Z" fill="white"/>
<path d="M252.33 113.21H258.34V117.45H252.33V113.21Z" fill="white"/>
<path d="M243.37 113.21H249.38V117.45H243.37V113.21Z" fill="white"/>
<path d="M252.33 119.44H258.34V123.68H252.33V119.44Z" fill="white"/>
<path d="M243.37 119.44H249.38V123.68H243.37V119.44Z" fill="white"/>
<path d="M252.33 125.67H258.34V129.91H252.33V125.67Z" fill="white"/>
<path d="M243.37 125.67H249.38V129.91H243.37V125.67Z" fill="white"/>
<path d="M252.33 131.91H258.34V136.15H252.33V131.91Z" fill="white"/>
<path d="M243.37 131.91H249.38V136.15H243.37V131.91Z" fill="white"/>
<path d="M252.33 138.14H258.34V142.38H252.33V138.14Z" fill="white"/>
<path d="M243.37 138.14H249.38V142.38H243.37V138.14Z" fill="white"/>
<path d="M252.33 144.37H258.34V148.61H252.33V144.37Z" fill="white"/>
<path d="M243.37 144.37H249.38V148.61H243.37V144.37Z" fill="white"/>
<path d="M232.26 113.21H238.27V117.45H232.26V113.21Z" fill="white"/>
<path d="M232.26 119.44H238.27V123.68H232.26V119.44Z" fill="white"/>
<path d="M232.26 125.67H238.27V129.91H232.26V125.67Z" fill="white"/>
<path d="M232.26 131.91H238.27V136.15H232.26V131.91Z" fill="white"/>
<path d="M232.26 138.14H238.27V142.38H232.26V138.14Z" fill="white"/>
<path d="M232.26 144.37H238.27V148.61H232.26V144.37Z" fill="white"/>
<path d="M252.33 150.53H258.34V154.77H252.33V150.53Z" fill="white"/>
<path d="M243.37 150.53H249.38V154.77H243.37V150.53Z" fill="white"/>
<path d="M232.26 150.53H238.27V154.77H232.26V150.53Z" fill="white"/>
<path d="M252.33 156.69H258.34V160.93H252.33V156.69Z" fill="white"/>
<path d="M243.37 156.69H249.38V160.93H243.37V156.69Z" fill="white"/>
<path d="M232.26 156.69H238.27V160.93H232.26V156.69Z" fill="white"/>
<path d="M252.33 162.85H258.34V167.09H252.33V162.85Z" fill="white"/>
<path d="M243.37 162.85H249.38V167.09H243.37V162.85Z" fill="white"/>
<path d="M232.26 162.85H238.27V167.09H232.26V162.85Z" fill="white"/>
<path d="M252.33 169.01H258.34V173.25H252.33V169.01Z" fill="white"/>
<path d="M243.37 169.01H249.38V173.25H243.37V169.01Z" fill="white"/>
<path d="M232.26 169.01H238.27V173.25H232.26V169.01Z" fill="white"/>
<path d="M252.33 175.17H258.34V179.41H252.33V175.17Z" fill="white"/>
<path d="M243.37 175.17H249.38V179.41H243.37V175.17Z" fill="white"/>
<path d="M232.26 175.17H238.27V179.41H232.26V175.17Z" fill="white"/>
<path d="M177.94 106.8H181.19V110.52H177.94V106.8Z" fill="white"/>
<path d="M172.32 106.8H175.57V110.52H172.32V106.8Z" fill="white"/>
<path d="M177.94 112.39H181.19V116.11H177.94V112.39Z" fill="white"/>
<path d="M172.32 112.39H175.57V116.11H172.32V112.39Z" fill="white"/>
<path d="M177.94 117.98H181.19V121.7H177.94V117.98Z" fill="white"/>
<path d="M172.32 117.98H175.57V121.7H172.32V117.98Z" fill="white"/>
<path d="M177.94 123.57H181.19V127.29H177.94V123.57Z" fill="white"/>
<path d="M172.32 123.57H175.57V127.29H172.32V123.57Z" fill="white"/>
<path d="M177.94 129.3H181.19V133.02H177.94V129.3Z" fill="white"/>
<path d="M172.32 129.3H175.57V133.02H172.32V129.3Z" fill="white"/>
<path d="M177.94 135.04H181.19V138.76H177.94V135.04Z" fill="white"/>
<path d="M172.32 135.04H175.57V138.76H172.32V135.04Z" fill="white"/>
<path d="M177.94 140.77H181.19V144.49H177.94V140.77Z" fill="white"/>
<path d="M172.32 140.77H175.57V144.49H172.32V140.77Z" fill="white"/>
<path d="M177.94 146.5H181.19V150.22H177.94V146.5Z" fill="white"/>
<path d="M172.32 146.5H175.57V150.22H172.32V146.5Z" fill="white"/>
<path d="M177.94 152.29H181.19V156.01H177.94V152.29Z" fill="white"/>
<path d="M172.32 152.29H175.57V156.01H172.32V152.29Z" fill="white"/>
<path d="M177.94 158.08H181.19V161.8H177.94V158.08Z" fill="white"/>
<path d="M172.32 158.08H175.57V161.8H172.32V158.08Z" fill="white"/>
<path d="M177.94 163.87H181.19V167.59H177.94V163.87Z" fill="white"/>
<path d="M172.32 163.87H175.57V167.59H172.32V163.87Z" fill="white"/>
<path d="M177.94 169.66H181.19V173.38H177.94V169.66Z" fill="white"/>
<path d="M172.32 169.66H175.57V173.38H172.32V169.66Z" fill="white"/>
<path d="M165.91 106.8H169.16V110.52H165.91V106.8Z" fill="white"/>
<path d="M160.29 106.8H163.54V110.52H160.29V106.8Z" fill="white"/>
<path d="M165.91 112.39H169.16V116.11H165.91V112.39Z" fill="white"/>
<path d="M160.29 112.39H163.54V116.11H160.29V112.39Z" fill="white"/>
<path d="M165.91 117.98H169.16V121.7H165.91V117.98Z" fill="white"/>
<path d="M160.29 117.98H163.54V121.7H160.29V117.98Z" fill="white"/>
<path d="M165.91 123.57H169.16V127.29H165.91V123.57Z" fill="white"/>
<path d="M160.29 123.57H163.54V127.29H160.29V123.57Z" fill="white"/>
<path d="M165.91 129.3H169.16V133.02H165.91V129.3Z" fill="white"/>
<path d="M160.29 129.3H163.54V133.02H160.29V129.3Z" fill="white"/>
<path d="M165.91 135.04H169.16V138.76H165.91V135.04Z" fill="white"/>
<path d="M160.29 135.04H163.54V138.76H160.29V135.04Z" fill="white"/>
<path d="M165.91 140.77H169.16V144.49H165.91V140.77Z" fill="white"/>
<path d="M160.29 140.77H163.54V144.49H160.29V140.77Z" fill="white"/>
<path d="M165.91 146.5H169.16V150.22H165.91V146.5Z" fill="white"/>
<path d="M160.29 146.5H163.54V150.22H160.29V146.5Z" fill="white"/>
<path d="M165.91 152.29H169.16V156.01H165.91V152.29Z" fill="white"/>
<path d="M160.29 152.29H163.54V156.01H160.29V152.29Z" fill="white"/>
<path d="M165.91 158.08H169.16V161.8H165.91V158.08Z" fill="white"/>
<path d="M160.29 158.08H163.54V161.8H160.29V158.08Z" fill="white"/>
<path d="M165.91 163.87H169.16V167.59H165.91V163.87Z" fill="white"/>
<path d="M160.29 163.87H163.54V167.59H160.29V163.87Z" fill="white"/>
<path d="M165.91 169.66H169.16V173.38H165.91V169.66Z" fill="white"/>
<path d="M160.29 169.66H163.54V173.38H160.29V169.66Z" fill="white"/>
<path d="M316 73V199.17H37.15V73H316ZM41.12 195.2H312V77H41L41.12 195.2Z" fill="#DBDBDB"/>
<path d="M174.59 76.96H178.52V195.23H174.59V76.96Z" fill="#DBDBDB"/>
<path d="M433.73 -0.600006H434.44V97.15H433.73V-0.600006Z" fill="#C7C7C7"/>
<path d="M404.64 125.53L407.01 130.74H461.17L463.53 125.53L440.47 109.57H427.7L404.64 125.53Z" fill="#EBEBEB"/>
<path d="M426.1 94.2L427.7 109.57H440.47L442.07 94.2H426.1Z" fill="#DBDBDB"/>
<path d="M404.64 125.53L407.01 130.74H461.17L463.53 125.53H404.64Z" fill="#DBDBDB"/>
<path d="M370.51 -0.600006H371.22V70.36H370.51V-0.600006Z" fill="#C7C7C7"/>
<path d="M341.42 98.74L343.79 103.94H397.94L400.31 98.74L377.25 82.78H364.47L341.42 98.74Z" fill="#EBEBEB"/>
<path d="M362.87 67.4L364.47 82.78H377.25L378.85 67.4H362.87Z" fill="#DBDBDB"/>
<path d="M341.42 98.74L343.79 103.94H397.95L400.31 98.74H341.42Z" fill="#DBDBDB"/>
<path d="M250 463.42C170.686 463.42 106.39 456.713 106.39 448.44C106.39 440.167 170.686 433.46 250 433.46C329.314 433.46 393.61 440.167 393.61 448.44C393.61 456.713 329.314 463.42 250 463.42Z" fill="#EBEBEB"/>
<path d="M353.65 251.63H430.52V392.86H353.65V251.63Z" fill="#455A64"/>
<path d="M353.65 251.63H430.52V260.84H353.65V251.63Z" fill="#263238"/>
<path d="M463.54 251.63L182.18 251.63V244.2L463.54 244.2V251.63Z" fill="#455A64"/>
<path d="M198.57 251.63L198.32 260.84L195.08 392.86H189.21V251.63H198.57Z" fill="#455A64"/>
<path d="M189.21 251.63H198.57L198.32 260.84H189.21V251.63Z" fill="#263238"/>
<path d="M430.52 251.63H456.57V392.86H430.52V251.63Z" fill="#37474F"/>
<path d="M430.52 251.63H456.57V260.84H430.52V251.63Z" fill="#263238"/>
<path d="M463.53 392.86L410.15 392.62L356.77 392.53L250 392.37L143.23 392.53L89.85 392.62L36.47 392.86L89.85 393.11L143.23 393.2L250 393.36L356.77 393.19L410.15 393.11L463.53 392.86Z" fill="#263238"/>
<path d="M241.35 442.91C243.57 443.63 306.71 442.81 309.09 441.25C310.01 440.67 310.43 431.47 310.61 420.33V420C310.61 417.7 310.69 415.34 310.69 412.94C310.69 412.61 310.69 412.28 310.69 411.94L307.63 379.18L265.39 379.61L269.56 412.06V413.34L269.82 420.06V420.75C269.82 420.75 245.82 431.88 243.35 433.87C240.88 435.86 239.13 442.21 241.35 442.91Z" fill="#D3766A"/>
<path d="M241.35 442.91C243.57 443.63 306.71 442.81 309.09 441.25C310.01 440.67 310.43 431.47 310.61 420.33V420C310.61 417.7 310.69 415.34 310.69 412.94C310.69 412.61 310.69 412.28 310.69 411.94L269.56 412.06V413.34L269.82 420.06V420.75C269.82 420.75 245.82 431.88 243.35 433.87C240.88 435.86 239.13 442.21 241.35 442.91Z" fill="#EBEBEB"/>
<path d="M240.93 443.08C243.18 443.8 307.18 442.94 309.6 441.37C310.53 440.78 310.95 431.45 311.13 420.16L269.87 420.59C269.87 420.59 245.5 431.88 243.04 433.89C240.58 435.9 238.69 442.36 240.93 443.08Z" fill="#455A64"/>
<path d="M279.77 443C294.72 442.66 308.51 442.09 309.6 441.37C310.52 440.77 310.95 431.45 311.13 420.16L301.81 420.26L279.77 443Z" fill="#37474F"/>
<path d="M241.82 440.5C252.54 440.1 295.82 439.5 306.47 439.89C306.56 439.89 306.56 439.95 306.47 439.95C295.84 440.59 252.54 440.86 241.81 440.68C241.59 440.68 241.59 440.51 241.82 440.5Z" fill="#263238"/>
<path d="M247.12 431.53C248.314 431.482 249.505 431.683 250.617 432.12C251.729 432.557 252.738 433.221 253.58 434.07C255.104 435.579 255.989 437.616 256.05 439.76C256.05 439.83 255.93 439.83 255.92 439.76C255.52 437.644 254.447 435.713 252.862 434.255C251.276 432.798 249.262 431.891 247.12 431.67C247.101 431.67 247.084 431.663 247.07 431.65C247.057 431.636 247.05 431.619 247.05 431.6C247.05 431.581 247.057 431.564 247.07 431.551C247.084 431.537 247.101 431.53 247.12 431.53Z" fill="#263238"/>
<path d="M265.72 421.71C270.01 421.6 275.01 423.05 277.72 426.52C277.82 426.66 277.63 426.8 277.5 426.74C273.718 424.822 269.742 423.314 265.64 422.24C265.576 422.222 265.522 422.182 265.486 422.127C265.45 422.071 265.436 422.005 265.445 421.94C265.455 421.874 265.489 421.815 265.539 421.773C265.59 421.73 265.654 421.708 265.72 421.71V421.71Z" fill="#263238"/>
<path d="M262.42 423.05C266.71 422.93 271.71 424.38 274.42 427.86C274.52 427.99 274.33 428.14 274.2 428.08C270.418 426.162 266.442 424.654 262.34 423.58C262.276 423.562 262.222 423.522 262.186 423.467C262.15 423.411 262.136 423.345 262.145 423.28C262.155 423.214 262.189 423.155 262.239 423.113C262.29 423.07 262.354 423.048 262.42 423.05Z" fill="#263238"/>
<path d="M259.12 424.39C263.42 424.27 268.41 425.72 271.12 429.2C271.22 429.33 271.03 429.48 270.9 429.41C267.107 427.489 263.117 425.983 259 424.92C258.93 424.904 258.869 424.861 258.83 424.8C258.792 424.739 258.779 424.665 258.795 424.595C258.811 424.525 258.854 424.464 258.915 424.425C258.976 424.387 259.05 424.374 259.12 424.39V424.39Z" fill="#263238"/>
<path d="M255.82 425.72C260.12 425.61 265.12 427.06 267.82 430.53C267.93 430.67 267.73 430.81 267.61 430.75C263.828 428.832 259.852 427.324 255.75 426.25C255.687 426.232 255.633 426.193 255.597 426.139C255.562 426.084 255.547 426.019 255.555 425.955C255.564 425.89 255.595 425.831 255.644 425.788C255.692 425.745 255.755 425.721 255.82 425.72V425.72Z" fill="#263238"/>
<path d="M303.61 429.73C308.42 429.68 308.51 437.17 303.68 437.22C298.85 437.27 298.78 429.78 303.61 429.73Z" fill="#263238"/>
<path d="M267.1 420.19H312.57C312.57 420.19 303.42 313.97 303.77 312.12C304.23 309.74 306.91 298.99 310.49 284.95C311.61 280.55 312.82 275.84 314.07 270.95C317.46 257.74 321.2 243.3 324.46 230.73C329.34 211.9 333.16 197.28 333.16 197.28H294.62C294.62 197.28 290.13 211.52 284.47 230.04C275.24 260.15 262.91 301.59 261.7 311.67C259.73 327.93 267.1 420.19 267.1 420.19Z" fill="#263238"/>
<path d="M269.11 412.43C276.06 412.29 274.06 412.23 281.01 412.16C284.41 412.16 306.75 411.94 309.92 412.46C309.939 412.46 309.956 412.467 309.969 412.48C309.983 412.494 309.99 412.511 309.99 412.53C309.99 412.549 309.983 412.566 309.969 412.579C309.956 412.593 309.939 412.6 309.92 412.6C306.75 413.13 284.41 412.94 281.01 412.9C274.06 412.84 276.06 412.78 269.11 412.63C269.083 412.63 269.058 412.619 269.039 412.601C269.021 412.582 269.01 412.557 269.01 412.53C269.01 412.503 269.021 412.478 269.039 412.459C269.058 412.441 269.083 412.43 269.11 412.43Z" fill="#37474F"/>
<path d="M295.22 305.63C296.71 299.05 298.94 292.63 300.88 286.16C304.82 273.047 308.783 259.943 312.77 246.85C314.77 240.303 316.77 233.757 318.77 227.21C319.77 223.9 320.77 220.6 321.84 217.3C322.91 214 324 210.87 324.92 207.61C325.29 206.29 325.49 207.02 325.01 208.7C324.06 212.09 323.11 215.49 322.12 218.87C320.16 225.537 318.19 232.233 316.21 238.96C312.257 252.293 308.28 265.607 304.28 278.9C302.28 285.567 300.28 292.233 298.28 298.9C297.26 302.072 296.438 305.305 295.82 308.58C295.282 312.002 295.148 315.476 295.42 318.93C295.85 325.93 296.66 332.84 297.3 339.78C297.94 346.72 298.59 353.69 299.23 360.65C300.51 374.49 301.78 388.333 303.04 402.18C303.2 403.94 303.35 405.69 303.49 407.45C303.49 408.04 302.64 407.99 302.58 407.45C301.08 393.76 299.94 380.02 298.65 366.31C297.36 352.6 296.09 339.03 294.82 325.39C294.5 321.96 294.13 318.53 294.13 315.09C294.137 311.906 294.503 308.732 295.22 305.63V305.63Z" fill="#37474F"/>
<path d="M299 197.28C301.68 217.98 306.78 256.79 310.5 284.95C319.19 250.83 333.17 197.28 333.17 197.28H299Z" fill="#37474F"/>
<path d="M289.53 443.52C291.74 444.25 354.89 443.66 357.27 442.11C358.19 441.53 358.64 432.33 358.87 421.19V420.84C358.87 418.54 358.96 416.18 358.97 413.78C358.97 413.45 358.97 413.12 358.97 412.78C359.12 396.71 357.97 380.03 357.97 380.03L316.69 380.29L317.84 412.75L317.9 414L318.13 420.72V421.41C318.13 421.41 294.06 432.41 291.61 434.41C289.16 436.41 287.31 442.81 289.53 443.52Z" fill="#D3766A"/>
<path d="M289.53 443.52C291.74 444.25 354.89 443.66 357.27 442.11C358.19 441.53 358.64 432.33 358.87 421.19V420.84C358.87 418.54 358.96 416.18 358.97 413.78C358.97 413.45 358.97 413.12 358.97 412.78H317.83L317.9 414L318.13 420.72V421.41C318.13 421.41 294.06 432.41 291.61 434.41C289.16 436.41 287.31 442.81 289.53 443.52Z" fill="#EBEBEB"/>
<path d="M288.79 443.74C291.04 444.46 355.04 443.61 357.46 442.04C358.38 441.44 358.8 432.11 358.99 420.83L317.72 421.26C317.72 421.26 293.36 432.54 290.89 434.56C288.42 436.58 286.54 443 288.79 443.74Z" fill="#455A64"/>
<path d="M289.67 441.17C300.4 440.76 343.67 440.17 354.33 440.55C354.42 440.55 354.42 440.62 354.33 440.62C343.71 441.25 300.41 441.53 289.68 441.35C289.45 441.34 289.45 441.18 289.67 441.17Z" fill="#263238"/>
<path d="M295 432.2C296.192 432.153 297.38 432.354 298.49 432.789C299.6 433.225 300.608 433.886 301.45 434.73C302.975 436.243 303.863 438.283 303.93 440.43C303.93 440.49 303.81 440.5 303.8 440.43C303.402 438.312 302.33 436.379 300.744 434.919C299.159 433.46 297.144 432.552 295 432.33C294.989 432.334 294.978 432.336 294.967 432.335C294.955 432.333 294.944 432.329 294.935 432.323C294.925 432.317 294.918 432.308 294.912 432.298C294.907 432.288 294.904 432.276 294.904 432.265C294.904 432.254 294.907 432.242 294.912 432.232C294.918 432.222 294.925 432.213 294.935 432.207C294.944 432.201 294.955 432.197 294.967 432.195C294.978 432.194 294.989 432.196 295 432.2V432.2Z" fill="#263238"/>
<path d="M313.57 422.38C317.87 422.26 322.87 423.71 325.57 427.19C325.68 427.32 325.48 427.47 325.36 427.41C321.58 425.488 317.604 423.979 313.5 422.91C313.437 422.892 313.383 422.853 313.347 422.799C313.312 422.744 313.297 422.679 313.305 422.615C313.314 422.55 313.345 422.491 313.394 422.448C313.442 422.405 313.505 422.381 313.57 422.38V422.38Z" fill="#263238"/>
<path d="M310.28 423.72C314.57 423.6 319.57 425.05 322.28 428.53C322.39 428.66 322.2 428.81 322.07 428.74C318.289 426.822 314.313 425.316 310.21 424.25C310.147 424.232 310.093 424.193 310.057 424.139C310.022 424.084 310.007 424.019 310.015 423.955C310.024 423.89 310.055 423.831 310.104 423.788C310.152 423.745 310.215 423.721 310.28 423.72V423.72Z" fill="#263238"/>
<path d="M307 425.05C311.29 424.94 316.29 426.39 319 429.86C319.1 430 318.91 430.14 318.78 430.08C314.998 428.162 311.022 426.654 306.92 425.58C306.856 425.562 306.802 425.522 306.766 425.467C306.73 425.411 306.716 425.345 306.725 425.28C306.735 425.214 306.769 425.155 306.819 425.113C306.87 425.07 306.934 425.048 307 425.05V425.05Z" fill="#263238"/>
<path d="M303.68 426.39C307.97 426.27 312.97 427.72 315.68 431.2C315.78 431.33 315.59 431.48 315.46 431.42C311.68 429.498 307.704 427.989 303.6 426.92C303.536 426.902 303.482 426.862 303.446 426.807C303.41 426.751 303.396 426.685 303.405 426.62C303.415 426.554 303.449 426.495 303.499 426.453C303.55 426.41 303.614 426.388 303.68 426.39Z" fill="#263238"/>
<path d="M295.86 197.28C295.86 197.28 296.75 215.72 300.97 230.28C301.31 231.49 301.68 232.68 302.07 233.82C305.941 235.378 309.66 237.289 313.18 239.53C313.18 239.53 313.63 254.36 314.07 270.91C314.56 289.41 315.07 310.04 314.97 314.42C314.58 330.79 317.02 420.82 317.02 420.82L362.49 421C362.49 421 354.27 320.46 354.32 314.47C354.41 304.83 352.12 262.22 350.32 231.14C349.24 212 348.32 197.24 348.32 197.24L295.86 197.28Z" fill="#263238"/>
<path d="M318.58 412.77C325.52 412.65 323.53 412.59 330.47 412.55C333.87 412.55 356.21 412.43 359.39 412.97C359.409 412.97 359.426 412.977 359.439 412.991C359.453 413.004 359.46 413.021 359.46 413.04C359.46 413.059 359.453 413.076 359.439 413.09C359.426 413.103 359.409 413.11 359.39 413.11C356.22 413.63 333.88 413.34 330.48 413.29C323.53 413.19 325.53 413.15 318.59 412.97C318.577 412.971 318.564 412.969 318.551 412.964C318.539 412.96 318.528 412.953 318.518 412.944C318.508 412.935 318.5 412.925 318.495 412.913C318.489 412.901 318.486 412.888 318.485 412.875C318.484 412.862 318.486 412.849 318.491 412.836C318.495 412.824 318.502 412.813 318.511 412.803C318.52 412.793 318.53 412.785 318.542 412.78C318.554 412.774 318.567 412.771 318.58 412.77V412.77Z" fill="#37474F"/>
<path d="M344.56 203.87C345.4 229.23 346.29 254.6 347.42 279.96C348.55 305.32 350.09 330.83 352.22 356.21C353.41 370.39 354.53 390.34 356.06 404.49C356.06 404.58 355.93 404.62 355.91 404.49C352.6 379.33 350.76 348.21 349.13 322.89C347.5 297.57 346.4 272.21 345.54 246.89C345.05 232.55 344.67 218.2 344.25 203.89C344.24 203.65 344.56 203.66 344.56 203.87Z" fill="#37474F"/>
<path d="M300.18 232.76C304.704 234.645 309.054 236.924 313.18 239.57C313.214 239.588 313.239 239.619 313.251 239.656C313.263 239.692 313.261 239.732 313.244 239.767C313.227 239.802 313.198 239.829 313.162 239.842C313.125 239.856 313.085 239.855 313.05 239.84C308.66 237.7 304.18 235.65 299.92 233.28C299.851 233.246 299.799 233.185 299.774 233.112C299.75 233.039 299.756 232.959 299.79 232.89C299.824 232.821 299.885 232.769 299.958 232.744C300.031 232.72 300.111 232.726 300.18 232.76V232.76Z" fill="#37474F"/>
<path d="M299.93 217.11C300.23 218.73 300.62 220.33 300.93 221.94C301.24 223.55 301.5 224.94 301.93 226.47C302.251 227.914 302.984 229.234 304.04 230.27C304.63 230.82 305.28 231.27 305.91 231.81C306.25 232.08 306.62 232.34 306.97 232.62L306.85 231.97C306.74 231.36 306.64 230.74 306.54 230.13C306.31 228.77 306.09 227.4 305.88 226.04C305.47 223.36 305.09 220.65 304.54 218.04C304.54 217.94 304.68 217.89 304.7 218.04C305.37 220.67 306.11 223.28 306.7 225.93C306.99 227.23 308 233.65 308.05 234.11C308.1 234.57 308.13 235.05 308.15 235.52C308.215 235.998 308.215 236.482 308.15 236.96C308.141 236.981 308.125 237 308.106 237.012C308.086 237.025 308.063 237.032 308.04 237.032C308.017 237.032 307.994 237.025 307.974 237.012C307.955 237 307.939 236.981 307.93 236.96V236.96C307.733 236.513 307.595 236.042 307.52 235.56C307.4 235.1 307.3 234.64 307.21 234.17C307.21 234 307.16 233.83 307.14 233.66C306.5 233.27 305.92 232.77 305.32 232.34C304.72 231.91 304.04 231.43 303.43 230.92C302.318 229.975 301.516 228.717 301.13 227.31C300.737 225.8 300.483 224.257 300.37 222.7C300.17 220.87 300.02 219.04 299.76 217.22C299.75 217.05 299.91 217 299.93 217.11Z" fill="#37474F"/>
<path d="M310.95 148.92C302.95 173.53 293.31 196.74 284.82 198.62C283.35 198.94 274.98 199.08 271.61 193.92C265.94 185.22 258.92 167.15 256.87 158.33C255.96 154.42 281.82 145.97 283.33 149.99C285.44 155.62 286.19 160.17 286.8 159.99C287.8 159.7 292.6 151.99 301.67 141.69C314.14 127.56 313.62 140.76 310.95 148.92Z" fill="#AD6359"/>
<path d="M251.22 148.34C252.83 153.78 260.48 163.63 263.22 165.29C265.96 166.95 283.15 154.52 283.22 151.21C283.29 147.9 276.49 130 271.74 126.69C266.99 123.38 249.56 142.7 251.22 148.34Z" fill="#AD6359"/>
<path d="M282.63 148C283.064 143.432 284.162 138.951 285.89 134.7C288.12 129.7 292 122.55 289.36 121.25C283.95 118.58 274.27 136.43 274.27 136.43C274.27 136.43 271.27 145 276.4 148.12C277.35 148.672 278.433 148.953 279.532 148.932C280.63 148.911 281.702 148.589 282.63 148V148Z" fill="#AD6359"/>
<path d="M266.51 145.85L259.07 143.37L266.28 121.81L275.69 124.96L266.51 145.85Z" fill="#FFC727"/>
<path d="M275.69 124.96L272.19 132.93L266.51 145.86L259.07 143.37L266.28 121.81L275.69 124.96Z" fill="#FFC727"/>
<path opacity="0.1" d="M275.69 124.96L272.19 132.93L263.53 130.03L266.28 121.81L275.69 124.96Z" fill="black"/>
<path d="M275.52 128.431L263.798 124.511L266.776 115.606L278.498 119.525L275.52 128.431Z" fill="#FF7460"/>
<path d="M287.42 118.91L278.01 116.78L282.83 102.37L291.63 106.32L287.42 118.91Z" fill="#FF7460"/>
<path d="M279.1 97.95L271.99 119.21L256.11 115.93L216.23 117.12L233.3 66.07L264.44 91.02L279.1 97.95Z" fill="#FF7460"/>
<path d="M215.361 116.98C210.809 115.458 210.96 102.739 215.698 88.5706C220.436 74.4025 227.966 64.1508 232.518 65.6729C237.07 67.195 236.919 79.9144 232.181 94.0825C227.443 108.251 219.912 118.502 215.361 116.98Z" fill="#FF7460"/>
<path opacity="0.2" d="M231.931 93.1184C227.721 105.698 221.291 114.888 217.561 113.638C213.831 112.388 214.221 101.188 218.431 88.6384C222.641 76.0884 229.061 66.8384 232.791 68.1184C236.521 69.3984 236.131 80.5384 231.931 93.1184Z" fill="black"/>
<path d="M229.31 92.63C228.75 94.3 228.15 95.92 227.52 97.45C226.569 97.8163 225.533 97.9038 224.534 97.7022C223.535 97.5006 222.614 97.0184 221.879 96.3119C221.144 95.6055 220.626 94.7043 220.385 93.7138C220.145 92.7234 220.191 91.6848 220.52 90.72L221.32 88.31C221.64 87.351 222.225 86.502 223.006 85.8604C223.787 85.2188 224.734 84.8108 225.737 84.6834C226.74 84.5559 227.758 84.7142 228.675 85.1399C229.592 85.5657 230.37 86.2416 230.92 87.09C230.473 88.89 229.937 90.7367 229.31 92.63Z" fill="#FF7460"/>
<path d="M279.84 123.14L261.65 119.02L270.96 91.16L287.97 98.81L279.84 123.14Z" fill="#FF7460"/>
<path opacity="0.2" d="M279.84 123.14L261.65 119.02L270.96 91.16L287.97 98.81L279.84 123.14Z" fill="black"/>
<path opacity="0.2" d="M234.52 70.37C235.211 72.2936 235.55 74.3261 235.52 76.37C235.537 78.4015 235.393 80.4311 235.09 82.44C234.97 83.44 234.76 84.44 234.58 85.44C234.4 86.44 234.14 87.44 233.89 88.44C233.64 89.44 233.38 90.44 233.08 91.37C232.78 92.3 232.49 93.37 232.16 94.28C230.89 98.1348 229.266 101.864 227.31 105.42C226.316 107.182 225.172 108.855 223.89 110.42C222.627 112.016 221.043 113.327 219.24 114.27C220.972 113.251 222.48 111.89 223.67 110.27C224.895 108.675 225.982 106.979 226.92 105.2C228.81 101.611 230.383 97.8631 231.62 94C232.947 90.1979 233.95 86.2907 234.62 82.32C234.973 80.3387 235.167 78.3323 235.2 76.32C235.318 74.3123 235.088 72.2993 234.52 70.37V70.37Z" fill="black"/>
<path d="M216.07 63C217.07 64 217.94 65.09 218.84 66.17C219.74 67.25 220.61 68.33 221.48 69.44C222.35 70.55 223.18 71.65 223.99 72.79L225.21 74.51C225.6 75.09 226.01 75.66 226.38 76.26C225.89 75.75 225.44 75.26 224.97 74.7L223.61 73.09C222.71 72.02 221.84 70.92 220.98 69.82C220.12 68.72 219.27 67.6 218.46 66.46C217.65 65.32 216.83 64.14 216.07 63Z" fill="#263238"/>
<path d="M217.75 104.63C216.17 104.79 214.6 104.89 213.02 104.98C211.44 105.07 209.87 105.12 208.29 105.17C206.71 105.22 205.13 105.23 203.55 105.17H201.18C200.39 105.17 199.61 105.17 198.81 105.07C199.6 104.98 200.39 104.93 201.18 104.86L203.54 104.72C205.12 104.62 206.7 104.58 208.27 104.53C209.84 104.48 211.43 104.47 213.01 104.53C214.59 104.59 216.17 104.53 217.75 104.63Z" fill="#263238"/>
<path d="M189.81 94.89C192.12 95.05 194.43 95.28 196.74 95.52C199.05 95.76 201.35 96.04 203.66 96.32C205.97 96.6 208.26 96.92 210.55 97.32L214 97.8C215.15 97.99 216.29 98.17 217.44 98.39C216.28 98.31 215.12 98.2 213.96 98.1L210.5 97.76C208.19 97.52 205.89 97.24 203.59 96.95C201.29 96.66 198.98 96.35 196.69 95.95C194.4 95.55 192.09 95.31 189.81 94.89Z" fill="#263238"/>
<path d="M203.19 61.5C204.96 63.06 206.69 64.66 208.41 66.27C210.13 67.88 211.82 69.51 213.5 71.15C215.18 72.79 216.85 74.45 218.5 76.15L221 78.67C221.8 79.53 222.62 80.38 223.41 81.25C222.52 80.48 221.66 79.68 220.78 78.89L218.19 76.49C216.47 74.88 214.79 73.25 213.1 71.6C211.41 69.95 209.75 68.3 208.1 66.6C206.45 64.9 204.78 63.24 203.19 61.5Z" fill="#263238"/>
<path d="M219.67 89.68C217.06 88.91 214.47 88.08 211.88 87.24C209.29 86.4 206.73 85.51 204.16 84.64C201.59 83.77 199.03 82.85 196.48 81.91L192.66 80.49C191.39 80 190.11 79.49 188.85 79.01C190.16 79.39 191.46 79.81 192.76 80.2L196.64 81.45C199.22 82.29 201.79 83.18 204.36 84.05C206.93 84.92 209.49 85.84 212.04 86.78C214.59 87.72 217.14 88.66 219.67 89.68Z" fill="#263238"/>
<path d="M278.06 133.25C277.3 136.16 274.31 133.6 274.31 133.6C274.31 133.6 277.73 138.33 275.78 141.02C273.83 143.71 270.39 140.39 270.14 140.16C270.32 140.41 273.34 144.84 271.14 147.35C268.94 149.86 265.85 146.11 265.66 145.86C265.76 146.15 266.94 150.01 264.8 151.53C261.14 154.14 257.86 144.34 254.54 142.86C254.54 142.86 251.38 148.2 251.25 148.34C251.12 148.48 247.94 139.08 250.19 134.71C250.508 134.07 251.036 133.557 251.685 133.257C252.334 132.957 253.066 132.887 253.76 133.06C253.76 133.06 252.36 130.19 254.06 128.17C254.93 127.17 257.37 127.6 257.37 127.6C257.099 126.941 257.012 126.221 257.118 125.517C257.223 124.813 257.518 124.15 257.97 123.6C259.26 122.23 261.51 122.92 261.51 122.92C261.51 122.92 261.57 120.21 263.34 119.24C266.88 117.22 279.69 127 278.06 133.25Z" fill="#AD6359"/>
<path d="M257.3 127.52C257.24 127.52 257.3 127.4 257.36 127.43C263.073 129.982 267.684 134.494 270.36 140.15C270.45 140.35 270.36 140.62 270.21 140.39C268.22 136.64 261.69 130.33 257.3 127.52Z" fill="#263238"/>
<path d="M265.67 146.33C263 140.82 258.83 136.73 253.95 133.14C253.88 133.14 253.95 133.01 254.02 133.03C256.89 134.14 259.76 136.75 261.83 138.97C263.773 141 265.152 143.503 265.83 146.23C265.89 146.34 265.73 146.44 265.67 146.33Z" fill="#263238"/>
<path d="M274.41 133.61C274.52 133.79 274.13 133.75 274.23 133.94C274.67 134.74 276.87 139.77 275.39 141.06C274.2 142.06 271.99 141.19 271.28 140.52L269.49 138.83L270.58 141C271.085 141.977 271.423 143.032 271.58 144.12C271.682 144.617 271.677 145.13 271.564 145.625C271.452 146.12 271.236 146.585 270.93 146.99C270.643 147.365 270.237 147.63 269.778 147.741C269.319 147.852 268.836 147.802 268.41 147.6C267.471 147.141 266.663 146.453 266.06 145.6L264.33 143.24L265.19 146.02C265.43 146.792 265.571 147.592 265.61 148.4C265.674 149.167 265.51 149.935 265.14 150.61C264.961 150.905 264.704 151.145 264.396 151.302C264.089 151.459 263.744 151.528 263.4 151.5C262.639 151.321 261.946 150.929 261.4 150.37C260.201 149.175 259.098 147.888 258.1 146.52C257.57 145.85 257.04 145.18 256.48 144.52C255.941 143.829 255.259 143.263 254.48 142.86C255.18 143.34 255.782 143.952 256.25 144.66C256.75 145.35 257.25 146.06 257.7 146.77C258.625 148.234 259.686 149.607 260.87 150.87C261.496 151.567 262.313 152.064 263.22 152.3C263.727 152.377 264.246 152.303 264.712 152.088C265.177 151.873 265.57 151.526 265.84 151.09C266.327 150.27 266.554 149.322 266.49 148.37C266.471 147.468 266.329 146.574 266.07 145.71L265.2 146.13C265.885 147.177 266.833 148.026 267.95 148.59C268.575 148.881 269.281 148.948 269.95 148.78C270.602 148.585 271.183 148.202 271.62 147.68C272.006 147.164 272.278 146.572 272.42 145.943C272.561 145.314 272.568 144.662 272.44 144.03C272.25 142.84 271.869 141.688 271.31 140.62L270.61 141.14C271.54 141.97 273.9 143.23 275.95 141.87C278.4 139.7 275.09 134.51 274.41 133.61Z" fill="#263238"/>
<path d="M274.31 133.6C274.85 133.905 275.433 134.124 276.04 134.25C276.282 134.307 276.535 134.298 276.772 134.224C277.01 134.151 277.223 134.014 277.39 133.83C277.698 133.377 277.871 132.847 277.89 132.3C277.89 131.69 277.95 131.06 277.94 130.4C278.273 130.98 278.478 131.624 278.54 132.29C278.653 133.027 278.469 133.778 278.03 134.38C277.765 134.679 277.417 134.891 277.03 134.99C276.65 135.057 276.26 135.019 275.9 134.88C275.244 134.638 274.686 134.189 274.31 133.6Z" fill="#263238"/>
<path d="M253.77 166.22L283.23 149C283.23 149 286.55 159.2 286.93 159.2C287.31 159.2 294.81 147.2 304.39 138.37C314.25 129.25 314.39 139.54 312.04 148.46C309.49 158.21 295.69 194.79 287.37 198.76C280.37 202.12 272.59 197.14 270.44 194.33C267.47 190.46 253.77 166.22 253.77 166.22Z" fill="#FF7460"/>
<path d="M258.48 169.35C259.48 168.63 268.66 163.42 270.69 162.35L276.78 159.09C278.89 157.97 280.97 156.73 283.16 155.78C283.179 155.769 283.201 155.767 283.221 155.772C283.242 155.778 283.259 155.791 283.27 155.81C283.281 155.829 283.283 155.851 283.278 155.871C283.272 155.892 283.259 155.909 283.24 155.92C281.24 157.26 279.11 158.36 277.04 159.53C274.97 160.7 272.96 161.86 270.91 163.01C268.86 164.16 259.62 169.11 258.54 169.51C258.44 169.53 258.41 169.4 258.48 169.35Z" fill="#263238"/>
<path d="M286.87 159.25C287.37 160.91 287.77 162.6 288.13 164.25C288.49 165.9 288.82 167.65 289.13 169.36C289.44 171.07 289.63 172.78 289.78 174.51C289.942 176.238 290.008 177.974 289.98 179.71C289.84 178.85 289.76 177.99 289.61 177.14C289.46 176.29 289.37 175.43 289.24 174.58L288.44 169.46L287.65 164.35L287.26 161.78C287.11 161 287 160.11 286.87 159.25Z" fill="#263238"/>
<path opacity="0.1" d="M278.21 199.22C281.212 200.235 284.488 200.067 287.37 198.75C295.69 194.75 309.49 158.2 312.04 148.45C313.85 141.52 314.18 133.77 309.62 134.92C303.46 147.43 287.57 180 278.21 199.22Z" fill="black"/>
<path d="M351.44 220.85C351.28 221.03 287.14 219.61 286.51 218.85C285.64 217.85 298.4 151.12 306.57 137.01C309.06 132.71 319.57 128.33 325.51 136.83C336.09 152 352 220.2 351.44 220.85Z" fill="#FF7460"/>
<path d="M312.35 149.8L310.07 145.25L306.37 148.83L307.41 152.12L310.87 152.38L312.35 149.8Z" fill="#263238"/>
<path d="M310.87 152.38L313.53 190.74L306.83 203.13L301.21 190.53L307.41 152.12L310.87 152.38Z" fill="#263238"/>
<path d="M330.64 140.62C343.46 155.09 365.34 193.75 360.26 199.84C348.75 213.67 327.26 226.78 318.59 230.38C314.84 231.93 298.14 205.27 301.59 202.59C305.68 199.37 332.59 185.51 332.59 184.14C332.59 182.77 325.31 164 322 149C318 130.39 325.3 134.58 330.64 140.62Z" fill="#AD6359"/>
<path d="M315.44 200C315.44 200 303.55 197.79 295.7 196.72C291.33 196.12 283.7 195.72 280.31 196.78C275.2 198.29 254.81 208 257 213C259 217.52 275.5 207 275.5 207C275.5 207 257.94 216.19 261.39 221.19C264.84 226.19 281.86 211.77 281.86 211.77C281.86 211.77 264.03 221.62 268.4 226.21C271.71 229.67 287.85 217.5 287.85 217.5C287.85 217.5 272.59 226.06 275.85 229.78C279.44 233.88 295.05 223.57 295.05 223.57C304.88 231.57 312.74 232.02 318.51 230.57C319.89 230.24 315.44 200 315.44 200Z" fill="#AD6359"/>
<path d="M280.6 203.85C267.15 209.63 262.33 216.58 262.49 216.42C266.41 212.67 273.49 208.31 275.49 207.12C277.49 205.93 278.62 205.12 280.62 203.92C280.7 203.89 280.65 203.82 280.6 203.85Z" fill="#263238"/>
<path d="M285.84 210.55C280.297 212.622 275.169 215.67 270.7 219.55C270.53 219.71 270.64 219.73 270.83 219.61C273.34 218.03 283.3 212.01 285.83 210.61L285.84 210.55Z" fill="#263238"/>
<path d="M290.74 216C286.477 217.713 282.57 220.206 279.22 223.35C279.05 223.5 279.22 223.54 279.41 223.42C283.19 220.9 286.14 218.9 290.8 216.14C290.88 216.11 290.82 216 290.74 216Z" fill="#263238"/>
<path d="M309.32 196.74L328.93 227.27C328.93 227.27 361.67 204.44 361.86 196.61C362.14 185.61 337.51 147.1 330.39 139.67C323.44 132.42 318.87 133.49 320.76 144.16C322.48 153.87 331.07 183.01 331.02 183.43C330.97 183.85 309.32 196.74 309.32 196.74Z" fill="#FF7460"/>
<path d="M334 221.25C331 216.86 319.23 198.43 317 194.25C316.85 193.96 317 193.79 317.19 194.07C326.59 207.01 331.46 216.64 334.19 221.07C334.214 221.095 334.227 221.129 334.226 221.164C334.225 221.198 334.21 221.231 334.185 221.255C334.16 221.279 334.126 221.292 334.091 221.291C334.057 221.29 334.024 221.275 334 221.25V221.25Z" fill="#263238"/>
<path d="M322.61 152.36C322.61 152.23 322.35 152.27 322.37 152.36C322.64 153.69 323.1 155.64 323.67 157.93L323.49 157.56C323.062 156.62 322.681 155.659 322.35 154.68C322.35 154.57 322.16 154.63 322.19 154.73C322.52 155.73 322.85 156.73 323.24 157.73C323.484 158.39 323.768 159.034 324.09 159.66C326.52 169.21 330.32 182.88 330.28 183.22C330.2 183.79 312.7 194.22 309.15 196.52C309.02 196.6 309.71 197.52 309.79 197.64C309.8 197.663 309.817 197.682 309.84 197.692C309.863 197.703 309.889 197.705 309.913 197.697C309.936 197.69 309.957 197.673 309.969 197.652C309.982 197.63 309.985 197.604 309.98 197.58C309.898 197.312 309.794 197.051 309.67 196.8C313.06 194.95 330.95 184.19 331.25 183.62C331.55 183.05 323.87 156.43 322.61 152.36Z" fill="#263238"/>
<path d="M349.68 211.36C348.68 211.99 339.04 219.84 338.01 220.57C337.93 220.63 338.01 220.74 338.1 220.69C342.16 218.63 348.82 212.88 349.74 211.43L349.68 211.36Z" fill="#263238"/>
<path d="M310.49 144.85C314.03 145.21 319.93 138.64 321.69 134.07C321.81 133.76 320.95 130.74 320.08 127.07C319.56 124.81 319.08 122.29 318.73 119.95L304.54 125.47C305.77 128.278 306.65 131.227 307.16 134.25C307.192 134.583 307.192 134.917 307.16 135.25V135.42C307.13 137.21 307.06 144.51 310.49 144.85Z" fill="#AD6359"/>
<path d="M308.7 135.22C308.201 135.305 307.696 135.348 307.19 135.35C307.19 135.28 307.19 135.23 307.19 135.18C307.221 134.847 307.221 134.513 307.19 134.18C306.68 131.155 305.804 128.203 304.58 125.39L318.31 120.05C318.11 123.5 316.92 133.94 308.7 135.22Z" fill="#263238"/>
<path d="M321.72 105C323.27 110.26 320.38 125.39 316.62 128.73C311.17 133.58 302.31 133.97 298.21 127.44C294.21 121.1 298.36 101.44 302.55 98.44C308.72 93.91 319.42 97.19 321.72 105Z" fill="#AD6359"/>
<path d="M308.93 114.5C308.93 114.5 309 114.57 308.99 114.61C308.77 115.61 308.69 116.82 309.55 117.33C309.55 117.33 309.55 117.4 309.55 117.39C308.43 117 308.56 115.43 308.93 114.5Z" fill="#263238"/>
<path d="M310 113.61C311.67 113.79 311.18 117.1 309.64 116.93C308.1 116.76 308.65 113.46 310 113.61Z" fill="#263238"/>
<path d="M302.73 113.61C302.73 113.61 302.64 113.61 302.64 113.69C302.52 114.69 302.21 115.88 301.23 116.08V116.14C302.39 116.15 302.78 114.6 302.73 113.61Z" fill="#263238"/>
<path d="M302 112.4C300.37 112.03 299.75 115.33 301.27 115.67C302.79 116.01 303.34 112.71 302 112.4Z" fill="#263238"/>
<path d="M311.57 112.28C311.155 112.091 310.75 111.877 310.36 111.64C309.901 111.476 309.508 111.167 309.24 110.76C309.179 110.614 309.169 110.451 309.213 110.298C309.256 110.145 309.351 110.012 309.48 109.92C309.756 109.776 310.065 109.707 310.376 109.721C310.687 109.735 310.988 109.831 311.25 110C311.835 110.263 312.302 110.733 312.56 111.32C312.613 111.457 312.624 111.607 312.592 111.75C312.56 111.893 312.487 112.024 312.382 112.127C312.276 112.229 312.143 112.298 311.999 112.325C311.855 112.352 311.705 112.337 311.57 112.28V112.28Z" fill="#263238"/>
<path d="M300.93 110.54C301.389 110.519 301.846 110.472 302.3 110.4C302.79 110.41 303.27 110.263 303.67 109.98C303.776 109.865 303.841 109.719 303.856 109.564C303.87 109.408 303.833 109.252 303.75 109.12C303.547 108.882 303.285 108.703 302.989 108.601C302.694 108.499 302.376 108.478 302.07 108.54C301.428 108.564 300.82 108.833 300.37 109.29C300.269 109.396 300.201 109.53 300.176 109.675C300.152 109.82 300.17 109.969 300.23 110.103C300.291 110.237 300.389 110.35 300.514 110.428C300.638 110.506 300.783 110.545 300.93 110.54V110.54Z" fill="#263238"/>
<path d="M304.6 121.51C304.95 122.138 305.456 122.666 306.07 123.04C306.41 123.232 306.802 123.313 307.19 123.27C308.05 123.18 308.19 122.43 308.12 121.76C308.087 121.419 308.013 121.083 307.9 120.76C306.907 121.353 305.752 121.616 304.6 121.51V121.51Z" fill="#263238"/>
<path d="M306.07 123C306.41 123.192 306.802 123.273 307.19 123.23C308.05 123.14 308.19 122.39 308.12 121.72C307.685 121.681 307.25 121.784 306.88 122.015C306.51 122.246 306.225 122.592 306.07 123Z" fill="#FF98B9"/>
<path d="M320.26 118C320.26 118 325.2 109.38 324.6 104.48C324.33 102.27 321.27 100.85 321.27 100.85C321.48 99.9401 321.432 98.9894 321.129 98.1057C320.827 97.2219 320.284 96.4405 319.56 95.85C316.88 93.44 310.56 94.15 310.56 94.15C310.56 94.15 306.3 88.29 300.56 90.8C294.82 93.31 298.74 99.8 298.74 99.8C298.74 99.8 296.67 102.88 301.96 105.13C307.1 107.32 317.45 104.79 317.45 104.79C317.054 108.381 317.195 112.011 317.87 115.56C318.008 116.146 318.303 116.683 318.725 117.113C319.146 117.543 319.677 117.85 320.26 118V118Z" fill="#263238"/>
<path d="M309.53 94.25C310.817 93.6883 312.206 93.3989 313.61 93.4C314.865 93.3518 316.12 93.5175 317.32 93.89C318.398 94.1665 319.38 94.7316 320.16 95.5245C320.941 96.3174 321.49 97.3081 321.75 98.39C321.847 98.9537 321.832 99.5312 321.705 100.089C321.578 100.647 321.342 101.174 321.01 101.64C321.01 101.64 320.93 101.64 321.01 101.64C322.31 99.93 321.54 97.35 320.12 95.99C318.377 94.5515 316.169 93.7977 313.91 93.87C312.463 93.8813 311.022 94.0694 309.62 94.43C309.596 94.4419 309.568 94.4439 309.543 94.4355C309.518 94.427 309.497 94.4089 309.485 94.385C309.473 94.3611 309.471 94.3335 309.48 94.3082C309.488 94.2829 309.506 94.2619 309.53 94.25V94.25Z" fill="#263238"/>
<path d="M296.39 93.71C296.642 92.9295 297.082 92.2231 297.672 91.6528C298.261 91.0826 298.982 90.6661 299.77 90.44C301.569 89.8491 303.514 89.8702 305.3 90.5C307.091 91.1527 308.675 92.2711 309.89 93.74C309.89 93.74 309.89 93.82 309.83 93.79C308.737 92.4975 307.316 91.5237 305.716 90.9711C304.117 90.4185 302.398 90.3075 300.74 90.65C299.968 90.7826 299.236 91.0893 298.6 91.5467C297.965 92.0041 297.441 92.6003 297.07 93.29C296.788 93.9843 296.662 94.7323 296.702 95.4807C296.742 96.2291 296.946 96.9595 297.3 97.62C298.213 99.1771 299.543 100.448 301.14 101.29C301.14 101.29 301.14 101.36 301.14 101.29C299.633 100.592 298.324 99.5304 297.33 98.2C296.866 97.5601 296.542 96.8293 296.38 96.0555C296.218 95.2817 296.221 94.4824 296.39 93.71V93.71Z" fill="#263238"/>
<path d="M300.64 105.46C302.987 106.345 305.497 106.716 308 106.55C310.604 106.413 313.185 105.997 315.7 105.31C317.16 104.92 318.61 104.47 320.05 104C320.05 104 320.12 104 320.05 104.07C317.539 105.219 314.915 106.1 312.22 106.7C309.711 107.231 307.123 107.269 304.6 106.81C303.216 106.55 301.872 106.113 300.6 105.51C300.6 105.51 300.61 105.44 300.64 105.46Z" fill="#263238"/>
<path d="M318.38 117.27C318.38 117.27 321.94 112.47 324.13 113.76C326.32 115.05 323.54 122.07 320.9 122.96C320.57 123.1 320.215 123.171 319.857 123.169C319.499 123.167 319.145 123.092 318.816 122.949C318.488 122.806 318.192 122.597 317.947 122.336C317.702 122.075 317.512 121.767 317.39 121.43L318.38 117.27Z" fill="#AD6359"/>
<path d="M323.28 115.75V115.82C321.43 116.51 320.42 118.18 319.7 119.92C319.811 119.739 319.96 119.585 320.136 119.468C320.312 119.351 320.512 119.273 320.721 119.241C320.931 119.209 321.144 119.222 321.348 119.281C321.552 119.339 321.74 119.441 321.9 119.58C321.95 119.58 321.9 119.69 321.9 119.68C321.581 119.567 321.235 119.555 320.909 119.646C320.583 119.738 320.294 119.928 320.08 120.19C319.731 120.634 319.43 121.114 319.18 121.62C319.09 121.78 318.8 121.69 318.87 121.5C318.86 119.13 320.77 115.91 323.28 115.75Z" fill="#263238"/>
<path d="M307.14 134.46L310.51 143.24L321.51 132.36L324.51 135.95C324.51 135.95 313.63 153.34 313.57 152.55L310.09 144.97L304.82 150.12L305.48 137L307.14 134.46Z" fill="#FF7460"/>
<path d="M304.8 143.61C304.97 141.44 305.09 139.26 305.36 137.1C305.36 137.03 305.5 137 305.51 137.1C305.91 139.2 305.2 147.47 305.18 149.46C305.4 149.24 310.07 144.93 310.11 145C310.87 146.2 313.43 151.72 313.6 152.23C315.32 149.46 322.6 138.58 324.6 135.98C324.613 135.969 324.629 135.962 324.646 135.961C324.663 135.959 324.68 135.963 324.694 135.972C324.709 135.981 324.72 135.995 324.727 136.01C324.733 136.026 324.734 136.043 324.73 136.06C323.2 138.98 313.78 153.34 313.65 153.3C312.3 150.698 311.085 148.027 310.01 145.3C309.21 146.25 304.5 151.12 304.49 150.79C304.462 148.393 304.565 145.996 304.8 143.61V143.61Z" fill="#263238"/>
<path d="M376.51 86.25C376.523 89.9702 375.498 93.6203 373.551 96.79C371.603 99.9597 368.81 102.523 365.486 104.193C362.161 105.863 358.437 106.572 354.731 106.241C351.026 105.91 347.486 104.552 344.51 102.32L334.7 104.83L338.78 95.69C337.362 93.0092 336.573 90.0411 336.471 87.0103C336.37 83.9794 336.959 80.9652 338.194 78.1955C339.429 75.4259 341.278 72.9733 343.6 71.0234C345.923 69.0734 348.658 67.6772 351.6 66.9402C354.541 66.2032 357.612 66.1449 360.58 66.7695C363.547 67.3941 366.334 68.6854 368.729 70.5456C371.124 72.4059 373.064 74.7864 374.404 77.5071C375.743 80.2278 376.446 83.2175 376.46 86.25H376.51Z" fill="white"/>
<path d="M376.51 86.25C376.49 89.9492 375.452 93.5715 373.51 96.72C373.021 97.4974 372.487 98.2454 371.91 98.96C371.312 99.6656 370.671 100.334 369.99 100.96C368.636 102.199 367.11 103.237 365.46 104.04C363.814 104.848 362.064 105.423 360.26 105.75C359.362 105.913 358.453 106.007 357.54 106.03C356.63 106.088 355.717 106.072 354.81 105.98C351.177 105.631 347.713 104.273 344.81 102.06L344.68 101.96H344.51L334.68 104.38L335.19 104.99L339.31 95.87L339.41 95.66L339.3 95.45C337.902 92.8289 337.115 89.9252 336.999 86.9568C336.883 83.9884 337.441 81.0323 338.63 78.31C339.847 75.5894 341.638 73.164 343.88 71.2C346.148 69.2475 348.833 67.8415 351.73 67.09C354.638 66.329 357.68 66.2333 360.63 66.81C365.116 67.7142 369.152 70.1416 372.053 73.6808C374.955 77.2201 376.543 81.6535 376.55 86.23L376.51 86.25ZM376.51 86.25C376.513 83.2015 375.824 80.1921 374.496 77.4484C373.167 74.7046 371.233 72.2981 368.84 70.41C365.183 67.5113 360.637 65.9633 355.971 66.0273C351.305 66.0914 346.803 67.7637 343.227 70.7617C339.651 73.7598 337.219 77.9001 336.341 82.4835C335.463 87.067 336.194 91.8129 338.41 95.92V95.5L334.41 104.65L334.04 105.49L334.92 105.25L344.71 102.67L344.41 102.61C347.451 104.825 351.049 106.147 354.8 106.43C355.729 106.5 356.661 106.5 357.59 106.43C358.52 106.379 359.446 106.262 360.36 106.08C364.008 105.341 367.382 103.611 370.11 101.08C370.78 100.424 371.411 99.7294 372 99C372.574 98.275 373.105 97.517 373.59 96.73C375.506 93.5707 376.516 89.9451 376.51 86.25V86.25Z" fill="#263238"/>
<path d="M352 80.86C352 81.7544 352.265 82.6287 352.762 83.3722C353.26 84.1158 353.966 84.6951 354.793 85.0369C355.619 85.3787 356.528 85.4676 357.405 85.2924C358.283 85.1172 359.088 84.6857 359.72 84.0526C360.351 83.4194 360.781 82.6131 360.954 81.7357C361.128 80.8582 361.037 79.9491 360.693 79.1233C360.349 78.2976 359.769 77.5924 359.024 77.0969C358.279 76.6014 357.404 76.338 356.51 76.34C355.917 76.34 355.33 76.457 354.782 76.6843C354.234 76.9115 353.736 77.2446 353.317 77.6645C352.898 78.0843 352.566 78.5827 352.34 79.131C352.114 79.6794 351.999 80.2669 352 80.86V80.86Z" fill="#455A64"/>
<path d="M348.69 93.3V95H364.3V93.3C364.228 91.2783 363.374 89.3636 361.918 87.959C360.462 86.5544 358.518 85.7694 356.495 85.7694C354.472 85.7694 352.528 86.5544 351.072 87.959C349.616 89.3636 348.762 91.2783 348.69 93.3V93.3Z" fill="#455A64"/>
<path d="M144.39 323H205.39L203.48 284.42H167.53L144.39 323ZM200.16 318H153.23L170.38 289.4H198.74L200.16 318Z" fill="#FFC727"/>
<path opacity="0.5" d="M144.39 323H205.39L203.48 284.42H167.53L144.39 323ZM200.16 318H153.23L170.38 289.4H198.74L200.16 318Z" fill="black"/>
<path d="M147.72 323H208.72L206.81 284.42H170.86L147.72 323ZM203.49 318H156.56L173.71 289.4H202.08L203.49 318Z" fill="#FFC727"/>
<path opacity="0.3" d="M147.72 323H208.72L206.81 284.42H170.86L147.72 323ZM203.49 318H156.56L173.71 289.4H202.08L203.49 318Z" fill="black"/>
<path d="M222.06 329.89H213.71V323.96H222.06V329.89Z" fill="#A6A6A6"/>
<path d="M225.43 383.08H210.33V329.89H225.43V383.08Z" fill="#C7C7C7"/>
<path d="M210.34 362.44H203.7V359.64H210.34V362.44Z" fill="#A6A6A6"/>
<path d="M203.71 363.92H190.21V358.16H203.71V363.92Z" fill="#C7C7C7"/>
<path d="M227.39 400.63H207.93V383.08H227.39V400.63Z" fill="#C7C7C7"/>
<path d="M219.86 441.06H215.8L213.53 390.76H222.13L219.86 441.06Z" fill="#A6A6A6"/>
<path d="M164.63 432.36L161.03 429.6L207.92 388.16V400.63L164.63 432.36Z" fill="#A6A6A6"/>
<path d="M270.67 432.36L274.28 429.6L227.38 388.16V400.63L270.67 432.36Z" fill="#A6A6A6"/>
<path d="M225.43 383.07H210.33V378.47H225.43V383.07Z" fill="#A6A6A6"/>
<path d="M164.47 450.36C159.024 450.36 154.61 445.946 154.61 440.5C154.61 435.054 159.024 430.64 164.47 430.64C169.916 430.64 174.33 435.054 174.33 440.5C174.33 445.946 169.916 450.36 164.47 450.36Z" fill="#263238"/>
<path d="M169.11 440.5C169.11 441.418 168.838 442.315 168.328 443.078C167.818 443.841 167.093 444.436 166.246 444.787C165.398 445.138 164.465 445.23 163.565 445.051C162.665 444.872 161.838 444.43 161.189 443.781C160.54 443.132 160.098 442.305 159.919 441.405C159.74 440.505 159.832 439.572 160.183 438.724C160.534 437.876 161.129 437.152 161.892 436.642C162.655 436.132 163.552 435.86 164.47 435.86C165.08 435.859 165.684 435.978 166.247 436.211C166.811 436.443 167.323 436.785 167.754 437.216C168.185 437.647 168.527 438.159 168.759 438.723C168.992 439.286 169.111 439.89 169.11 440.5Z" fill="white"/>
<path d="M270.88 450.36C265.434 450.36 261.02 445.946 261.02 440.5C261.02 435.054 265.434 430.64 270.88 430.64C276.326 430.64 280.74 435.054 280.74 440.5C280.74 445.946 276.326 450.36 270.88 450.36Z" fill="#263238"/>
<path d="M275.52 440.5C275.52 441.418 275.248 442.315 274.738 443.078C274.228 443.841 273.504 444.436 272.656 444.787C271.808 445.138 270.875 445.23 269.975 445.051C269.075 444.872 268.248 444.43 267.599 443.781C266.95 443.132 266.508 442.305 266.329 441.405C266.15 440.505 266.242 439.572 266.593 438.724C266.944 437.876 267.539 437.152 268.302 436.642C269.065 436.132 269.962 435.86 270.88 435.86C271.49 435.859 272.094 435.978 272.657 436.211C273.221 436.443 273.733 436.785 274.164 437.216C274.595 437.647 274.937 438.159 275.169 438.723C275.402 439.286 275.521 439.89 275.52 440.5Z" fill="white"/>
<path d="M220.81 454.18H214.62V437.96H220.81V454.18Z" fill="#263238"/>
<path d="M279.89 323.95H143.66V313.6H194.66L211.8 209.88H274.69L279.89 323.95Z" fill="#FF7460"/>
<path opacity="0.1" d="M197 313.72H272.94L268.41 210H214.14L197 313.72Z" fill="black"/>
<path opacity="0.3" d="M143.66 313.6H223.02V323.96H143.66V313.6Z" fill="white"/>
<path d="M217.31 323H278.31L276.41 284.42H240.41L217.31 323ZM273.07 318H226.14L243.29 289.4H271.66L273.07 318Z" fill="#FFC727"/>
<path opacity="0.5" d="M217.31 323H278.31L276.41 284.42H240.41L217.31 323ZM273.07 318H226.14L243.29 289.4H271.66L273.07 318Z" fill="black"/>
<path d="M220.64 323H281.64L279.74 284.42H243.74L220.64 323ZM276.4 318H229.47L246.62 289.4H275L276.4 318Z" fill="#FFC727"/>
<path opacity="0.3" d="M220.64 323H281.64L279.74 284.42H243.74L220.64 323ZM276.4 318H229.47L246.62 289.4H275L276.4 318Z" fill="black"/>
<path d="M200.721 236.561L283.517 252.415L278.027 281.084L195.231 265.23L200.721 236.561Z" fill="#455A64"/>
<path d="M209.421 258.864C209.462 258.838 209.506 258.818 209.551 258.804C209.551 258.804 209.551 258.804 209.551 258.754C209.589 258.733 209.623 258.706 209.651 258.674C209.651 258.674 209.651 258.674 209.651 258.674C209.676 258.63 209.711 258.593 209.751 258.564L215.521 249.874C215.654 249.675 215.702 249.431 215.655 249.197C215.608 248.963 215.47 248.756 215.271 248.624C215.073 248.491 214.829 248.443 214.595 248.49C214.36 248.537 214.154 248.675 214.021 248.874L209.431 255.754L207.791 247.684C207.733 247.457 207.59 247.261 207.391 247.138C207.193 247.014 206.954 246.971 206.725 247.019C206.496 247.067 206.294 247.201 206.161 247.393C206.028 247.586 205.974 247.823 206.011 248.054L208.201 258.254C208.192 258.303 208.192 258.354 208.201 258.404V258.404C208.201 258.404 208.201 258.484 208.261 258.524C208.257 258.54 208.257 258.557 208.261 258.574C208.285 258.609 208.312 258.643 208.341 258.674V258.674L208.451 258.784C208.496 258.793 208.537 258.814 208.571 258.844V258.844H208.731H208.891H209.061L209.231 258.774L209.421 258.864Z" fill="white"/>
<path d="M218.892 257.295L222.822 258.045L223.212 260.305C223.25 260.483 223.339 260.646 223.469 260.774C223.599 260.902 223.763 260.989 223.942 261.025C224.048 261.044 224.157 261.044 224.262 261.025C224.503 260.983 224.717 260.848 224.859 260.65C225.001 260.452 225.06 260.206 225.022 259.965L223.272 249.755C223.235 249.572 223.144 249.404 223.01 249.274C222.876 249.144 222.706 249.057 222.522 249.025C222.335 248.981 222.138 248.996 221.959 249.067C221.78 249.139 221.628 249.264 221.522 249.425L216.132 258.265C216.007 258.475 215.968 258.726 216.027 258.963C216.085 259.201 216.234 259.406 216.442 259.535C216.53 259.591 216.629 259.628 216.732 259.645C216.912 259.682 217.099 259.662 217.267 259.589C217.436 259.515 217.577 259.392 217.672 259.235L218.892 257.295ZM219.892 255.645L221.892 252.415L222.542 256.145L219.892 255.645Z" fill="white"/>
<path d="M228.359 256.893C228.503 255.309 229.264 253.845 230.479 252.818C231.694 251.791 233.264 251.283 234.85 251.406C236.23 251.502 237.538 252.059 238.565 252.988C238.733 253.161 238.829 253.392 238.833 253.633C238.837 253.875 238.749 254.109 238.587 254.288C238.425 254.467 238.2 254.577 237.96 254.597C237.719 254.616 237.48 254.543 237.291 254.392C236.591 253.733 235.681 253.342 234.721 253.288C233.621 253.21 232.532 253.55 231.673 254.24C230.868 254.932 230.363 255.91 230.267 256.967C230.225 257.499 230.29 258.034 230.458 258.541C230.626 259.048 230.894 259.516 231.246 259.918C231.988 260.73 233.011 261.231 234.108 261.319C235.053 261.434 236.009 261.218 236.814 260.709C237.026 260.59 237.275 260.553 237.512 260.605C237.75 260.656 237.961 260.793 238.106 260.988C238.228 261.199 238.269 261.447 238.221 261.686C238.173 261.925 238.04 262.138 237.846 262.286C236.696 263.046 235.327 263.403 233.953 263.298C233.164 263.246 232.394 263.039 231.685 262.689C230.977 262.339 230.345 261.852 229.825 261.257C229.306 260.662 228.909 259.97 228.657 259.221C228.406 258.472 228.304 257.681 228.359 256.893V256.893Z" fill="white"/>
<path d="M243.868 262.272L247.798 263.032L248.188 265.282C248.225 265.462 248.314 265.627 248.444 265.756C248.573 265.886 248.738 265.975 248.918 266.012C249.024 266.027 249.132 266.027 249.238 266.012C249.479 265.968 249.692 265.831 249.833 265.631C249.973 265.431 250.029 265.183 249.988 264.942L248.238 254.742C248.197 254.562 248.105 254.397 247.973 254.268C247.84 254.139 247.673 254.052 247.491 254.017C247.309 253.982 247.122 254.001 246.951 254.071C246.78 254.141 246.633 254.26 246.528 254.412L241.128 263.252C241.005 263.461 240.969 263.71 241.027 263.945C241.085 264.18 241.232 264.384 241.438 264.512C241.531 264.567 241.632 264.604 241.738 264.622C241.916 264.66 242.102 264.641 242.269 264.567C242.436 264.493 242.575 264.369 242.668 264.212L243.868 262.272ZM244.868 260.622L246.868 257.402L247.508 261.122L244.868 260.622Z" fill="white"/>
<path d="M254.984 266.527C254.992 266.661 254.97 266.796 254.918 266.921C254.867 267.046 254.788 267.158 254.688 267.248C254.587 267.339 254.468 267.405 254.338 267.443C254.209 267.481 254.072 267.489 253.939 267.467C253.806 267.445 253.679 267.393 253.569 267.316C253.458 267.238 253.367 267.137 253.301 267.019C253.235 266.901 253.196 266.77 253.188 266.635C253.179 266.501 253.201 266.366 253.252 266.241L254.643 256.781C254.657 256.636 254.706 256.496 254.787 256.375C254.869 256.253 254.979 256.154 255.108 256.086C255.323 255.985 255.569 255.973 255.793 256.051C256.017 256.129 256.201 256.291 256.307 256.504L260.489 264.559L261.482 257.82C261.535 257.602 261.667 257.411 261.853 257.285C262.038 257.159 262.265 257.107 262.487 257.14C262.709 257.172 262.911 257.286 263.053 257.46C263.196 257.634 263.268 257.854 263.256 258.079L261.865 267.538C261.829 267.775 261.7 267.988 261.508 268.132C261.315 268.275 261.074 268.336 260.836 268.302C260.709 268.281 260.588 268.233 260.482 268.161C260.375 268.089 260.286 267.995 260.219 267.885C260.191 267.85 260.17 267.81 260.154 267.767L255.981 259.779L254.984 266.527Z" fill="white"/>
<path d="M274.217 261.622L271.647 261.132L270.001 269.773C269.989 269.899 269.95 270.021 269.888 270.131C269.827 270.242 269.742 270.338 269.641 270.414C269.54 270.49 269.424 270.544 269.3 270.573C269.177 270.601 269.049 270.604 268.925 270.58C268.8 270.556 268.682 270.507 268.578 270.435C268.474 270.363 268.386 270.27 268.319 270.162C268.253 270.055 268.21 269.934 268.193 269.809C268.176 269.683 268.185 269.556 268.221 269.434L269.866 260.793L267.306 260.306C267.189 260.283 267.077 260.237 266.977 260.171C266.878 260.105 266.792 260.02 266.726 259.921C266.659 259.821 266.613 259.71 266.589 259.593C266.566 259.476 266.566 259.355 266.589 259.238C266.609 259.12 266.653 259.007 266.718 258.907C266.782 258.806 266.867 258.719 266.966 258.652C267.064 258.585 267.176 258.538 267.293 258.515C267.411 258.492 267.531 258.492 267.648 258.517L274.55 259.829C274.668 259.85 274.78 259.893 274.881 259.958C274.982 260.023 275.068 260.107 275.135 260.206C275.203 260.305 275.249 260.416 275.272 260.534C275.296 260.651 275.295 260.772 275.271 260.889C275.225 261.124 275.09 261.333 274.893 261.47C274.696 261.607 274.453 261.662 274.217 261.622V261.622Z" fill="white"/>
<path d="M200.73 236.56C205.397 234.627 210.02 232.597 214.6 230.47C219.19 228.37 223.74 226.18 228.27 223.97C232.8 221.76 237.27 219.48 241.78 217.13C246.29 214.78 250.7 212.39 255.09 209.88C250.423 211.813 245.797 213.84 241.21 215.96C236.62 218.07 232.08 220.26 227.54 222.47C223 224.68 218.54 226.97 214.03 229.31C209.52 231.65 205.12 234.05 200.73 236.56Z" fill="#263238"/>
<path d="M275.87 235.66C276.87 238.6 278.07 241.43 279.33 244.23C280.586 247.028 281.988 249.759 283.53 252.41C282.519 249.497 281.361 246.636 280.06 243.84C278.804 241.044 277.405 238.313 275.87 235.66V235.66Z" fill="#263238"/>
<path d="M84.72 247C84.72 247 105.2 244.13 100.41 219.41C100.41 219.41 77.53 224.55 84.72 247Z" fill="#FF7460"/>
<path opacity="0.1" d="M85.3343 245C85.3343 245 104.878 242.295 100.307 219C100.307 219 78.4729 223.844 85.3343 245Z" fill="black"/>
<path d="M85.76 241.84C86.16 240.59 86.63 239.36 87.15 238.15C87.15 237.99 87.15 237.84 87.2 237.68L87.29 236.68L87.44 234.47C87.52 232.99 87.62 231.52 87.64 230.04C87.64 230.024 87.6463 230.009 87.6576 229.998C87.6688 229.986 87.6841 229.98 87.7 229.98C87.7159 229.98 87.7312 229.986 87.7424 229.998C87.7537 230.009 87.76 230.024 87.76 230.04C87.76 231.52 87.76 233.04 87.76 234.48C87.76 235.22 87.69 235.95 87.64 236.69V237.18C88.7901 234.726 90.1625 232.383 91.74 230.18C92.45 229.18 93.19 228.25 93.98 227.34C94.77 226.43 95.66 225.52 96.48 224.6C96.4919 224.588 96.5081 224.581 96.525 224.581C96.5419 224.581 96.5581 224.588 96.57 224.6C96.5819 224.612 96.5887 224.628 96.5887 224.645C96.5887 224.662 96.5819 224.678 96.57 224.69C95.1026 226.315 93.784 228.069 92.63 229.93C92 230.87 91.42 231.84 90.86 232.82L91.05 232.75L91.78 232.45L93.45 231.82L96.74 230.6C96.81 230.6 96.85 230.69 96.79 230.71C95.7 231.15 94.62 231.6 93.55 232.07L91.96 232.75L91.16 233.08C90.9867 233.161 90.8058 233.225 90.62 233.27C90.2 234.01 89.79 234.76 89.42 235.52C88.466 237.433 87.6311 239.404 86.92 241.42L86.77 241.84C87.3088 241.528 87.8704 241.257 88.45 241.03L90.57 240.03C92 239.37 93.43 238.71 94.8 237.93C94.87 237.93 94.94 238 94.86 238.04C93.46 238.81 92.08 239.62 90.67 240.39C89.97 240.77 89.26 241.14 88.54 241.49C87.9417 241.848 87.2902 242.108 86.61 242.26C85.9251 244.134 85.475 246.085 85.27 248.07C85.04 250.87 85.07 253.68 85 256.49H84.93C84.72 253.95 84.61 251.39 84.6 248.84C84.6075 246.459 84.9992 244.096 85.76 241.84V241.84Z" fill="#263238"/>
<path d="M88.91 227.3C89.1065 228.744 89.1734 230.204 89.11 231.66H89.05C88.97 230.21 88.95 228.77 88.79 227.33C88.78 227.25 88.9 227.22 88.91 227.3Z" fill="#263238"/>
<path d="M94.76 228.54C95.6777 228.188 96.5613 227.753 97.4 227.24C97.46 227.24 97.52 227.31 97.46 227.35C96.6409 227.902 95.7445 228.33 94.8 228.62C94.75 228.64 94.71 228.56 94.76 228.54Z" fill="#263238"/>
<path d="M84.07 286.24C84.07 283.97 84.13 281.71 84.15 279.45C84.2 271.93 84.26 264.45 84.39 256.91C84.5034 250.91 84.6433 244.943 84.81 239.01C84.81 239.01 84.81 239.01 84.86 238.94V234.05C84.86 234.05 84.91 233.99 84.95 233.99C84.99 233.99 85.05 233.99 85.05 234.05V238.95C85.05 238.95 85.1 238.95 85.1 239.02C85.4 249.64 85.67 260.25 85.73 270.87C85.73 273.03 85.73 275.19 85.73 277.35C85.81 284.27 85.8367 291.193 85.81 298.12V301.42C85.81 307.76 85.74 314.09 85.74 320.42C85.74 320.76 85.36 320.93 84.96 320.94C84.56 320.95 84.01 320.78 84.01 320.39C84.01 313.39 83.96 306.39 83.96 299.39C84 295 84 290.64 84.07 286.24Z" fill="#263238"/>
<path d="M92.62 279.36C92.62 279.36 102.47 272.07 111.81 277C121.15 281.93 122.63 300.93 122.63 300.93C122.63 300.93 108.9 302.93 100.26 294.67C91.93 286.74 92.62 279.36 92.62 279.36Z" fill="#FF7460"/>
<path d="M89.93 279.81C91.7429 279.095 93.7048 278.841 95.64 279.07C96.0398 279 96.4442 278.96 96.85 278.95L98.23 278.85C99.23 278.77 100.15 278.71 101.11 278.64C103.05 278.5 105 278.38 106.94 278.18C107 278.18 107.02 278.3 106.94 278.31C105.02 278.55 103.11 278.83 101.18 279.02C100.18 279.12 99.18 279.22 98.18 279.29L97.46 279.36L98.34 279.58C99.8846 280.029 101.379 280.636 102.8 281.39C103.57 281.53 104.35 281.75 105.11 281.93C106.33 282.22 107.54 282.53 108.75 282.85C111.14 283.47 113.51 284.18 115.88 284.85C115.96 284.85 115.88 284.99 115.88 284.97C113.51 284.39 111.13 283.85 108.75 283.29L105.29 282.46L104.38 282.25C107.029 283.885 109.394 285.943 111.38 288.34C113.303 290.693 114.938 293.268 116.25 296.01C116.25 296.08 116.18 296.15 116.14 296.08C114.526 293.258 112.549 290.659 110.26 288.35C110.26 288.48 110.34 288.61 110.39 288.74L110.93 290.48C111.3 291.64 111.67 292.8 112.01 293.97C112.01 294.04 111.92 294.07 111.89 293.97C111.483 292.843 111.083 291.713 110.69 290.58C110.49 290.03 110.3 289.47 110.1 288.92C110 288.63 109.9 288.34 109.81 288.05C109.81 287.96 109.74 287.88 109.71 287.79C108.614 286.715 107.448 285.712 106.22 284.79C104.595 283.597 102.84 282.59 100.99 281.79C100.99 281.97 101.06 282.14 101.09 282.3C101.19 282.75 101.29 283.2 101.38 283.65C101.57 284.58 101.75 285.51 101.94 286.45C102.31 288.35 102.54 290.28 102.89 292.19C102.89 292.206 102.884 292.221 102.872 292.232C102.861 292.244 102.846 292.25 102.83 292.25C102.814 292.25 102.799 292.244 102.788 292.232C102.776 292.221 102.77 292.206 102.77 292.19C102.33 290.27 101.77 288.39 101.33 286.47C101.12 285.47 100.9 284.55 100.7 283.58L100.43 282.23C100.38 281.98 100.32 281.73 100.29 281.48C100.11 281.41 99.94 281.32 99.76 281.26C97.1795 280.147 94.3452 279.757 91.56 280.13C90.259 280.375 89.0384 280.936 88.0059 281.765C86.9734 282.593 86.1608 283.663 85.64 284.88C85.55 285.1 85.21 284.96 85.26 284.74C85.6036 283.613 86.2042 282.581 87.0146 281.725C87.825 280.87 88.823 280.214 89.93 279.81V279.81Z" fill="#263238"/>
<path d="M114.53 291.1C115.79 291.74 117 292.46 118.31 292.98C118.4 292.98 118.31 293.13 118.26 293.09C116.975 292.507 115.72 291.86 114.5 291.15C114.5 291.15 114.5 291.08 114.53 291.1Z" fill="#263238"/>
<path d="M90.4 266C90.4 266 102.4 266.77 108.04 258.83C113.68 250.89 112.38 239.56 112.38 239.56C112.38 239.56 99.74 241.1 94.72 246.8C89.7 252.5 90.4 266 90.4 266Z" fill="#FF7460"/>
<path d="M84.75 277.84C85.17 276.55 85.69 275.28 86.17 274.01C86.65 272.74 87.17 271.6 87.67 270.41C88.7449 267.983 89.95 265.617 91.28 263.32C92.13 261.85 93.04 260.43 93.98 259.03C93.98 258.82 94.04 258.61 94.07 258.39C94.1 258.17 94.18 257.65 94.24 257.28C94.36 256.51 94.49 255.75 94.62 254.99C94.9 253.33 95.24 251.68 95.5 249.99C95.5 249.91 95.64 249.91 95.63 249.99C95.38 251.63 95.22 253.28 94.99 254.93C94.88 255.73 94.77 256.54 94.65 257.35C94.65 257.64 94.56 257.93 94.51 258.22C96.3608 255.534 98.3641 252.957 100.51 250.5C100.79 250.17 101.09 249.84 101.38 249.5C101.414 249.404 101.454 249.311 101.5 249.22C101.58 248.99 101.67 248.76 101.76 248.53C101.93 248.05 102.11 247.53 102.28 247.1C102.62 246.1 102.92 245.2 103.18 244.23C103.18 244.16 103.31 244.23 103.29 244.23C103.05 245.23 102.8 246.23 102.51 247.23C102.37 247.7 102.21 248.17 102.05 248.63L101.96 248.86C103.5 247.18 105.1 245.57 106.72 243.97C106.732 243.958 106.748 243.951 106.765 243.951C106.782 243.951 106.798 243.958 106.81 243.97C106.822 243.982 106.829 243.998 106.829 244.015C106.829 244.032 106.822 244.048 106.81 244.06C103.702 247.318 100.85 250.812 98.28 254.51C98.5719 254.416 98.8691 254.339 99.17 254.28C100.1 254.1 101.03 253.97 101.97 253.85C103.97 253.6 105.89 253.36 107.84 253.05C107.856 253.05 107.871 253.056 107.882 253.068C107.894 253.079 107.9 253.094 107.9 253.11C107.9 253.126 107.894 253.141 107.882 253.152C107.871 253.164 107.856 253.17 107.84 253.17C105.98 253.54 104.13 253.96 102.27 254.38C101.4 254.58 100.52 254.75 99.64 254.93C98.9245 255.084 98.2196 255.285 97.53 255.53C97.34 255.81 97.13 256.08 96.94 256.36C96.06 257.653 95.2067 258.96 94.38 260.28L95.61 260.04C96.54 259.86 97.47 259.69 98.41 259.54C100.24 259.24 102.08 258.92 103.89 258.54C103.906 258.54 103.921 258.546 103.932 258.558C103.944 258.569 103.95 258.584 103.95 258.6C103.95 258.616 103.944 258.631 103.932 258.642C103.921 258.654 103.906 258.66 103.89 258.66C102.05 259.09 100.23 259.59 98.4 260.08C97.52 260.31 96.63 260.53 95.74 260.73L94.4 261.01C94.2226 261.056 94.0421 261.089 93.86 261.11C92.11 263.96 90.45 266.88 88.93 269.85C88.26 271.16 87.61 272.49 86.98 273.85C86.35 275.21 85.79 276.61 85.2 278C85.1 278.25 84.66 278.14 84.75 277.84Z" fill="#263238"/>
<path d="M97.07 250.18C97.3 249.03 97.55 247.88 97.8 246.74C97.8 246.66 97.94 246.74 97.92 246.74C97.69 247.86 97.47 248.99 97.27 250.13C97.07 251.27 96.9 252.4 96.59 253.5C96.6717 252.383 96.8321 251.274 97.07 250.18V250.18Z" fill="#263238"/>
<path d="M104.1 249.84C104.65 249.56 105.24 249.34 105.83 249.11L106.74 248.75L107.2 248.57C107.377 248.515 107.548 248.441 107.71 248.35C107.8 248.28 107.86 248.44 107.77 248.45C107.59 248.501 107.415 248.571 107.25 248.66L106.8 248.87L105.92 249.26C105.339 249.524 104.745 249.758 104.14 249.96C104.132 249.963 104.124 249.964 104.116 249.963C104.107 249.963 104.099 249.96 104.092 249.957C104.084 249.953 104.078 249.948 104.072 249.941C104.067 249.935 104.063 249.928 104.06 249.92C104.057 249.912 104.056 249.904 104.057 249.896C104.058 249.887 104.06 249.879 104.063 249.872C104.067 249.864 104.072 249.858 104.079 249.852C104.085 249.847 104.092 249.843 104.1 249.84V249.84Z" fill="#263238"/>
<path d="M78.08 256.5C78.08 256.5 70.8 242.89 59.72 240.78C48.64 238.67 41.85 250.08 41.85 250.08C41.85 250.08 49.93 260.4 60.1 262.2C70.27 264 78.08 256.5 78.08 256.5Z" fill="#FF7460"/>
<path d="M52.29 246.88C55.1763 246.493 58.1034 246.527 60.98 246.98L60.49 246.72L58.03 245.45C56.33 244.57 54.61 243.63 52.82 242.91C52.74 242.91 52.82 242.76 52.88 242.8C54.61 243.61 56.41 244.28 58.14 245.08C59.01 245.48 59.87 245.9 60.72 246.35C61.26 246.64 61.87 246.91 62.41 247.26C64.8295 247.754 67.18 248.539 69.41 249.6L68.02 248.09C67.02 246.96 66.02 245.77 64.84 244.74C64.78 244.69 64.84 244.6 64.93 244.66C66.09 245.71 67.31 246.66 68.44 247.78C68.99 248.31 69.51 248.86 70.02 249.43C70.2667 249.71 70.5167 250 70.77 250.3C75.6216 252.936 79.6447 256.869 82.39 261.66C83.9213 264.374 85.0116 267.314 85.62 270.37C85.62 270.44 85.53 270.49 85.5 270.37C83.9424 265.182 81.1492 260.45 77.36 256.58C73.2939 252.428 68.1741 249.462 62.55 248C59.2046 247.147 55.7444 246.833 52.3 247.07C52.16 247.11 52.15 246.9 52.29 246.88Z" fill="#263238"/>
<path opacity="0.1" d="M42 250.498C42 250.498 50.08 260.818 60.26 262.618C68.01 263.998 74.4 259.948 76.99 257.958L77.55 257.038C77.55 257.038 72.3 252.618 62.38 250.038C52.46 247.458 42 250.498 42 250.498Z" fill="black"/>
<path d="M58.73 242C59.5777 242.497 60.3988 243.037 61.19 243.62C61.9577 244.222 62.6705 244.892 63.32 245.62C63.3319 245.632 63.3387 245.648 63.3387 245.665C63.3387 245.682 63.3319 245.698 63.32 245.71C63.3081 245.722 63.2919 245.729 63.275 245.729C63.2581 245.729 63.2419 245.722 63.23 245.71C62.49 245.07 61.75 244.43 60.99 243.83C60.2523 243.218 59.4738 242.657 58.66 242.15C58.6401 242.141 58.6247 242.124 58.6172 242.103C58.6097 242.083 58.6107 242.06 58.62 242.04C58.6293 242.02 58.6461 242.005 58.6667 241.997C58.6873 241.99 58.7101 241.991 58.73 242V242Z" fill="#263238"/>
<path d="M52.64 244.33L53.88 244.82L55.12 245.34C55.21 245.34 55.12 245.52 55.07 245.48L53.84 244.98C53.42 244.81 53.02 244.62 52.61 244.45C52.53 244.42 52.57 244.3 52.64 244.33Z" fill="#263238"/>
<path d="M79.54 273.62C79.54 273.62 77.54 287.12 67.44 291.84C57.34 296.56 44.92 291.84 44.92 291.84C44.92 291.84 49.78 262.64 79.54 273.62Z" fill="#FF7460"/>
<path d="M51.91 283.06C52.85 282.95 53.78 282.8 54.7 282.63L56.07 282.37L56.78 282.23C57.05 281.97 57.32 281.71 57.6 281.46C59.5271 279.772 61.6059 278.266 63.81 276.96C65.0122 276.252 66.2543 275.614 67.53 275.05H67.34C66.23 275.1 65.11 275.14 64 275.2C61.77 275.3 59.54 275.35 57.32 275.49C57.24 275.49 57.24 275.37 57.32 275.37C59.55 275.22 61.78 274.97 64.01 274.78L67.25 274.49L68.93 274.34H69.36C69.93 274.12 70.52 273.92 71.11 273.74C73.8729 272.784 76.8478 272.618 79.7 273.26C82.26 273.92 84.81 275.59 85.47 278.26C85.47 278.35 85.35 278.42 85.31 278.32C84.31 276.07 81.86 274.94 79.6 274.47C78.0856 274.185 76.5344 274.155 75.01 274.38C74.9006 275.078 74.7265 275.764 74.49 276.43C74.21 277.37 73.94 278.33 73.65 279.27C73.07 281.17 72.44 283.05 71.88 284.95C71.88 285.02 71.74 284.95 71.76 284.95C72.23 283.06 72.63 281.14 73.08 279.25L73.77 276.45C73.9037 275.803 74.0774 275.165 74.29 274.54C73.3976 274.69 72.5158 274.897 71.65 275.16C70.081 275.617 68.5443 276.178 67.05 276.84C66.9 277.84 66.69 278.76 66.47 279.71C66.19 280.9 65.88 282.08 65.47 283.24C65.474 283.249 65.4756 283.259 65.4748 283.269C65.474 283.279 65.4706 283.289 65.4652 283.297C65.4597 283.305 65.4523 283.312 65.4435 283.317C65.4348 283.321 65.425 283.324 65.415 283.324C65.405 283.324 65.3952 283.321 65.3865 283.317C65.3777 283.312 65.3703 283.305 65.3648 283.297C65.3593 283.289 65.3561 283.279 65.3552 283.269C65.3544 283.259 65.356 283.249 65.36 283.24C65.36 283.17 65.36 283.09 65.36 283.02C65.58 281.91 65.83 280.81 66.06 279.71C66.25 278.82 66.42 277.93 66.61 277.04C65.3452 277.599 64.1102 278.223 62.91 278.91C62.91 279.19 62.82 279.47 62.78 279.72C62.71 280.18 62.62 280.64 62.54 281.1C62.35 282.15 62.14 283.18 61.89 284.21C61.4318 286.201 60.8506 288.161 60.15 290.08C60.15 290.08 60.15 290.14 60.15 290.16L60.09 290.23C60.0806 290.24 60.0682 290.246 60.0548 290.247C60.0415 290.249 60.028 290.246 60.0164 290.239C60.0049 290.232 59.996 290.222 59.9912 290.209C59.9864 290.197 59.986 290.183 59.99 290.17C60.46 288.17 60.99 286.17 61.43 284.17C61.65 283.17 61.87 282.17 62.07 281.17C62.17 280.67 62.27 280.17 62.36 279.66C62.36 279.52 62.41 279.37 62.43 279.21C61.0636 280.013 59.7447 280.895 58.48 281.85C56.2892 283.49 54.263 285.338 52.43 287.37C52.36 287.45 52.21 287.37 52.28 287.25C53.0322 286.207 53.84 285.206 54.7 284.25C55.21 283.7 55.7 283.17 56.28 282.65H56.11L54.68 282.87C53.74 282.99 52.8 283.09 51.86 283.19C51.86 283.19 51.83 283.07 51.91 283.06Z" fill="#263238"/>
<path d="M59 287.64L59.06 287.29C59.06 287.14 59.16 287 59.18 286.85C59.39 285.95 59.56 285.04 59.73 284.13C59.73 284.06 59.84 284.08 59.84 284.13C59.7713 285.338 59.5079 286.526 59.06 287.65H58.99L59 287.64Z" fill="#263238"/>
<path d="M67.54 287.42C67.54 287.42 67.54 287.37 67.6 287.36C67.88 286.17 68.16 284.97 68.4 283.77C68.53 283.14 68.67 282.5 68.79 281.87C68.85 281.53 68.92 281.19 68.98 280.87C69.0036 280.571 69.0744 280.277 69.19 280C69.1962 279.99 69.205 279.981 69.2155 279.975C69.226 279.969 69.2379 279.966 69.25 279.966C69.2621 279.966 69.2739 279.969 69.2844 279.975C69.295 279.981 69.3038 279.99 69.31 280C69.3163 280.613 69.2286 281.223 69.05 281.81C68.93 282.47 68.8 283.12 68.66 283.81C68.36 285.14 68.03 286.47 67.66 287.81C67.66 287.88 67.52 287.86 67.53 287.81L67.54 287.42Z" fill="#263238"/>
<path d="M52.84 279.17C54.69 278.92 56.54 278.65 58.4 278.43C58.48 278.43 58.51 278.54 58.4 278.55C56.55 278.82 54.69 279.05 52.84 279.3C52.79 279.31 52.76 279.18 52.84 279.17Z" fill="#263238"/>
<path d="M84.74 242C84.74 242 90.95 214.75 61.67 203.72C61.67 203.69 53.56 239.56 84.74 242Z" fill="#FF7460"/>
<path d="M78.42 226.51L78.1 226.32L76.45 225.4L73.05 223.5C70.82 222.25 68.61 220.95 66.36 219.72C66.29 219.72 66.36 219.58 66.43 219.62C68.68 220.84 70.98 221.99 73.24 223.19L76.6 225L77.97 225.73C76.97 223.87 75.97 222.06 74.8 220.31C73.27 217.98 71.6 215.75 69.85 213.58C69.8314 213.56 69.8215 213.534 69.8225 213.506C69.8234 213.479 69.8351 213.454 69.855 213.435C69.8749 213.416 69.9013 213.407 69.9285 213.407C69.9557 213.408 69.9814 213.42 70 213.44C72.565 215.938 74.8333 218.723 76.76 221.74V221.46C76.76 220.78 76.71 220.1 76.69 219.46C76.69 218.13 76.74 216.8 76.69 215.46C76.69 215.444 76.6963 215.429 76.7076 215.418C76.7188 215.406 76.7341 215.4 76.75 215.4C76.7659 215.4 76.7812 215.406 76.7924 215.418C76.8037 215.429 76.81 215.444 76.81 215.46C76.87 216.77 77.03 218.08 77.1 219.39C77.1 220.04 77.17 220.69 77.19 221.39C77.19 221.74 77.19 222.14 77.19 222.53C77.79 223.53 78.37 224.46 78.92 225.45C79.8941 227.225 80.7655 229.055 81.53 230.93C81.53 230.26 81.6 229.58 81.64 228.93C81.73 227.44 81.91 225.93 81.98 224.46C81.98 224.444 81.9863 224.429 81.9976 224.418C82.0088 224.406 82.0241 224.4 82.04 224.4C82.0559 224.4 82.0712 224.406 82.0824 224.418C82.0937 224.429 82.1 224.444 82.1 224.46C82.1 225.96 82.1 227.46 82.1 228.94C82.1 229.69 82.1 230.43 82.01 231.18C82.01 231.45 82.01 231.73 81.96 232.01C82.8917 234.445 83.6307 236.949 84.17 239.5C84.6733 242.223 85.0371 244.97 85.26 247.73C84.9452 245.247 84.4234 242.796 83.7 240.4C83.34 239.11 82.96 237.83 82.55 236.56C81.33 235.99 80.16 235.27 78.99 234.62L75.31 232.62C72.87 231.28 70.43 229.92 67.91 228.73C67.84 228.73 67.91 228.6 67.98 228.63C70.53 229.78 73.1 230.88 75.61 232.14C76.85 232.77 78.08 233.44 79.3 234.14C80.3 234.72 81.36 235.29 82.3 235.95C82.02 235.1 81.72 234.26 81.4 233.42C80.54 231 79.53 228.7 78.42 226.51Z" fill="#263238"/>
<path d="M80.89 220.28C80.89 220.264 80.8963 220.249 80.9076 220.238C80.9188 220.226 80.9341 220.22 80.95 220.22C80.9659 220.22 80.9812 220.226 80.9924 220.238C81.0037 220.249 81.01 220.264 81.01 220.28C80.9 221.83 80.85 223.38 80.69 224.93C80.69 224.949 80.6826 224.966 80.6695 224.979C80.6564 224.993 80.6386 225 80.62 225C80.6014 225 80.5836 224.993 80.5705 224.979C80.5574 224.966 80.55 224.949 80.55 224.93C80.6 223.38 80.77 221.84 80.89 220.28Z" fill="#263238"/>
<path d="M66.85 225.49C68.68 226.22 70.53 226.92 72.35 227.69C72.35 227.69 72.35 227.79 72.35 227.77C70.5 227.08 68.67 226.32 66.83 225.61C66.74 225.58 66.77 225.46 66.85 225.49Z" fill="#263238"/>
<path d="M64.07 212.92C65.8589 213.743 67.5954 214.674 69.27 215.71C69.2822 215.713 69.2935 215.719 69.3029 215.727C69.3124 215.735 69.3198 215.746 69.3245 215.757C69.3293 215.769 69.3312 215.782 69.3301 215.794C69.3291 215.807 69.3251 215.819 69.3185 215.83C69.312 215.84 69.303 215.849 69.2923 215.856C69.2816 215.862 69.2694 215.866 69.2569 215.867C69.2444 215.868 69.2318 215.866 69.2202 215.862C69.2086 215.857 69.1982 215.849 69.19 215.84C67.49 214.84 65.76 213.9 64 213.02C63.93 213 64 212.89 64.07 212.92Z" fill="#263238"/>
<path d="M64.51 300.89H106.73V345.39H64.51V300.89Z" fill="#455A64"/>
<path d="M107.47 316.64H109.63V392.87H107.47V316.64Z" fill="#263238"/>
<path d="M61.83 316.64H63.99V392.87H61.83V316.64Z" fill="#263238"/>
<path d="M83.5 316.64H85.66V392.87H83.5V316.64Z" fill="#263238"/>
<path d="M62.92 342.54H108.56V348.7H62.92V342.54Z" fill="#263238"/>
</g>
<defs>
<clipPath id="clip0">
<rect width="500" height="500" fill="white" transform="matrix(-1 0 0 1 500 0)"/>
</clipPath>
</defs>
</svg>
